<svg width="145" height="100" viewBox="0 0 145 100" fill="none" xmlns="http://www.w3.org/2000/svg">
<mask id="mask0_3932_697" style="mask-type:alpha" maskUnits="userSpaceOnUse" x="8" y="20" width="121" height="80">
<rect x="8.5" y="20" width="120" height="80" rx="18" fill="#B4FBE4"/>
</mask>
<g mask="url(#mask0_3932_697)">
<rect x="8.5" y="20" width="120" height="80" rx="18" fill="#B4FBE4"/>
<rect opacity="0.3" x="83" y="27.5" width="26.5" height="7" fill="#66DCB8"/>
<rect opacity="0.3" x="74.5" y="32.5" width="39.5" height="7" fill="#66DCB8"/>
<rect opacity="0.3" x="27" y="89.5" width="50.5" height="10.5" fill="#66DCB8"/>
<rect opacity="0.3" x="52" y="32.5" width="9.5" height="39" fill="#66DCB8"/>
<rect opacity="0.3" x="26" y="20" width="9.5" height="35" fill="#66DCB8"/>
<rect opacity="0.3" x="26" y="36" width="35.5" height="18.5" fill="#66DCB8"/>
<rect opacity="0.3" x="8.5" y="46" width="5" height="27" fill="#66DCB8"/>
<path d="M16.5 30.75L34.25 38L54.75 63.75" stroke="#66DCB8"/>
<path d="M24.5 45.25L32.5 44.25L38.75 49L44 55.25" stroke="#66DCB8"/>
<path d="M37.75 55.25H48.25" stroke="#66DCB8"/>
<path d="M7.25 79L29.25 84.75" stroke="#66DCB8"/>
<path d="M70.25 59L87.75 76" stroke="#66DCB8"/>
<path d="M63.25 81.5L81.5 58" stroke="#66DCB8"/>
<path d="M46.5 101.5L57.75 86.5" stroke="#66DCB8"/>
<path d="M33.75 102.75L47.25 83L52.25 94.25" stroke="#66DCB8"/>
<path d="M46.5 36L69.25 22.25" stroke="#66DCB8"/>
<path d="M43 49L57.25 41.5H64.75" stroke="#66DCB8"/>
<path d="M56 61.75L48.5 45.75L46.5 36" stroke="#66DCB8"/>
<path d="M53.75 56.75L65.75 51.75" stroke="#66DCB8"/>
<path d="M74 34.25L71.25 59.25" stroke="#66DCB8"/>
<path d="M65.5 41.5H73.25L80.25 54.25" stroke="#66DCB8"/>
<path d="M80.25 34V58.5" stroke="#66DCB8"/>
<path d="M54 13.5L87 33" stroke="#66DCB8"/>
<path d="M41.5 20.75L58.75 28.5" stroke="#66DCB8"/>
<path d="M81 15.25L72.5 24.5L69.75 34.5" stroke="#66DCB8"/>
<path d="M37.75 55.25L38.75 49.25L40.75 46" stroke="#66DCB8"/>
<path d="M32.5 54V44.25L31.5 38.5" stroke="#66DCB8"/>
<path d="M28 92.25L47.5 83L56 63" stroke="#66DCB8"/>
<path d="M50.75 75.25L68 83.75L75.25 85.5" stroke="#66DCB8"/>
<path d="M53 76.5L54 84.5L66.75 91.75L78 94.25" stroke="#66DCB8"/>
<path d="M65.5 99.75L68 83.75" stroke="#66DCB8"/>
<path d="M7.25 9.5L28 57" stroke="#4FCAA2" stroke-width="3"/>
<path d="M45 65L107 52.75" stroke="#4FCAA2" stroke-width="3"/>
<path d="M30.5 78.75L24.75 104.5" stroke="#4FCAA2" stroke-width="3"/>
<path d="M64.5 34.25L66.25 60.75L79.75 98.5" stroke="#66DCB8" stroke-width="2"/>
<path d="M21.25 40.75L40.25 36.5L96.75 32.75" stroke="#4FCAA2" stroke-width="2"/>
<path d="M50 15.5L34.75 25.5L39.75 36.25" stroke="#4FCAA2" stroke-width="2"/>
<path d="M102.75 13L91.25 23.75L105 46.75" stroke="#4FCAA2" stroke-width="2"/>
<path d="M23 47.5L-6.5 61.5L25.25 101.25" stroke="#4FCAA2" stroke-width="2"/>
<circle cx="32.75" cy="67" r="12.5" stroke="#4FCAA2" stroke-width="3"/>
<circle cx="33" cy="67" r="8" fill="#B7E0E5"/>
</g>
<g clip-path="url(#clip0_3932_697)">
<path d="M109.744 6.50007C109.744 6.50007 114.693 -0.427316 122.568 5.21215C130.443 10.8516 131.919 24.0175 131.692 35.8998C131.534 44.2541 130.152 46.9284 130.152 46.9284C130.152 46.9284 118.197 60.0322 108.769 50.7622C105.936 47.9788 108.176 47.183 104.689 45.4415C101.94 44.068 98.6641 42.2559 98.1934 36.2592C97.834 31.668 98.5186 30.2603 98.386 22.7681C98.2255 13.5901 100.224 9.07805 103.702 6.90442C106.924 4.89124 109.744 6.50221 109.744 6.50221V6.50007Z" fill="#8F665A"/>
<path d="M122.157 27.4492L128.106 44.5152L117.104 43.8499L122.157 27.4492Z" fill="#684444"/>
<path d="M127.556 102.444L133.491 102.416C135.014 102.41 136.197 101.085 136.031 99.5706L134.148 82.3291C135.859 67.6464 136.563 47.2536 130.284 45.0372C130.196 45.0072 130.122 44.9516 130.04 44.9131C127.285 43.608 124.2 43.7 121.256 44.1557C118.312 44.6114 115.578 45.1655 112.688 45.4608C112.623 45.4672 112.557 45.4736 112.493 45.48C107.773 45.9528 102.913 44.2328 96.6485 44.8938C84.5373 46.1711 83.0547 101.013 83.0547 101.013C83.0547 101.013 90.6132 102.2 101.287 102.2C102.557 102.2 104.021 102.215 105.613 102.238C105.974 102.245 106.336 102.249 106.702 102.256C110.105 102.311 113.618 102.382 116.898 102.431L116.844 102.491L120.366 102.474C123.143 102.499 125.625 102.499 127.559 102.439L127.556 102.444Z" fill="#FCE4ED"/>
<path d="M103.944 46.8877C103.944 46.8877 103.946 51.8554 109.55 52.7047C116.841 53.8087 118.037 48.7447 118.037 48.7447" stroke="#FFA3AA" stroke-width="0.855761" stroke-linecap="round" stroke-linejoin="round"/>
<path d="M92.3272 101.926C93.5852 82.729 106.661 43.856 106.661 43.8496C103.148 44.0036 100.943 44.286 96.6445 44.8958C84.5869 46.603 83.0508 101.017 83.0508 101.017C83.0508 101.017 86.6236 101.577 92.3251 101.928L92.3272 101.926Z" fill="#F18680"/>
<path d="M122.569 24.0156L118.724 45.844C118.724 45.844 116.51 50.3453 109.865 50.3239C105.768 50.311 105.881 45.2834 105.881 45.2834L108.104 24.681L122.569 24.0156Z" fill="#FBC098"/>
<path d="M99.916 102.193C100.367 102.198 100.823 102.2 101.287 102.2C102.558 102.2 104.022 102.215 105.613 102.238C105.975 102.245 106.336 102.249 106.702 102.255C110.106 102.311 113.619 102.382 116.899 102.431L116.845 102.491L120.367 102.474C123.144 102.499 125.625 102.499 127.559 102.439L133.494 102.411C135.017 102.405 136.2 101.081 136.033 99.5661L134.151 82.3246C135.862 67.6419 138.614 49.7907 131.716 45.7686C131.652 45.7323 129.13 40.7389 119.222 43.0216C117.872 43.334 112.496 64.2295 110.228 71.45C105.767 85.6578 100.224 101.318 99.916 102.189V102.193Z" fill="#FFA3AA"/>
<path d="M122.479 22.308C122.479 22.308 126.044 19.1588 126.897 23.3307C127.623 26.8735 122.154 30.6496 122.154 30.6496L122.479 22.308Z" fill="#FBC098"/>
<path d="M106.223 42.1107C106.223 42.1107 113.058 40.72 117.104 35.5684L106.655 38.1057L106.223 42.1107Z" fill="#EC7769"/>
<path d="M101.191 16.6965C100.482 22.0407 98.9998 28.6536 101.223 32.5751C104.819 38.9185 108.377 39.4298 112.803 37.99C118.731 36.0624 123.372 29.1264 122.482 22.3081C121.592 15.4899 115.961 7.48635 110.031 8.52396C104.1 9.56157 101.524 14.187 101.191 16.6965Z" fill="#FBC098"/>
<path d="M103.569 12.2381C103.569 12.2381 108.263 8.26518 111.19 14.7882C113.928 20.8898 116.29 21.9039 118.84 22.9693C122.223 24.3813 121.628 31.6082 118.462 34.4729C118.462 34.4729 123.994 31.8564 124.157 24.0497C124.319 16.243 120.614 6.52585 108.772 7.35594C98.9032 8.0491 101.021 14.463 103.569 12.2381Z" fill="#8F665A"/>
<path d="M106.281 24.501C106.281 24.501 104.27 27.0426 105.169 28.4332C105.699 29.2547 107.569 28.9467 107.569 28.9467C107.569 28.9467 105.378 27.8149 106.281 24.501Z" fill="#EC7769"/>
<path d="M105.234 31.1846C106.092 30.9364 112.287 30.0828 112.482 30.6497C112.844 31.7066 109.412 34.6055 108.214 34.6868C107.016 34.7681 104.254 31.467 105.234 31.1824V31.1846Z" fill="white"/>
<path d="M110 18.2766C110 18.2766 112.02 15.9426 114.591 16.625C116.968 17.2583 117.894 17.9942 117.894 17.9942L110.002 18.2766H110Z" fill="#2D2248"/>
<path d="M105.398 18.0088L100 17.4076C100 17.4076 102.219 16.4235 103.387 16.5048C104.555 16.5861 105.4 18.0088 105.4 18.0088H105.398Z" fill="#2D2248"/>
<path d="M104.019 24.0153C104.576 24.0153 105.027 23.204 105.027 22.2032C105.027 21.2024 104.576 20.3911 104.019 20.3911C103.463 20.3911 103.012 21.2024 103.012 22.2032C103.012 23.204 103.463 24.0153 104.019 24.0153Z" fill="#2D2248"/>
<path d="M104.7 20.8663C104.7 20.8663 104.227 19.8693 103.624 19.9078C103.02 19.9463 102.295 20.2266 102.094 19.9078C102.094 19.9078 101.961 21.0203 103.196 21.1679C104.43 21.3156 104.7 20.8663 104.7 20.8663Z" fill="#2D2248"/>
<path d="M112.802 25.286C113.443 25.286 113.962 24.3511 113.962 23.1979C113.962 22.0447 113.443 21.1099 112.802 21.1099C112.162 21.1099 111.643 22.0447 111.643 23.1979C111.643 24.3511 112.162 25.286 112.802 25.286Z" fill="#2D2248"/>
<path d="M113.585 21.6579C113.585 21.6579 113.041 20.5091 112.344 20.554C111.646 20.5989 110.812 20.922 110.581 20.554C110.581 20.554 110.429 21.8355 111.85 22.0067C113.27 22.1778 113.582 21.6579 113.582 21.6579H113.585Z" fill="#2D2248"/>
<path d="M120.013 46.8877L111.663 74.9802" stroke="#F18680" stroke-width="0.855761" stroke-linecap="round" stroke-linejoin="round"/>
<path d="M84.8566 64.8115C82.7108 64.0627 81.072 64.8714 79.3113 66.5893C78.0447 67.8259 76.2498 71.3452 76.0786 72.3807C75.394 76.529 84.0308 75.1876 85.0492 75.4358C86.0675 75.6839 93.1554 68.9983 93.395 68.5148C93.6346 68.0313 99.5158 44.7824 98.6301 44.7974C97.7444 44.8123 92.0257 44.915 90.2543 48.2974C88.4829 51.6798 84.8587 64.8094 84.8587 64.8094L84.8566 64.8115Z" fill="#FFA3AA"/>
<path d="M97.4381 67.2422C97.4381 67.2422 104.509 69.8202 107.489 74.4841C110.469 79.148 112.309 86.8007 111.032 91.9737C108.212 103.394 98.7196 102.179 98.7196 102.179H71.3245C71.3245 102.179 70.4259 85.7181 78.5343 75.6822C84.5332 68.2584 87.9092 66.41 97.4359 67.2422H97.4381Z" fill="#30B287"/>
<path d="M97.9453 69.6233L99.2353 68.0124L97.4382 67.2422H96.4541L97.9453 69.6233Z" fill="#1A9166"/>
<path d="M99.2353 71.1914C99.2353 71.1914 95.7866 77.4984 90.8938 77.8214C86.001 78.1445 87.1456 69.9185 87.1456 69.9185" stroke="#1A9166" stroke-width="0.641821" stroke-linecap="round" stroke-linejoin="round"/>
<path d="M83.8662 53.3894C83.8662 53.3894 82.42 52.6598 82.9634 50.8478C83.5068 49.0357 83.5859 48.8645 83.5859 48.8645H82.0156C82.0156 48.8645 82.9078 46.3529 85.7617 44.7997C88.2391 43.4497 89.9892 45.0585 89.9892 45.0585C89.9892 45.0585 92.2249 42.7031 95.4874 43.0047C98.75 43.3064 100.318 46.9241 100.318 46.9241C100.318 46.9241 103.585 45.664 104.244 51.0981C105.513 61.5491 96.4523 67.2399 96.4523 67.2399L83.8641 53.3872L83.8662 53.3894Z" fill="#8F665A"/>
<path d="M96.2126 61.489L97.9455 69.623C97.9455 69.623 93.2324 76.4712 90.8983 76.0775C88.5642 75.6839 88.3203 70.5643 88.3203 70.5643L88.8851 63.5214L96.2147 61.4868L96.2126 61.489Z" fill="#FBC098"/>
<path d="M88.3203 70.5647L93.9748 66.4121L88.577 67.3406L88.3203 70.5647Z" fill="#EC7769"/>
<path d="M78.3763 102.178C78.8448 98.2826 80.0664 87.5685 79.9958 82.6115C79.9509 79.396 78.9603 77.4534 78.0297 76.3345C70.9825 85.7265 71.2456 100.05 71.3141 101.962L72.2019 102.178H78.372H78.3763Z" fill="#1A9166"/>
<path d="M72.2041 102.178L83.053 91.5371L97.1966 92.6539L101.285 102.202L72.2041 102.178Z" fill="#1A9166"/>
<path d="M99.4755 81.0003C95.5497 85.7733 95.6481 89.8211 95.6481 89.8211C95.3336 98.2246 97.6377 101.096 99.9012 102.236C103.391 102.354 110.147 102.495 111.664 92.6558C112.474 87.3907 110.47 79.1497 107.49 74.4858C106.02 74.3724 103.401 76.2316 99.4755 81.0024V81.0003Z" fill="#4FCAA2"/>
<path d="M84.4971 51.4469C83.774 53.1905 82.9845 56.2349 83.406 62.0348C83.8274 67.8347 87.5479 68.4595 90.4746 68.1364C93.6088 67.7877 96.9976 63.9517 97.1795 60.1243C97.3613 56.2969 96.2125 51.1624 91.7732 48.9096C88.6839 47.3414 85.9455 47.9618 84.4971 51.4491V51.4469Z" fill="#FBC098"/>
<path d="M86.4267 53.9993C86.4267 53.9993 85.1302 52.307 83.8615 52.7905L83.7695 53.8089C83.7695 53.8089 85.0981 53.4687 86.4267 53.9993Z" fill="#2D2248"/>
<path d="M97.181 58.6502C97.181 58.6502 98.5695 56.8531 99.958 58.1474C100.983 59.1037 99.5922 61.9662 98.1438 63.083C97.196 63.8147 95.9766 63.958 95.9766 63.958L97.1789 58.6502H97.181Z" fill="#FBC098"/>
<path d="M83.7701 53.8085L86.9707 49.288C86.9707 49.288 91.7437 48.3809 94.2789 51.7034C96.8141 55.0259 96.2129 61.489 96.2129 61.489C96.2129 61.489 99.1738 59.3753 98.992 55.6292C98.8101 51.8831 95.4277 46.3741 89.4481 46.9239C83.4685 47.4738 83.7701 53.8064 83.7701 53.8064V53.8085Z" fill="#8F665A"/>
<path d="M89.1456 53.8085C89.1456 53.8085 88.8846 52.4008 91.1994 52.7046C92.6478 52.8928 94.1282 53.9989 94.1282 53.9989L89.1456 53.8085Z" fill="#2D2248"/>
<path d="M90.9428 58.509C91.3233 58.509 91.6317 57.9209 91.6317 57.1954C91.6317 56.47 91.3233 55.8818 90.9428 55.8818C90.5623 55.8818 90.2539 56.47 90.2539 57.1954C90.2539 57.9209 90.5623 58.509 90.9428 58.509Z" fill="#2D2248"/>
<path d="M85.2843 57.8203C85.6316 57.8203 85.9132 57.283 85.9132 56.6201C85.9132 55.9573 85.6316 55.4199 85.2843 55.4199C84.9369 55.4199 84.6553 55.9573 84.6553 56.6201C84.6553 57.283 84.9369 57.8203 85.2843 57.8203Z" fill="#2D2248"/>
<path d="M86.6839 58.5088C86.6839 58.5088 85.565 59.0329 86.0635 59.8267C86.562 60.6204 86.9727 60.8172 86.9727 60.8172L86.6839 58.5088Z" fill="#EC7769"/>
<path d="M71.3599 88.3374L71.9072 91.8669C71.9434 92.0995 71.7843 92.3186 71.5495 92.3545L67.1903 93.0301C66.6894 93.107 66.3461 93.5755 66.4251 94.0767L66.8922 97.0873C67.0726 98.2548 68.1673 99.0547 69.3347 98.8743L72.909 98.3199L79.1805 97.3484L89.9476 95.6802C91.115 95.4998 91.915 94.4051 91.7346 93.2377L90.515 85.3669C90.3345 84.1995 89.2398 83.3995 88.0724 83.58L73.1498 85.891C71.9823 86.0714 71.1824 87.1661 71.3628 88.3336L71.3599 88.3374Z" fill="#FFE39C"/>
<path d="M79.5251 91.9973C73.3738 92.6166 68.6193 95.4318 68.906 98.2859C68.9267 98.4962 68.977 98.6988 69.05 98.8967C69.1439 98.8942 69.2383 98.8895 69.3345 98.8742L72.9088 98.3198L79.1802 97.3483L89.9474 95.6801C90.3319 95.6213 90.6764 95.4596 90.9588 95.2324C89.8573 92.8572 85.072 91.4384 79.5276 91.9956L79.5251 91.9973Z" fill="#FFDE7C"/>
<path d="M73.9402 100.435C75.232 100.668 76.4684 99.8099 76.7018 98.5181C76.9351 97.2263 76.0771 95.9899 74.7853 95.7565C73.4935 95.5232 72.2571 96.3812 72.0237 97.673C71.7904 98.9648 72.6484 100.201 73.9402 100.435Z" fill="#2D2248"/>
<path d="M84.156 98.854C85.4479 99.0874 86.6842 98.2293 86.9176 96.9375C87.151 95.6457 86.2929 94.4093 85.0011 94.176C83.7093 93.9426 82.4729 94.8006 82.2396 96.0924C82.0062 97.3842 82.8642 98.6206 84.156 98.854Z" fill="#2D2248"/>
<path d="M76.2317 86.6125L73.2248 87.0742C72.7576 87.1459 72.4371 87.5828 72.5088 88.0499L72.9705 91.0569C73.0423 91.5241 73.4791 91.8446 73.9463 91.7729L76.9533 91.3111C77.4204 91.2394 77.741 90.8026 77.6692 90.3354L77.2075 87.3284C77.1357 86.8613 76.6989 86.5407 76.2317 86.6125Z" fill="white"/>
<path d="M69.1143 93.4562L68.3615 93.5718C67.8943 93.6435 67.5738 94.0804 67.6455 94.5475L67.6702 94.7082C67.7419 95.1754 68.1788 95.4959 68.6459 95.4242L69.3987 95.3086C69.8659 95.2368 70.1864 94.8 70.1147 94.3328L70.09 94.1721C70.0183 93.705 69.5814 93.3844 69.1143 93.4562Z" fill="white"/>
<path d="M69.9231 96.4816C69.8514 96.0144 69.4146 95.6939 68.9474 95.7656C68.4803 95.8374 68.1597 96.2742 68.2314 96.7414L68.2561 96.9021C68.3279 97.3692 68.7647 97.6898 69.2319 97.618C69.699 97.5463 70.0196 97.1094 69.9478 96.6423L69.9231 96.4816Z" fill="white"/>
<path d="M86.5033 85.0356L79.2248 86.1533C78.7576 86.2251 78.4371 86.6619 78.5088 87.1291L78.9705 90.136C79.0423 90.6032 79.4791 90.9237 79.9463 90.852L87.2248 89.7343C87.6919 89.6626 88.0125 89.2257 87.9407 88.7586L87.479 85.7516C87.4073 85.2845 86.9704 84.9639 86.5033 85.0356Z" fill="white"/>
<path d="M73.7333 91.7706C73.8056 91.7793 73.8774 91.7793 73.9532 91.769L74.5168 91.6817L75.4102 86.7363L74.621 86.8568L73.7333 91.7706Z" fill="#B7E0E5"/>
<path d="M77.2147 87.3256C77.1426 86.8582 76.7069 86.5381 76.2395 86.6102L76.1701 86.6216L75.2767 91.567L76.9626 91.3085C77.43 91.2364 77.75 90.8007 77.678 90.3333L77.2168 87.3259L77.2147 87.3256Z" fill="#B7E0E5"/>
<path d="M81.5491 90.6022L82.1997 90.5024L83.0931 85.557L82.4424 85.6568L81.5491 90.6022Z" fill="#B7E0E5"/>
<path d="M87.4855 85.7478C87.4134 85.2804 86.9777 84.9604 86.5103 85.0325L83.7687 85.4547L82.8753 90.4001L87.2313 89.7304C87.6987 89.6583 88.0187 89.2226 87.9466 88.7552L87.4855 85.7478Z" fill="#B7E0E5"/>
<path d="M86.1252 62.4861C86.1252 62.4861 86.8804 62.8177 88.0271 62.6979C89.1738 62.5781 90.7142 61.8828 90.7142 61.8828C90.7142 61.8828 90.7934 64.5485 88.7759 64.848C86.6365 65.1647 86.123 62.4883 86.123 62.4883L86.1252 62.4861Z" fill="white"/>
<path d="M98.319 92.2751C98.1115 91.3274 97.4397 90.5486 96.5326 90.2063C95.2639 89.7271 93.3427 89.0147 91.6334 88.4392C90.3262 87.9985 84.5263 90.3839 84.6375 91.0664C84.7488 91.7488 85.4655 92.0804 86.6785 91.8579C87.8915 91.6376 88.3323 91.582 88.3323 91.582C88.3323 91.582 84.5798 93.1266 84.6354 93.8989C84.691 94.6713 85.519 94.7269 86.2357 94.4509C86.9524 94.1749 89.7849 93.2935 89.7849 93.2935C89.7849 93.2935 85.5746 95.6105 85.8506 96.2715C86.1265 96.9326 87.1748 96.7123 88.1119 96.2715C89.049 95.8308 90.4824 95.3345 90.9787 95.6105C91.475 95.8864 91.182 96.8235 93.424 97.5958C95.6661 98.3682 96.3294 96.7679 98.0387 96.9882C99.2069 97.138 98.7362 94.1706 98.319 92.2751Z" fill="#FBC098"/>
<path d="M96.8779 89.2586L99.0516 88.5483C99.0516 88.5483 101.467 90.6257 101.709 94.5109C101.95 98.396 98.7734 98.6977 98.7734 98.6977L98.0225 97.8055" stroke="#30B287" stroke-width="0.855761" stroke-linecap="round" stroke-linejoin="round"/>
<path d="M77.3962 75.2005C77.3962 75.2005 75.8965 73.9618 75.997 73.6901C76.0976 73.4184 76.9961 70.9366 79.02 69.8798C80.1261 69.3021 82.09 69.2444 83.6433 69.3128C84.9248 69.3685 85.9346 70.4211 85.9346 71.7026V73.7521L77.3962 75.2026V75.2005Z" fill="#FCE4ED"/>
<path d="M76.8252 76.2896C76.5513 74.9075 78.757 71.953 79.5037 71.431C80.2503 70.909 83.6905 70.3099 84.3623 70.6843C85.034 71.0587 87.4045 75.3183 87.3639 76.664C87.3104 78.3926 83.7654 75.468 83.7654 75.468C83.7654 75.468 86.138 78.8611 85.4106 79.2805C84.6832 79.6998 83.6263 79.841 82.9053 79.5051C82.471 79.3019 80.8879 78.6087 80.8879 78.6087C80.8879 78.6087 82.1095 80.1405 81.8592 80.701C81.5083 81.4905 77.0305 77.3315 76.8252 76.2896Z" fill="#FBC098"/>
<path d="M122.568 83.7881L135.659 96.1667L134.393 84.5647L122.568 83.7881Z" fill="#F18680"/>
<path d="M121.74 74.4838C121.74 74.4838 108.917 77.5153 107.588 77.9368C106.259 78.3582 100.926 84.0811 100.019 85.2899C99.1116 86.4987 100.442 86.8003 102.192 85.8333C102.192 85.8333 100.019 88.069 100.984 89.2756C101.948 90.4822 107.81 86.7704 107.81 86.7704C107.81 86.7704 105.737 89.2136 106.159 89.4553C106.58 89.6971 107.045 90.2597 109.038 88.9055C110.619 87.8315 110.602 87.5127 113.302 86.4238C115.138 85.6836 117.031 84.6823 116.911 83.4136C116.792 82.145 119.703 82.4274 119.703 82.4274L131.693 84.5604L121.74 74.4795V74.4838Z" fill="#FBC098"/>
<path d="M119.703 82.4297L131.692 84.5627L126.38 79.1821L118.509 80.8295C117.335 81.0755 116.605 82.2565 116.913 83.416C116.794 82.1473 119.705 82.4297 119.705 82.4297H119.703Z" fill="#F2A07C"/>
<path d="M130.041 44.9131C133.301 46.4684 135.95 47.6558 140.12 62.33C144.289 77.0041 144.739 77.6203 143.677 80.562C141.75 85.8976 134.191 88.2702 134.191 88.2702L119.22 73.3543C119.22 73.3543 125.811 69.7665 131.47 70.6309L130.041 44.9152V44.9131Z" fill="#FFA3AA"/>
<path d="M105.173 79.8218C103.142 81.7301 100.616 84.4921 100.019 85.2901C99.1116 86.4989 100.442 86.8005 102.192 85.8335C102.192 85.8335 105.675 80.2154 105.173 79.8218Z" fill="#F2A07C"/>
<path d="M120.35 74.4775L118.039 74.8797L122.568 83.7882L130.993 85.0826L120.35 74.4775Z" fill="#FCE4ED"/>
<path d="M124.5 75.111L128.486 73.5" stroke="#F18680" stroke-width="0.855761" stroke-linecap="round" stroke-linejoin="round"/>
<path d="M125.746 77.5072L131.223 76.0566" stroke="#F18680" stroke-width="0.855761" stroke-linecap="round" stroke-linejoin="round"/>
<path d="M127.692 79.5288L132.453 79.762" stroke="#F18680" stroke-width="0.855761" stroke-linecap="round" stroke-linejoin="round"/>
<path d="M127.5 62.75L129.5 70.25C124.188 69.3782 119 73.5 119 73.5L134.25 88.5" stroke="#F18680" stroke-width="0.855761" stroke-linecap="round" stroke-linejoin="round"/>
<path d="M86.8238 7.99568C87.2133 7.58595 87.8995 7.914 87.8252 8.47442L87.5599 10.4767C87.5267 10.7274 87.6586 10.9709 87.8867 11.0799L89.709 11.9511C90.2191 12.1949 90.1191 12.9489 89.5632 13.0514L87.5768 13.4178C87.3282 13.4637 87.1374 13.6644 87.1042 13.915L86.8388 15.9174C86.7645 16.4778 86.0165 16.6158 85.7472 16.1187L84.785 14.3428C84.6645 14.1205 84.4146 14.0011 84.166 14.0469L82.1797 14.4133C81.6237 14.5158 81.2614 13.8471 81.6509 13.4373L83.0425 11.9734C83.2167 11.7902 83.2531 11.5156 83.1326 11.2933L82.1704 9.51743C81.9011 9.02038 82.4251 8.4691 82.9352 8.71291L84.7575 9.58405C84.9856 9.69309 85.258 9.64285 85.4321 9.45962L86.8238 7.99568Z" fill="#66DCB8"/>
</g>
<path fill-rule="evenodd" clip-rule="evenodd" d="M62.6103 42.1203C64.5162 37.7653 68.54 34.7842 72.1608 31.7031C76.0396 28.4025 78.5 23.4858 78.5 17.9946C78.5 8.05644 70.4411 0 60.5 0C50.5589 0 42.5 8.05644 42.5 17.9946C42.5 23.4858 44.9604 28.4025 48.8392 31.7031C52.46 34.7842 56.4838 37.7653 58.3897 42.1203C59.1948 43.9599 61.8052 43.9599 62.6103 42.1203Z" fill="white"/>
<path fill-rule="evenodd" clip-rule="evenodd" d="M31.6724 51.2388C32.7312 48.836 34.9667 47.1913 36.9782 45.4914C39.1331 43.6703 40.5 40.9577 40.5 37.928C40.5 32.4449 36.0228 28 30.5 28C24.9772 28 20.5 32.4449 20.5 37.928C20.5 40.9577 21.8669 43.6703 24.0218 45.4914C26.0333 47.1913 28.2688 48.836 29.3276 51.2388C29.7749 52.2537 31.2251 52.2537 31.6724 51.2388Z" fill="#F9FFFF"/>
<rect x="25" y="35" width="8" height="9" rx="1" fill="#B7E0E5"/>
<rect x="30.75" y="38.25" width="5.5" height="5.5" rx="0.75" stroke="#B7E0E5" stroke-width="0.5"/>
<rect x="27" y="37.5" width="1.5" height="2" fill="white"/>
<rect x="27" y="41" width="1.5" height="2" fill="white"/>
<rect x="29.5" y="37.5" width="1.5" height="2" fill="white"/>
<rect x="29.5" y="41" width="1.5" height="2" fill="white"/>
<rect x="33.5" y="39.5" width="2" height="1" fill="#B7E0E5"/>
<rect x="33.5" y="41.5" width="2" height="1" fill="#B7E0E5"/>
<rect x="26.75" y="32.25" width="4.5" height="4.5" rx="0.75" fill="white" stroke="#EC7769" stroke-width="0.5"/>
<rect x="28.5" y="33" width="1" height="3" fill="#EC7769"/>
<rect x="30.5" y="34" width="1" height="3" transform="rotate(90 30.5 34)" fill="#EC7769"/>
<rect x="51" y="13" width="15" height="15" fill="#B7E0E5"/>
<rect x="50" y="10.5" width="17" height="1.5" fill="#B7E0E5"/>
<rect x="51" y="28" width="20" height="1.5" fill="#B7E0E5"/>
<rect x="61.75" y="16.25" width="9" height="11.5" stroke="#B7E0E5" stroke-width="0.5"/>
<rect x="52.5" y="15" width="3" height="2" fill="white"/>
<rect x="52.5" y="18.5" width="3" height="3" fill="white"/>
<rect x="57" y="15" width="3" height="2" fill="white"/>
<rect x="61.5" y="15" width="3" height="2" fill="white"/>
<rect x="57" y="18.5" width="3" height="3" fill="white"/>
<rect x="67" y="18" width="2" height="2" fill="#B7E0E5"/>
<rect x="67" y="21.5" width="2" height="2" fill="#B7E0E5"/>
<rect x="67" y="25" width="2" height="2" fill="#B7E0E5"/>
<rect x="61.5" y="18.5" width="3" height="3" fill="white"/>
<rect x="54.5" y="22.5" width="8" height="4.5" fill="white"/>
<rect x="53.5" y="5.5" width="10" height="10" rx="2" fill="#EC7769" stroke="white"/>
<rect x="57.5" y="7.5" width="2" height="6" fill="white"/>
<rect x="61.5" y="9.5" width="2" height="6" transform="rotate(90 61.5 9.5)" fill="white"/>
<path fill-rule="evenodd" clip-rule="evenodd" d="M68.1724 73.7388C69.2312 71.336 71.4667 69.6913 73.4782 67.9914C75.6331 66.1703 77 63.4577 77 60.428C77 54.9449 72.5228 50.5 67 50.5C61.4772 50.5 57 54.9449 57 60.428C57 63.4577 58.3669 66.1703 60.5218 67.9914C62.5333 69.6913 64.7688 71.336 65.8276 73.7388C66.2749 74.7537 67.7251 74.7537 68.1724 73.7388Z" fill="#F9FFFF"/>
<rect x="61" y="58" width="8" height="9" rx="1" fill="#B7E0E5"/>
<rect x="66.75" y="61.25" width="5.5" height="5.5" rx="0.75" stroke="#B7E0E5" stroke-width="0.5"/>
<rect x="63" y="60.5" width="1.5" height="2" fill="white"/>
<rect x="63" y="64" width="1.5" height="2" fill="white"/>
<rect x="65.5" y="60.5" width="1.5" height="2" fill="white"/>
<rect x="65.5" y="64" width="1.5" height="2" fill="white"/>
<rect x="69.5" y="62.5" width="2" height="1" fill="#B7E0E5"/>
<rect x="69.5" y="64.5" width="2" height="1" fill="#B7E0E5"/>
<rect x="62.75" y="55.25" width="4.5" height="4.5" rx="0.75" fill="white" stroke="#EC7769" stroke-width="0.5"/>
<rect x="64.5" y="56" width="1" height="3" fill="#EC7769"/>
<rect x="66.5" y="57" width="1" height="3" transform="rotate(90 66.5 57)" fill="#EC7769"/>
<path fill-rule="evenodd" clip-rule="evenodd" d="M92.1896 34.2145C92.5867 33.3135 93.425 32.6967 94.1793 32.0593C94.9874 31.3764 95.5 30.3591 95.5 29.223C95.5 27.1668 93.8211 25.5 91.75 25.5C89.6789 25.5 88 27.1668 88 29.223C88 30.3591 88.5126 31.3764 89.3207 32.0593C90.075 32.6967 90.9133 33.3135 91.3104 34.2145C91.4781 34.5952 92.0219 34.5952 92.1896 34.2145Z" fill="#EC7769"/>
<rect x="91" y="27" width="1.5" height="4.5" rx="0.5" fill="white"/>
<rect x="94" y="28.5" width="1.5" height="4.5" rx="0.5" transform="rotate(90 94 28.5)" fill="white"/>
<path fill-rule="evenodd" clip-rule="evenodd" d="M80.1896 48.7145C80.5867 47.8135 81.425 47.1967 82.1793 46.5593C82.9874 45.8764 83.5 44.8591 83.5 43.723C83.5 41.6668 81.8211 40 79.75 40C77.6789 40 76 41.6668 76 43.723C76 44.8591 76.5126 45.8764 77.3207 46.5593C78.075 47.1967 78.9133 47.8135 79.3104 48.7145C79.4781 49.0952 80.0219 49.0952 80.1896 48.7145Z" fill="#EC7769"/>
<rect x="79" y="41.5" width="1.5" height="4.5" rx="0.5" fill="white"/>
<rect x="82" y="43" width="1.5" height="4.5" rx="0.5" transform="rotate(90 82 43)" fill="white"/>
<path fill-rule="evenodd" clip-rule="evenodd" d="M62.1896 92.7145C62.5867 91.8135 63.425 91.1967 64.1793 90.5593C64.9874 89.8764 65.5 88.8591 65.5 87.723C65.5 85.6668 63.8211 84 61.75 84C59.6789 84 58 85.6668 58 87.723C58 88.8591 58.5126 89.8764 59.3207 90.5593C60.075 91.1967 60.9133 91.8135 61.3104 92.7145C61.4781 93.0952 62.0219 93.0952 62.1896 92.7145Z" fill="#EC7769"/>
<rect x="61" y="85.5" width="1.5" height="4.5" rx="0.5" fill="white"/>
<rect x="64" y="87" width="1.5" height="4.5" rx="0.75" transform="rotate(90 64 87)" fill="white"/>
<path fill-rule="evenodd" clip-rule="evenodd" d="M31.6896 96.2145C32.0867 95.3135 32.925 94.6967 33.6793 94.0593C34.4874 93.3764 35 92.3591 35 91.223C35 89.1668 33.3211 87.5 31.25 87.5C29.1789 87.5 27.5 89.1668 27.5 91.223C27.5 92.3591 28.0126 93.3764 28.8207 94.0593C29.575 94.6967 30.4133 95.3135 30.8104 96.2145C30.9781 96.5952 31.5219 96.5952 31.6896 96.2145Z" fill="#EC7769"/>
<rect x="30.5" y="89" width="1.5" height="4.5" rx="0.5" fill="white"/>
<rect x="33.5" y="90.5" width="1.5" height="4.5" rx="0.5" transform="rotate(90 33.5 90.5)" fill="white"/>
<path fill-rule="evenodd" clip-rule="evenodd" d="M16.1896 78.7145C16.5867 77.8135 17.425 77.1967 18.1793 76.5593C18.9874 75.8764 19.5 74.8591 19.5 73.723C19.5 71.6668 17.8211 70 15.75 70C13.6789 70 12 71.6668 12 73.723C12 74.8591 12.5126 75.8764 13.3207 76.5593C14.075 77.1967 14.9133 77.8135 15.3104 78.7145C15.4781 79.0952 16.0219 79.0952 16.1896 78.7145Z" fill="#EC7769"/>
<rect x="15" y="71.5" width="1.5" height="4.5" rx="0.5" fill="white"/>
<rect x="18" y="73" width="1.5" height="4.5" rx="0.5" transform="rotate(90 18 73)" fill="white"/>
<path fill-rule="evenodd" clip-rule="evenodd" d="M14.6896 48.7145C15.0867 47.8135 15.925 47.1967 16.6793 46.5593C17.4874 45.8764 18 44.8591 18 43.723C18 41.6668 16.3211 40 14.25 40C12.1789 40 10.5 41.6668 10.5 43.723C10.5 44.8591 11.0126 45.8764 11.8207 46.5593C12.575 47.1967 13.4133 47.8135 13.8104 48.7145C13.9781 49.0952 14.5219 49.0952 14.6896 48.7145Z" fill="#EC7769"/>
<rect x="13.5" y="41.5" width="1.5" height="4.5" rx="0.5" fill="white"/>
<rect x="16.5" y="43" width="1.5" height="4.5" rx="0.5" transform="rotate(90 16.5 43)" fill="white"/>
<rect x="49.5" y="48.5" width="2" height="6" rx="1" fill="#EC7769"/>
<circle cx="50.5" cy="46.5" r="4" fill="#F18680"/>
<path d="M24.2131 6.03233C24.1666 5.68647 24.5899 5.48315 24.8308 5.73562L25.6916 6.63767C25.7993 6.75058 25.9675 6.78127 26.1082 6.71369L27.2321 6.17379C27.5466 6.02268 27.8708 6.36237 27.7051 6.66952L27.1132 7.76692C27.0391 7.90428 27.0619 8.07372 27.1697 8.18663L28.0304 9.08868C28.2714 9.34115 28.0485 9.7544 27.7052 9.69176L26.4786 9.46794C26.325 9.43992 26.1709 9.51396 26.0968 9.65131L25.5049 10.7487C25.3393 11.0559 24.8773 10.9716 24.8308 10.6257L24.6647 9.38998C24.6439 9.23531 24.5258 9.11162 24.3723 9.08361L23.1457 8.85979C22.8024 8.79714 22.7398 8.33179 23.0544 8.18069L24.1783 7.64078C24.319 7.5732 24.4001 7.42273 24.3793 7.26806L24.2131 6.03233Z" fill="#66DCB8"/>
<path d="M2.21315 52.5323C2.16664 52.1865 2.58987 51.9832 2.83079 52.2356L3.69157 53.1377C3.79931 53.2506 3.9675 53.2813 4.10818 53.2137L5.23208 52.6738C5.54664 52.5227 5.87079 52.8624 5.70512 53.1695L5.11322 54.2669C5.03913 54.4043 5.06192 54.5737 5.16966 54.6866L6.03044 55.5887C6.27136 55.8411 6.04846 56.2544 5.70516 56.1918L4.47855 55.9679C4.32502 55.9399 4.17092 56.014 4.09683 56.1513L3.50492 57.2487C3.33926 57.5559 2.87735 57.4716 2.83084 57.1257L2.66467 55.89C2.64387 55.7353 2.52584 55.6116 2.37231 55.5836L1.14571 55.3598C0.802404 55.2971 0.739826 54.8318 1.05438 54.6807L2.17828 54.1408C2.31896 54.0732 2.40012 53.9227 2.37932 53.7681L2.21315 52.5323Z" fill="#66DCB8"/>
<defs>
<clipPath id="clip0_3932_697">
<rect width="79.665" height="100" fill="white" transform="translate(64.5 3)"/>
</clipPath>
</defs>
</svg>
