<svg width="150" height="100" viewBox="0 0 150 100" fill="none" xmlns="http://www.w3.org/2000/svg">
<mask id="mask0_3932_500" style="mask-type:alpha" maskUnits="userSpaceOnUse" x="15" y="0" width="120" height="100">
<rect x="15" width="120" height="100" rx="18" fill="#B4FBE4"/>
</mask>
<g mask="url(#mask0_3932_500)">
<rect x="15" y="20" width="120" height="80" rx="18" fill="#B4FBE4"/>
<rect opacity="0.3" x="101" y="38" width="21" height="37" fill="#66DCB8"/>
<rect opacity="0.3" x="106" y="61.5" width="21" height="20" fill="#66DCB8"/>
<rect opacity="0.3" x="25" y="55.5" width="21" height="37" fill="#66DCB8"/>
<rect opacity="0.3" x="37" y="20" width="24" height="61.5" fill="#66DCB8"/>
<rect opacity="0.3" x="61.5" y="35.5" width="39" height="29" fill="#F9FFFF"/>
<g clip-path="url(#clip0_3932_500)">
<path d="M49.9981 45.5C49.9981 45.5 43.8912 45.3959 43.1883 57.5234C42.4853 69.6509 41.6137 72.1005 36.2359 76.0729C31.4749 79.5912 29.6229 87.4817 36.609 91H50V45.5H49.9981Z" fill="#2D2248"/>
<path d="M50.135 45.2423C50.135 45.2423 55.5219 39.2976 62.8652 41.9628C70.2064 44.6279 72.6347 52.5248 70.6216 66.5447C68.6086 80.5645 66.713 84.7101 66.713 84.7101L41.7285 81.8688C41.7285 81.8688 47.2434 78.5536 47.2434 72.9381C47.2434 70.2394 38.7677 47.6202 50.135 45.2423Z" fill="#2D2248"/>
<path d="M102.452 37.6997C102.452 37.6997 98.367 37.5822 95.8024 37.6997C93.2379 37.8171 81.3339 45.0639 80.277 45.8922C79.2202 46.7205 80.4469 101.124 80.4469 101.124H118.457L115.379 82.1035L123.786 47.7647L109.847 38.6433L102.45 37.6997H102.452Z" fill="#30B287"/>
<path d="M94 3.74988C94 3.74988 97.7364 -0.666001 106.103 1.63879C113.359 3.63572 118.326 10.7664 117.386 18.6127C116.224 28.304 106.152 30.9999 106.152 30.9999L94 3.74988Z" fill="#684444"/>
<path d="M110.374 21.8911C110.374 21.8911 110.074 36.6344 109.707 40.7779C109.341 44.9213 97.86 51.5538 97.86 51.5538C97.86 51.5538 94.3037 43.7387 94.5406 42.1995C94.7776 40.6604 97.0275 33.9105 97.0275 33.9105L110.374 21.8911Z" fill="#FBC098"/>
<path d="M97.8594 51.5537L109.501 41.6123L112.206 45.8942L99.0399 55.4015L97.8594 51.5537Z" fill="#66DCB8"/>
<path d="M94.708 43.4451C94.7437 43.5877 94.7856 43.7387 94.8317 43.896L105.551 31.2412L97.0251 33.9106C97.0251 33.9106 95.2909 39.1109 94.708 41.4237V43.4451Z" fill="#EC7769"/>
<path d="M94.5401 41.1514L100.164 55.9387L96.3749 58.0356L92.6445 45.8945L94.5401 41.1514Z" fill="#4FCAA2"/>
<path d="M115.381 82.1058L123.788 47.767L109.85 38.6455C109.85 38.6455 98.6859 58.7212 96.4066 74.7666C94.1273 90.8121 93.7666 101.129 93.7666 101.129H118.462L115.383 82.1079L115.381 82.1058Z" fill="#F9FFFF"/>
<path d="M117 92C107.6 93.2 98.3333 88.4167 95 86.25L116 84.5L117 92Z" fill="#B7E0E5"/>
<path d="M98.6987 4.02965C98.6987 4.02965 90.6927 -0.132684 84.2385 6.55641C77.0273 14.0318 83.232 25.9758 83.232 25.9758L103.138 17.8419L98.6987 4.02965Z" fill="#684444"/>
<path d="M86.0995 11.2936C85.0008 13.3255 85.0783 16.5044 86.4958 19.8783C87.9154 23.2522 87.5675 26.3544 86.9992 28.25C86.4309 30.1455 90.8092 30.2999 90.8092 30.2999C90.8092 30.2999 93.2499 33.7933 95.5209 35.5694C97.7918 37.3454 105.785 34.0889 108.228 28.7167C109.7 25.4791 110.732 17.8862 104.376 9.51753C99.0353 2.48664 89.2407 5.49149 86.0995 11.2936Z" fill="#FBC098"/>
<path d="M106.052 17.0935C106.052 17.0935 105.301 14.0761 108.229 13.9964C110.709 13.9272 112.84 18.2783 110.709 21.4362C108.579 24.5941 107.946 23.5939 107.193 22.0841C106.453 20.5995 106.052 17.0935 106.052 17.0935Z" fill="#FBC098"/>
<path d="M88.2637 18.7542C88.2637 18.7542 90.0397 14.9651 94.0658 15.439L88.2637 18.7542Z" fill="#2D2248"/>
<path d="M92.6285 23.8456C93.2756 23.5318 93.436 22.5264 92.9868 21.6001C92.5376 20.6737 91.6489 20.1771 91.0018 20.4909C90.3547 20.8047 90.1942 21.81 90.6435 22.7364C91.0927 23.6628 91.9814 24.1594 92.6285 23.8456Z" fill="#2D2248"/>
<path d="M91.0029 20.4946C91.0029 20.4946 90.5479 20.958 88.7383 21.4194H91.1665L91.005 20.4946H91.0029Z" fill="#2D2248"/>
<path d="M87.0173 11.39C87.0173 11.39 87.4215 16.3406 93.2356 18.4234C99.0497 20.5062 103.8 18.7794 103.8 18.7794C103.8 18.7794 105.895 20.504 106.136 23.5C106.136 23.5 107.836 21.3796 107.44 15.7591C106.928 8.52004 101.375 4.14655 95.5098 4.52243C86.217 5.11721 87.0173 11.39 87.0173 11.39Z" fill="#684444"/>
<path d="M110.429 91L97.5 92.5832L98.2381 97.9407" stroke="#B7E0E5" stroke-width="0.838758" stroke-linecap="round" stroke-linejoin="round"/>
<path d="M97.917 95.6152L110.429 94.0845" stroke="#B7E0E5" stroke-width="0.629069" stroke-linecap="round" stroke-linejoin="round"/>
<path d="M94.4386 30.9478C94.4386 30.9478 97.7055 30.9284 98.9652 27.3369" stroke="#EC7769" stroke-width="0.838758" stroke-linecap="round" stroke-linejoin="round"/>
<path d="M109.601 42.1743L108.733 57.4733L100.532 63.9674L96.6699 77.702" stroke="#B7E0E5" stroke-width="0.838758" stroke-linecap="round" stroke-linejoin="round"/>
<path d="M38.7079 63.9569C38.7939 62.3947 39.2992 57.6893 39.597 57.3454C39.8948 57.0015 44.2752 53.5039 44.2752 53.5039C44.2752 53.5039 44.9252 54.8921 43.5643 56.3913C42.2034 57.8906 41.9937 58.4945 41.9937 58.4945L44.8078 56.7646C44.8078 56.7646 45.483 58.5574 44.5226 59.7631C43.5622 60.9689 43.1491 61.3819 43.1491 61.3819C43.1491 61.3819 47.0032 63.9171 47.5925 66.7039C48.1817 69.4906 48.6556 72.9358 48.6556 72.9358C48.6556 72.9358 46.7516 73.7578 44.1431 71.1199C42.302 69.26 38.6115 65.7414 38.7079 63.9548V63.9569Z" fill="#F2A07C"/>
<path d="M44.7467 74.7624L42.5156 73.2044L49.4836 64.2842L51.9705 65.1125L44.7467 74.7624Z" fill="#B7E0E5"/>
<path d="M80.2764 45.8945C78.4332 47.4106 68.3681 64.343 68.3681 64.343H50.6053L43.1445 75.2364L81.1549 87.1971L80.2743 45.8945H80.2764Z" fill="#F9FFFF"/>
<path d="M80.2773 45.8944C79.2204 46.7226 76.5 101.127 76.5 101.127H88.2622L95.8006 37.6997C90.3549 38.0939 81.0321 45.2989 80.2752 45.8923L80.2773 45.8944Z" fill="#F9FFFF"/>
<path d="M93.2638 39L86.3662 52.6834L90.2214 62.4079L86.699 76.2337" stroke="#B7E0E5" stroke-width="0.838758" stroke-linecap="round" stroke-linejoin="round"/>
<path d="M57.0693 40.208C63.3139 40.208 68.3758 45.1273 68.3758 51.1936V57.2012" stroke="#EC7769" stroke-width="1.67752" stroke-miterlimit="10"/>
<path d="M64.2491 69.0444L64.5594 74.7061C64.5594 74.7061 64.2491 76.6855 60.4013 77.2307C55.3184 77.952 52.7539 75.6622 52.7539 75.6622V69.0444H64.2491Z" fill="#FBC098"/>
<path d="M64.5599 75.0606L64.2915 70.1455H54.3145V71.2149L63.7337 76.2202C64.4676 75.6415 64.5599 75.0606 64.5599 75.0606Z" fill="#EC7769"/>
<path d="M59.4365 73.758C60.3172 73.6721 62.9383 73.3617 64.5592 72.936C66.1801 72.5104 67.6794 71.8645 67.9666 73.758C68.2539 75.6515 68.2455 76.2428 69.403 76.7755C70.5605 77.3081 75.2177 78.5054 76.6918 82.3805C78.1659 86.2555 81.9886 99.661 82.0662 101.125L30.4385 101.213C30.4385 101.213 29.8724 91.091 39.8368 81.9066C47.5911 74.7603 51.0405 76.1422 51.1999 75.3538C51.3592 74.5653 51.3383 73.7853 52.4622 73.7559C53.5861 73.7266 57.218 73.974 59.4344 73.7559L59.4365 73.758Z" fill="#FFA3AA"/>
<path d="M77.8161 85.6938C77.8161 85.6938 71.647 87.0023 69.6738 93.5551" stroke="#F18680" stroke-width="0.629069" stroke-linecap="round" stroke-linejoin="round"/>
<path d="M44.3268 101.186C44.3268 101.186 44.9495 99.114 43.3517 94.3289C41.7665 89.5858 37.9061 86.4949 36.4844 85.4863" stroke="#F18680" stroke-width="0.629069" stroke-linecap="round" stroke-linejoin="round"/>
<path d="M51.5 76.5955C51.5 76.5955 56.1782 78.1304 61.4707 77.7761C66.7633 77.4217 68.1514 76 68.1514 76" stroke="#F18680" stroke-width="0.629069" stroke-linecap="round" stroke-linejoin="round"/>
<path d="M66.8915 52.619C66.8915 52.619 68.158 56.8212 68.7493 61.9795C69.6154 69.5221 63.0437 71.8622 59.8459 72.097C55.3921 72.4263 50.3134 70.6753 48.4787 63.3928C46.6439 56.1103 49.2482 48.8865 54.459 47.23C59.6698 45.5734 66.0129 48.5783 66.8915 52.6169V52.619Z" fill="#FBC098"/>
<path d="M48.6541 59.9667C48.6541 59.9667 47.0961 59.1468 45.8715 60.015C44.6469 60.8831 44.7686 67.8007 50.0234 67.2807L48.6541 59.9667Z" fill="#FBC098"/>
<path d="M56.9749 59.2661C57.1951 60.4068 56.6373 61.0338 55.83 61.191C55.0227 61.3462 54.272 60.973 54.0518 59.8302C53.8316 58.6894 54.3076 57.6389 55.1149 57.4816C55.9222 57.3244 56.7547 58.1254 56.9749 59.2661Z" fill="#2D2248"/>
<path d="M54.3429 58.0269C54.3429 58.0269 55.4627 56.7352 55.5088 56.1313C55.5549 55.5274 56.1462 56.4773 56.075 57.0791C56.0037 57.6809 55.729 58.0269 55.729 58.0269H54.3408H54.3429Z" fill="#2D2248"/>
<path d="M65.8844 56.0119C66.0836 57.0457 65.5783 57.6119 64.8486 57.7545C64.1168 57.8949 63.4374 57.5553 63.2382 56.5236C63.0389 55.4898 63.4688 54.5399 64.2006 54.3973C64.9324 54.2547 65.6852 54.9782 65.8844 56.0119Z" fill="#2D2248"/>
<path d="M63.502 54.8901C63.502 54.8901 64.5148 53.7221 64.5588 53.1749C64.6028 52.6276 65.1354 53.4873 65.0704 54.0325C65.0054 54.5777 64.758 54.8901 64.758 54.8901H63.502Z" fill="#2D2248"/>
<path d="M62.5693 58.4927C62.8461 58.8554 63.4772 59.5264 62.9236 60.4344C62.3701 61.3424 61.502 61.3822 61.502 61.3822L62.5672 58.4927H62.5693Z" fill="#EC7769"/>
<path d="M63.5453 64.186C63.7281 65.499 62.873 66.7439 61.6343 66.9651C60.3956 67.1863 59.2421 66.3022 59.0593 64.9893C58.8765 63.6763 59.8962 63.6138 61.1349 63.3926C62.3736 63.1714 63.3625 62.8731 63.5451 64.1877L63.5453 64.186Z" fill="#F9FFFF"/>
<path d="M56.5577 54.4268C56.5577 54.4268 55.5428 53.5797 54.314 54.4268C52.9804 55.3452 52.0703 56.5761 52.0703 56.5761L56.5577 54.4268Z" fill="#2D2248"/>
<path d="M60.9502 53.2525L65.49 51.6735C65.49 51.6735 62.7074 51.5645 61.8184 51.8413C60.9293 52.1181 60.9502 53.2525 60.9502 53.2525Z" fill="#2D2248"/>
<path d="M53.9969 48.7043C53.9969 48.7043 65.6954 53.5838 68.0398 53.5041C70.3841 53.4244 68.3774 42.8309 60.5958 42.1997C53.9989 41.665 52.1726 47.3224 52.1726 47.3224C52.1726 47.3224 47.1127 47.1694 46.4648 54.3323C45.9825 59.6564 47.7754 63.6321 48.6288 63.9571C48.6288 63.9571 50.4908 61.1724 49.2474 55.9029C49.2474 55.9029 54.1646 51.0696 53.9969 48.7043Z" fill="#2D2248"/>
<path d="M61.8748 88.8724C61.8748 93.0495 58.4904 94.9304 54.3134 94.9304C50.1363 94.9304 46.752 93.0474 46.752 88.8724C46.752 84.6975 48.5196 81.311 54.3134 81.311C60.1071 81.311 61.8748 84.6954 61.8748 88.8724Z" fill="#8F665A"/>
<path d="M48.0439 94.1441C48.0439 94.1441 45.5129 93.0453 43.0868 93.8128C40.6607 94.5803 39.952 96.3165 39.9918 97.973C40.0316 99.6296 40.2686 100.888 42.5962 101.188L48.5954 101.177L48.0418 94.1462L48.0439 94.1441Z" fill="#8F665A"/>
<path d="M62.5907 84.9367C61.8693 85.9915 59.9108 85.9055 59.3761 85.5386C58.7345 85.1003 58.053 83.3787 58.7743 82.324C59.4956 81.2693 60.7307 81.2986 61.7854 82.02C62.8402 82.7413 63.3141 83.882 62.5927 84.9367H62.5907Z" fill="#8F665A"/>
<path d="M45.7013 84.9367C46.4227 85.9915 48.3812 85.9055 48.9159 85.5386C49.5575 85.1003 50.239 83.3787 49.5177 82.324C48.7963 81.2693 47.5613 81.2986 46.5065 82.02C45.4518 82.7413 44.9779 83.882 45.6992 84.9367H45.7013Z" fill="#8F665A"/>
<path d="M55.8491 89.5142C55.8491 90.0866 54.8132 90.55 54.8132 90.55C54.8132 90.55 53.7773 90.0866 53.7773 89.5142C53.7773 88.9417 54.2408 88.9229 54.8132 88.9229C55.3857 88.9229 55.8491 88.9417 55.8491 89.5142Z" fill="#684444"/>
<path d="M56.3223 88.1618C56.3223 88.1618 56.6871 86.4151 58.3164 86.9477L56.3223 88.1618Z" fill="#684444"/>
<path d="M52.7539 88.3249C52.7539 88.3249 52.3891 86.5782 50.7598 87.1108L52.7539 88.3249Z" fill="#684444"/>
<path d="M54.8125 90.1577V93.54" stroke="#684444" stroke-width="0.838758" stroke-miterlimit="10"/>
<path d="M57.3181 94.144C57.3181 94.144 56.0054 93.3598 54.8312 92.6447C53.2124 91.6571 50.0943 92.9215 48.4755 93.3954C46.8567 93.8693 45.2777 95.2512 45.3574 95.8425C45.4371 96.4338 45.4748 96.4736 46.1857 96.9077C46.1857 96.9077 45.3972 98.2497 46.6197 99.3149C46.6197 99.3149 46.106 100.059 46.777 101.187L56.7247 101.127L57.316 94.144H57.3181Z" fill="#FBC098"/>
<path d="M55.5022 101.127C55.5022 101.127 54.5544 94.9725 57.5424 93.4334C57.5424 93.4334 71.0381 93.383 74.7391 93.8276C80.428 94.5112 82.0677 101.127 82.0677 101.127H55.5043H55.5022Z" fill="#FFA3AA"/>
<path d="M56.6309 93.6842C56.6309 93.6842 70.1311 93.6376 73.8334 94.0494C79.5242 94.6828 81.1645 100.812 81.1645 100.812" stroke="#F18680" stroke-width="0.629069" stroke-linecap="round" stroke-linejoin="round"/>
<path d="M47.5934 59.5031C47.5934 61.818 47.6752 63.6948 45.3602 63.6948C44.685 63.6948 41.9443 61.1869 41.9443 58.8719C41.9443 56.5569 43.7896 55.3135 45.3602 55.3135C47.6752 55.3135 47.5934 57.1902 47.5934 59.5052V59.5031Z" fill="#EC7769"/>
<path d="M45.7627 57.1988V51.1912C45.7627 45.1249 50.8246 40.2056 57.0692 40.2056" stroke="#EC7769" stroke-width="1.67752" stroke-miterlimit="10"/>
<path d="M80.6502 63.3576C80.6502 63.3576 79.2243 63.0409 78.5932 61.225C77.962 59.4091 77.7251 55.3034 77.3308 54.9889C76.9366 54.6743 73.4621 61.3047 72.8309 62.3301C72.1997 63.3555 72.3927 68.9563 75.0767 71.5627C76.8255 73.2612 80.8536 72.9068 80.8536 72.9068L80.6502 63.3576Z" fill="#FBC098"/>
<path d="M77.9454 58.0355C77.9454 58.0355 78.436 54.475 77.9454 53.6467C77.6057 53.0742 71.8057 49.4634 71.8057 49.4634C71.8057 49.4634 71.2835 50.8851 72.5312 52.1474C73.7788 53.4097 75.8317 54.5945 75.8317 54.5945L75.9533 56.8151L77.9454 58.0355Z" fill="#FBC098"/>
<path d="M76.6922 57.2684C76.6922 57.2684 75.2411 55.2973 74.2933 54.6305C73.3456 53.9637 69.7536 51.9507 69.7536 51.9507C69.7536 51.9507 68.768 53.2067 70.1079 54.3936C71.9448 56.0166 72.9555 56.7861 72.9555 56.7861L75.0231 59.9315L76.6922 57.2705V57.2684Z" fill="#FBC098"/>
<path d="M75.4671 59.1721C75.4671 59.1721 73.2401 56.1337 72.8711 55.7982C72.5796 55.534 70.2919 54.8462 69.319 54.5611C69.0233 54.4751 68.7067 54.6428 68.6291 54.9406C68.5137 55.3851 68.5892 56.0687 69.6335 56.7649C71.4976 58.0084 72.0806 58.5808 72.0806 58.5808L73.54 62.4496L75.465 59.1742L75.4671 59.1721Z" fill="#FBC098"/>
<path d="M74.7372 60.4112C74.7372 60.4112 72.3362 56.9618 71.6946 56.7249C71.2396 56.5571 69.7822 55.9931 68.9686 55.6785C68.6688 55.5632 68.3521 55.8002 68.3752 56.121C68.4067 56.5592 68.587 57.2973 69.2832 57.7608C70.2855 58.4276 71.378 59.3502 71.378 59.3502L72.5271 64.2821L74.7351 60.4091L74.7372 60.4112Z" fill="#FBC098"/>
<path d="M79.2567 67.6583C78.7723 61.2083 80.6217 61.9317 80.6217 61.9317C80.6217 61.9317 83.9642 63.9091 86.015 65.0141C88.0678 66.1192 103.461 69.8286 104.015 69.751C104.568 69.6734 109.066 59.4532 114.594 53.2526C119.949 47.2429 121.84 46.3916 123.791 47.7672C126.198 49.4635 127.437 53.8922 126.806 60.4597C125.585 73.1459 121.778 80.8037 118.58 85.0667C115.382 89.3297 107.923 88.8558 104.606 88.5014C101.291 88.1471 82.8172 81.7515 82.8172 81.7515C82.8172 81.7515 80.022 77.8471 79.2567 67.6604V67.6583Z" fill="#F9FFFF"/>
<path d="M118.579 85.0666C115.381 89.3296 107.923 88.8557 104.605 88.5014C101.29 88.147 82.8166 81.7514 82.8166 81.7514C82.8166 81.7514 80.0215 77.847 79.2561 67.6603C78.8986 65.7735 78.6468 62 80.5 62" stroke="#B7E0E5" stroke-width="0.838758" stroke-linecap="round" stroke-linejoin="round"/>
<path d="M80.6191 61.9316C91.8145 68.1426 103.459 69.8285 104.012 69.7489C104.566 69.6692 109.064 59.451 114.591 53.2505" stroke="#B7E0E5" stroke-width="0.838758" stroke-linecap="round" stroke-linejoin="round"/>
<path d="M82.6988 67.3081C82.6988 67.3081 82.5457 72.1582 85.345 80.4473" stroke="#B7E0E5" stroke-width="0.838758" stroke-linecap="round" stroke-linejoin="round"/>
<path d="M44.144 71.122C42.303 69.2621 38.6124 65.7435 38.7089 63.9569C38.7949 62.3947 39.3002 57.6893 39.598 57.3454C39.8957 57.0015 44.2761 53.5039 44.2761 53.5039C44.2761 53.5039 44.9262 54.8921 43.5653 56.3913C42.2044 57.8906 41.9947 58.4945 41.9947 58.4945L44.8088 56.7646C44.8088 56.7646 45.484 58.5574 44.5236 59.7631C43.5632 60.9689 43.1501 61.3819 43.1501 61.3819L44.144 71.122Z" fill="#FBC098"/>
</g>
<path d="M127.576 31.7541C127.832 31.4422 128.338 31.6404 128.314 32.0433L128.228 33.4829C128.218 33.6631 128.324 33.8297 128.492 33.8956L129.835 34.422C130.211 34.5693 130.178 35.1114 129.788 35.2131L128.392 35.5765C128.217 35.622 128.092 35.7748 128.081 35.955L127.996 37.3946C127.972 37.7975 127.446 37.9344 127.229 37.5943L126.452 36.3793C126.354 36.2272 126.17 36.155 125.996 36.2005L124.6 36.5639C124.209 36.6656 123.917 36.208 124.173 35.8961L125.089 34.7818C125.203 34.6423 125.215 34.4449 125.118 34.2929L124.341 33.0778C124.123 32.7377 124.468 32.3181 124.844 32.4654L126.187 32.9918C126.355 33.0577 126.546 33.0079 126.661 32.8684L127.576 31.7541Z" fill="white"/>
<path d="M24.1099 43.5875C24.0803 43.1849 24.583 42.9796 24.8436 43.2879L25.7748 44.3892C25.8913 44.527 26.0834 44.5741 26.2505 44.5059L27.5856 43.9607C27.9593 43.8081 28.3099 44.2228 28.0973 44.5659L27.3376 45.7918C27.2425 45.9452 27.2571 46.1424 27.3736 46.2803L28.3047 47.3816C28.5653 47.6898 28.2793 48.1514 27.8873 48.0553L26.4866 47.7116C26.3113 47.6686 26.1282 47.7433 26.0332 47.8968L25.2735 49.1226C25.0609 49.4657 24.5334 49.3363 24.5038 48.9338L24.3978 47.4955C24.3845 47.3155 24.2569 47.1644 24.0816 47.1214L22.6809 46.7777C22.2889 46.6816 22.249 46.1399 22.6227 45.9873L23.9579 45.4421C24.125 45.3739 24.2291 45.2058 24.2159 45.0258L24.1099 43.5875Z" fill="white"/>
<path opacity="0.5" d="M30.3687 59.2911C30.5156 59.079 30.8481 59.1787 30.8539 59.4366L30.8749 60.3582C30.8775 60.4736 30.9541 60.5741 31.0646 60.6073L31.9475 60.8721C32.1947 60.9463 32.2026 61.2933 31.9591 61.3786L31.0891 61.6833C30.9802 61.7214 30.9082 61.8253 30.9108 61.9407L30.9318 62.8623C30.9376 63.1202 30.61 63.235 30.4537 63.0297L29.895 62.2965C29.8251 62.2047 29.704 62.1684 29.5951 62.2065L28.7251 62.5112C28.4816 62.5965 28.2713 62.3204 28.4181 62.1082L28.9429 61.3504C29.0086 61.2555 29.0057 61.1291 28.9358 61.0374L28.3771 60.3041C28.2208 60.0989 28.4184 59.8135 28.6655 59.8876L29.5485 60.1525C29.659 60.1856 29.7783 60.1438 29.8439 60.049L30.3687 59.2911Z" fill="white"/>
<path opacity="0.5" d="M77.5425 28.9058C77.5206 28.6487 77.8405 28.5139 78.0093 28.709L78.6124 29.4061C78.6879 29.4934 78.811 29.5221 78.9173 29.4772L79.7667 29.1191C80.0044 29.0188 80.2315 29.2813 80.0981 29.5022L79.6215 30.2912C79.5619 30.39 79.5726 30.5159 79.6481 30.6032L80.2512 31.3003C80.42 31.4954 80.2405 31.7925 79.9893 31.7339L79.0916 31.5244C78.9792 31.4982 78.8627 31.5473 78.8031 31.6461L78.3265 32.4351C78.1931 32.6559 77.855 32.5771 77.8331 32.32L77.7549 31.4015C77.7452 31.2865 77.6625 31.1909 77.5501 31.1647L76.6524 30.9553C76.4011 30.8966 76.3717 30.5507 76.6094 30.4505L77.4588 30.0923C77.5651 30.0475 77.6305 29.9393 77.6207 29.8243L77.5425 28.9058Z" fill="white"/>
<path d="M70.5107 33.126L69.6001 38.0326" stroke="#4FCAA2" stroke-linecap="round"/>
<ellipse cx="68.0956" cy="37.5945" rx="1.87139" ry="1.40354" transform="rotate(10.5147 68.0956 37.5945)" fill="#4FCAA2"/>
<path d="M57.2471 14.7866L56.8434 21.2976" stroke="white" stroke-linecap="round"/>
<path d="M63.3638 23.3657L63.7675 16.8547L57.3574 14.8232" stroke="white" stroke-linecap="round"/>
<path d="M57.0134 21.1039C56.988 21.5134 56.7431 21.8895 56.3301 22.161C55.9171 22.4325 55.3487 22.5884 54.7232 22.5497C54.0977 22.5109 53.5529 22.2859 53.1766 21.9654C52.8003 21.645 52.6038 21.2416 52.6291 20.832C52.6545 20.4225 52.8995 20.0464 53.3124 19.7749C53.7254 19.5034 54.2939 19.3475 54.9193 19.3863C55.5448 19.425 56.0896 19.65 56.4659 19.9705C56.8422 20.2909 57.0387 20.6943 57.0134 21.1039Z" fill="white" stroke="white" stroke-width="0.5"/>
<path d="M63.5339 23.1722C63.5085 23.5818 63.2636 23.9579 62.8506 24.2293C62.4376 24.5009 61.8692 24.6568 61.2437 24.618C60.6182 24.5792 60.0734 24.3543 59.6971 24.0338C59.3208 23.7134 59.1243 23.3099 59.1497 22.9004C59.175 22.4909 59.42 22.1148 59.8329 21.8433C60.2459 21.5718 60.8144 21.4158 61.4398 21.4546C62.0653 21.4934 62.6101 21.7184 62.9864 22.0388C63.3627 22.3592 63.5593 22.7627 63.5339 23.1722Z" fill="white" stroke="white" stroke-width="0.5"/>
<path d="M39.7152 36.1038L36.5527 28.7554L41.0007 31.0577" stroke="#4FCAA2" stroke-linecap="round"/>
<ellipse cx="37.3199" cy="36.8622" rx="3" ry="2.25" transform="rotate(-23.2853 37.3199 36.8622)" fill="#4FCAA2"/>
</g>
<defs>
<clipPath id="clip0_3932_500">
<rect width="96.9667" height="100.5" fill="white" transform="translate(30 1)"/>
</clipPath>
</defs>
</svg>
