<svg width="150" height="100" viewBox="0 0 150 100" fill="none" xmlns="http://www.w3.org/2000/svg">
<g clip-path="url(#clip0_3932_616)">
<mask id="mask0_3932_616" style="mask-type:alpha" maskUnits="userSpaceOnUse" x="38" y="1" width="135" height="100">
<path d="M172.5 100.75L38 100.75L148.25 1.5L172.5 1.5L172.5 100.75Z" fill="#B4FBE4"/>
</mask>
<g mask="url(#mask0_3932_616)">
<rect x="15" y="20" width="120" height="80" rx="18" fill="#B4FBE4"/>
<rect opacity="0.3" x="79" y="38" width="24" height="62.5" fill="#66DCB8"/>
<rect opacity="0.3" x="97" y="55.5" width="32" height="27.5" fill="#66DCB8"/>
<ellipse cx="68.4985" cy="56.423" rx="5.50098" ry="5.50098" transform="rotate(-2.79975 68.4985 56.423)" fill="#2D2248"/>
<path d="M73.2713 69.0406C70.6135 64.2789 68.9851 58.8491 68.7009 53.0359C67.7135 32.8461 83.3126 15.677 103.542 14.6877C123.772 13.6984 140.972 29.2635 141.96 49.4533C142.244 55.2665 141.153 60.8293 138.973 65.8275" stroke="#2D2248" stroke-width="5.8677"/>
<ellipse cx="5.50098" cy="5.50098" rx="5.50098" ry="5.50098" transform="matrix(-0.998806 0.0488453 0.0488453 0.998806 146.983 47.0771)" fill="#EC7769"/>
<path d="M123.757 72.6449C122.807 78.6464 121.658 83.4516 125.655 84.0845C129.653 84.7173 133.664 80.3652 134.614 74.3637C135.564 68.3622 133.093 62.9841 129.096 62.3512C125.099 61.7184 124.707 66.6434 123.757 72.6449Z" fill="#EC7769"/>
<path d="M127.611 73.6731C126.344 81.6751 124.64 88.0548 131.79 89.1866C138.939 90.3185 145.762 84.7491 147.029 76.7471C148.295 68.7452 143.527 61.3408 136.377 60.209C129.228 59.0771 128.878 65.6712 127.611 73.6731Z" fill="#2D2248"/>
<rect width="5.50268" height="33.9809" rx="2.75134" transform="matrix(-0.9877 -0.156363 -0.156363 0.9877 135.781 57.144)" fill="#2D2248"/>
<rect width="8.7413" height="23.4708" rx="2.93385" transform="matrix(-0.9877 -0.156363 -0.156363 0.9877 149.653 65.2812)" fill="#2D2248"/>
<path d="M84.2757 68.8967C84.0794 74.9697 84.3033 79.9053 80.2582 79.7745C76.2131 79.6438 73.0929 74.6147 73.2892 68.5416C73.4854 62.4686 76.9237 57.6514 80.9689 57.7821C85.014 57.9128 84.4719 62.8236 84.2757 68.8967Z" fill="#EC7769"/>
<path d="M80.2964 69.1814C80.0347 77.2787 80.5075 83.8651 73.2729 83.6313C66.0383 83.3975 60.3856 76.6438 60.6473 68.5464C60.909 60.449 66.9859 54.0743 74.2205 54.3081C81.4551 54.5419 80.5581 61.084 80.2964 69.1814Z" fill="#2D2248"/>
<rect x="75.3828" y="51.4102" width="5.50268" height="33.9809" rx="2.75134" transform="rotate(1.8509 75.3828 51.4102)" fill="#2D2248"/>
<rect x="60.2275" y="56.791" width="8.7413" height="23.4708" rx="2.93385" transform="rotate(1.8509 60.2275 56.791)" fill="#2D2248"/>
<path d="M92.2142 69.1038L89.0518 61.7554L93.4997 64.0577" stroke="#4FCAA2" stroke-linecap="round"/>
<ellipse cx="89.8189" cy="69.8622" rx="3" ry="2.25" transform="rotate(-23.2853 89.8189 69.8622)" fill="#4FCAA2"/>
<g opacity="0.5">
<path d="M120.511 88.626L119.6 93.5326" stroke="#4FCAA2" stroke-linecap="round"/>
<ellipse cx="118.096" cy="93.0945" rx="1.87139" ry="1.40354" transform="rotate(10.5147 118.096 93.0945)" fill="#4FCAA2"/>
</g>
<g opacity="0.6">
<path d="M120.584 36.7773L120.18 43.2883" stroke="#4FCAA2" stroke-linecap="round"/>
<path d="M126.701 45.3569L127.104 38.8459L120.694 36.8145" stroke="#4FCAA2" stroke-linecap="round"/>
<ellipse cx="118.158" cy="42.9587" rx="2.44631" ry="1.83474" transform="rotate(3.5479 118.158 42.9587)" fill="#4FCAA2"/>
<ellipse cx="124.679" cy="45.027" rx="2.44631" ry="1.83474" transform="rotate(3.5479 124.679 45.027)" fill="#4FCAA2"/>
</g>
<path opacity="0.5" d="M113.134 74.1208C109.695 70.1583 110.12 64.1582 114.082 60.7193" stroke="#4FCAA2" stroke-width="2" stroke-linecap="round" stroke-linejoin="round"/>
<path opacity="0.3" d="M106.19 76.1686C101.455 70.7122 102.039 62.4501 107.496 57.7147" stroke="#4FCAA2" stroke-width="2" stroke-linecap="round" stroke-linejoin="round"/>
<path d="M119.084 72.1542C116.864 69.5967 117.138 65.7242 119.696 63.5046" stroke="#4FCAA2" stroke-width="2" stroke-linecap="round" stroke-linejoin="round"/>
<path d="M111.576 45.7541C111.832 45.4422 112.338 45.6404 112.314 46.0433L112.228 47.4829C112.218 47.6631 112.324 47.8297 112.492 47.8956L113.835 48.422C114.211 48.5693 114.178 49.1114 113.788 49.2131L112.392 49.5765C112.217 49.622 112.092 49.7748 112.081 49.955L111.996 51.3946C111.972 51.7975 111.446 51.9344 111.229 51.5943L110.452 50.3793C110.354 50.2272 110.17 50.155 109.996 50.2005L108.6 50.5639C108.209 50.6656 107.917 50.208 108.173 49.8961L109.089 48.7818C109.203 48.6423 109.215 48.4449 109.118 48.2929L108.341 47.0778C108.123 46.7377 108.468 46.3181 108.844 46.4654L110.187 46.9918C110.355 47.0577 110.546 47.0079 110.661 46.8684L111.576 45.7541Z" fill="white"/>
<path opacity="0.5" d="M91.6912 89.9084C91.6858 89.6505 92.0136 89.5363 92.1696 89.7418L92.727 90.476C92.7968 90.5679 92.9178 90.6044 93.0268 90.5664L93.8973 90.2632C94.1409 90.1783 94.3508 90.4548 94.2036 90.6667L93.6776 91.4237C93.6118 91.5184 93.6144 91.6448 93.6842 91.7367L94.2416 92.4709C94.3976 92.6764 94.1995 92.9614 93.9525 92.8869L93.07 92.6206C92.9596 92.5872 92.8402 92.6288 92.7744 92.7236L92.2484 93.4806C92.1012 93.6924 91.7688 93.5921 91.7634 93.3342L91.744 92.4126C91.7415 92.2972 91.6651 92.1966 91.5547 92.1632L90.6721 91.8969C90.4252 91.8224 90.4178 91.4753 90.6615 91.3904L91.532 91.0872C91.6409 91.0492 91.7131 90.9454 91.7106 90.8301L91.6912 89.9084Z" fill="white"/>
<path opacity="0.5" d="M64.3714 85.9284C64.5635 85.5964 65.0682 85.7042 65.1079 86.0857L65.2497 87.4488C65.2675 87.6194 65.3931 87.7592 65.5608 87.7951L66.901 88.0814C67.2761 88.1615 67.3296 88.6748 66.979 88.8304L65.7265 89.3866C65.5697 89.4562 65.4756 89.6188 65.4933 89.7894L65.6352 91.1525C65.6749 91.534 65.2032 91.7434 64.9468 91.4581L64.0309 90.4388C63.9162 90.3112 63.7325 90.2719 63.5757 90.3415L62.3231 90.8976C61.9726 91.0533 61.6276 90.6694 61.8198 90.3374L62.5062 89.1513C62.5921 89.0028 62.5727 88.8159 62.458 88.6883L61.5421 87.669C61.2857 87.3836 61.5442 86.937 61.9193 87.0171L63.2595 87.3034C63.4273 87.3393 63.599 87.263 63.6849 87.1145L64.3714 85.9284Z" fill="white"/>
</g>
<mask id="mask1_3932_616" style="mask-type:alpha" maskUnits="userSpaceOnUse" x="0" y="0" width="135" height="100">
<path d="M0 0H134.5L24.25 99.25H0L0 0Z" fill="#B4FBE4"/>
</mask>
<g mask="url(#mask1_3932_616)">
<rect x="15" y="20" width="120" height="80" rx="18" fill="#B4FBE4"/>
<rect opacity="0.3" x="42.5" y="3" width="24" height="62.5" fill="#66DCB8"/>
<rect opacity="0.3" x="63.5" y="20" width="49" height="30.5" fill="#66DCB8"/>
<rect opacity="0.3" x="63.5" y="20" width="23" height="30.5" fill="#66DCB8"/>
<rect x="41.7168" width="44.0454" height="63.4771" rx="2.91179" transform="rotate(5.62106 41.7168 0)" fill="#B4FBE4"/>
<path opacity="0.5" d="M90.6233 26.6779C90.5893 26.2959 91.0641 26.0936 91.3161 26.3827L92.2167 27.4157C92.3294 27.545 92.5125 27.587 92.6703 27.5198L93.9311 26.9826C94.284 26.8322 94.6231 27.2212 94.426 27.5503L93.7218 28.726C93.6337 28.8731 93.6503 29.0603 93.763 29.1896L94.6635 30.2226C94.9156 30.5118 94.6504 30.9545 94.2766 30.8687L92.9408 30.5623C92.7736 30.5239 92.6007 30.5976 92.5126 30.7448L91.8084 31.9205C91.6113 32.2495 91.1083 32.1341 91.0743 31.7521L90.953 30.387C90.9378 30.2161 90.8143 30.0745 90.6471 30.0361L89.3114 29.7297C88.9375 29.644 88.8918 29.1299 89.2447 28.9795L90.5054 28.4423C90.6633 28.3751 90.7598 28.2139 90.7446 28.043L90.6233 26.6779Z" fill="white"/>
<path d="M49.1035 5.5L42.4998 60.1021" stroke="#66DCB8" stroke-width="0.5" stroke-linecap="round"/>
<path d="M44.2363 37.8135L76.5921 40.8716" stroke="#66DCB8" stroke-width="0.5" stroke-linecap="round"/>
<path d="M42.5 48L74.8558 51.0581" stroke="#66DCB8" stroke-width="0.5" stroke-linecap="round"/>
<path d="M58.5352 6.64062L51.9314 61.2427" stroke="#66DCB8" stroke-width="0.5" stroke-linecap="round"/>
<path d="M45.627 28.4028L77.9828 31.461" stroke="#66DCB8" stroke-width="0.5" stroke-linecap="round"/>
<path d="M67.9668 7.78125L61.3631 62.3834" stroke="#66DCB8" stroke-width="0.5" stroke-linecap="round"/>
<path d="M47.5166 19.0391L79.8724 22.0972" stroke="#66DCB8" stroke-width="0.5" stroke-linecap="round"/>
<path d="M77.3975 8.92188L70.7937 63.524" stroke="#66DCB8" stroke-width="0.5" stroke-linecap="round"/>
<path d="M48.9082 9.62842L81.264 12.6865" stroke="#66DCB8" stroke-width="0.5" stroke-linecap="round"/>
<path d="M5.10766 13.8699C4.99373 12.2169 6.24133 10.7846 7.89427 10.6707L46.8019 7.98879C48.4549 7.87485 49.8872 9.12246 50.0011 10.7754L52.7862 51.1795L36.4791 76.3605L12.536 78.0109C10.883 78.1248 9.4507 76.8772 9.33676 75.2243L5.10766 13.8699Z" fill="#B7E0E5"/>
<path d="M22.794 85.2698C22.878 84.875 23.4182 84.8184 23.5822 85.1872L24.1685 86.5048C24.2418 86.6698 24.4131 86.7687 24.5926 86.7499L26.0269 86.5995C26.4283 86.5574 26.6491 87.0536 26.3491 87.3236L25.2771 88.2883C25.1429 88.4091 25.1017 88.6025 25.1751 88.7674L25.7613 90.0851C25.9254 90.4539 25.5217 90.8172 25.1722 90.6152L23.9234 89.8938C23.7671 89.8035 23.5705 89.8241 23.4363 89.9449L22.3643 90.9096C22.0642 91.1796 21.594 90.9079 21.678 90.5131L21.9782 89.1026C22.0158 88.926 21.9354 88.7453 21.7791 88.655L20.5304 87.9336C20.1809 87.7317 20.2939 87.2005 20.6954 87.1584L22.1297 87.0081C22.3092 86.9892 22.4562 86.857 22.4938 86.6804L22.794 85.2698Z" fill="white"/>
<path d="M94.8238 5.49568C95.2133 5.08595 95.8995 5.414 95.8252 5.97442L95.5599 7.97675C95.5267 8.22737 95.6586 8.47088 95.8867 8.57992L97.709 9.45106C98.2191 9.69488 98.1191 10.4489 97.5632 10.5514L95.5768 10.9178C95.3282 10.9637 95.1374 11.1644 95.1042 11.415L94.8388 13.4174C94.7645 13.9778 94.0165 14.1158 93.7472 13.6187L92.785 11.8428C92.6645 11.6205 92.4146 11.5011 92.166 11.5469L90.1797 11.9133C89.6237 12.0158 89.2614 11.3471 89.6509 10.9373L91.0425 9.47341C91.2167 9.29017 91.2531 9.01561 91.1326 8.79333L90.1704 7.01743C89.9011 6.52038 90.4251 5.9691 90.9352 6.21291L92.7575 7.08405C92.9856 7.19309 93.258 7.14285 93.4321 6.95962L94.8238 5.49568Z" fill="#B4FBE4"/>
<path d="M10.9981 19.1671C10.6739 17.5423 11.7283 15.9623 13.3532 15.6381L51.5994 8.0075C53.2242 7.68332 54.8042 8.73771 55.1284 10.3625L63.0525 50.0798L50.0961 77.1377L26.56 81.8335C24.9352 82.1577 23.3552 81.1033 23.031 79.4785L10.9981 19.1671Z" fill="white"/>
<path opacity="0.5" d="M39.4397 48.1617C36.059 73.1854 31.3234 77.0594 29.2249 77.4781L50.2815 73.277L60.0392 54.1444L53.1381 19.5548C42.7088 21.6356 41.3969 33.6743 39.4397 48.1617Z" fill="#B0E8ED"/>
<path d="M28.0326 77.7156L30.4997 18.4929" stroke="#66DCB8" stroke-linecap="round" stroke-dasharray="1.5 1.5"/>
<path opacity="0.5" d="M31.0002 77.2429C31.0002 77.2429 30.0002 28.7429 46.2502 18.9929" stroke="#66DCB8" stroke-linecap="round" stroke-dasharray="1.5 1.5"/>
<path d="M27.1342 77.8954C27.4372 77.8349 28.4523 77.6324 30.0886 77.3059C32.134 76.8979 36.7355 73.0506 39.9123 48.0675C41.7515 33.6036 42.973 21.583 53.1384 19.5549" stroke="#30B287" stroke-linecap="round"/>
<path d="M15.4834 20.5669L26.9293 77.9362L49.73 73.3872" stroke="#1A9166" stroke-linecap="round"/>
<path d="M45.4004 53.6016L63.0525 50.0797L50.0962 77.1377L45.4004 53.6016Z" fill="#B7E0E5"/>
</g>
</g>
<defs>
<clipPath id="clip0_3932_616">
<rect width="150" height="100" fill="white"/>
</clipPath>
</defs>
</svg>
