<svg width="102" height="101" viewBox="0 0 102 101" fill="none" xmlns="http://www.w3.org/2000/svg">
<path d="M78.1688 18.5799L52.0399 11.5786C41.8234 8.84115 33.0302 14.1726 30.1716 24.8412L23.5742 49.4632C20.7236 60.1016 25.673 69.1154 35.8895 71.8529L62.0183 78.8541C72.2348 81.5916 80.9978 76.252 83.8484 65.6136L90.4458 40.9916C93.3045 30.3231 88.3852 21.3174 78.1688 18.5799Z" fill="url(#paint0_linear_3932_939)"/>
<g opacity="0.5" filter="url(#filter0_f_3932_939)">
<rect x="29.6494" y="59.1777" width="43.6506" height="43.4826" rx="10" transform="rotate(-72.4886 29.6494 59.1777)" fill="#B4FBE4"/>
</g>
<g filter="url(#filter1_b_3932_939)">
<mask id="path-3-outside-1_3932_939" maskUnits="userSpaceOnUse" x="3" y="22.543" width="74" height="74" fill="black">
<rect fill="white" x="3" y="22.543" width="74" height="74"/>
<path d="M54.9841 23.543H24.159C12.1063 23.543 4 32.0048 4 44.5908V73.6382C4 86.1887 12.1063 94.6505 24.159 94.6505H54.9841C67.0368 94.6505 75.1075 86.1887 75.1075 73.6382V44.5908C75.1075 32.0048 67.0368 23.543 54.9841 23.543Z"/>
</mask>
<path d="M54.9841 23.543H24.159C12.1063 23.543 4 32.0048 4 44.5908V73.6382C4 86.1887 12.1063 94.6505 24.159 94.6505H54.9841C67.0368 94.6505 75.1075 86.1887 75.1075 73.6382V44.5908C75.1075 32.0048 67.0368 23.543 54.9841 23.543Z" fill="#00A771" fill-opacity="0.2"/>
<path d="M54.9841 24.543C55.5364 24.543 55.9841 24.0953 55.9841 23.543C55.9841 22.9907 55.5364 22.543 54.9841 22.543V24.543ZM54.9841 22.543C54.4318 22.543 53.9841 22.9907 53.9841 23.543C53.9841 24.0953 54.4318 24.543 54.9841 24.543V22.543ZM54.9841 22.543H24.159V24.543H54.9841V22.543ZM24.159 22.543C17.8898 22.543 12.5791 24.7492 8.83755 28.6554C5.09962 32.5579 3 38.081 3 44.5908H5C5 38.5145 6.9535 33.5138 10.2819 30.0388C13.6067 26.5677 18.3754 24.543 24.159 24.543V22.543ZM3 44.5908V73.6382H5V44.5908H3ZM3 73.6382C3 80.1309 5.10007 85.6452 8.83797 89.5429C12.5794 93.4443 17.8899 95.6505 24.159 95.6505V93.6505C18.3754 93.6505 13.6064 91.6257 10.2815 88.1586C6.95305 84.6879 5 79.696 5 73.6382H3ZM24.159 95.6505H54.9841V93.6505H24.159V95.6505ZM54.9841 95.6505C61.2534 95.6505 66.5555 93.4442 70.2882 89.542C74.0171 85.6438 76.1075 80.1297 76.1075 73.6382H74.1075C74.1075 79.6972 72.1626 84.6892 68.8429 88.1595C65.5271 91.6259 60.7675 93.6505 54.9841 93.6505V95.6505ZM76.1075 73.6382V44.5908H74.1075V73.6382H76.1075ZM76.1075 44.5908C76.1075 38.0822 74.0175 32.5592 70.2886 28.6563C66.5558 24.7493 61.2534 22.543 54.9841 22.543V24.543C60.7675 24.543 65.5268 26.5675 68.8425 30.0379C72.1621 33.5124 74.1075 38.5133 74.1075 44.5908H76.1075Z" fill="url(#paint1_linear_3932_939)" mask="url(#path-3-outside-1_3932_939)"/>
</g>
<g clip-path="url(#clip0_3932_939)">
<path fill-rule="evenodd" clip-rule="evenodd" d="M32.5027 44.5523C32.7419 43.8819 33.0948 43.2787 33.5341 42.7581L26.2402 40.8037L25.598 43.2007L28.6773 47.1634L21.8138 72.7783L48.8597 80.0253L55.7141 54.4444L60.8451 52.6816L61.4965 50.2506L44.0604 45.5786C44.1806 46.2491 44.1846 46.948 44.0565 47.6481L58.2617 51.4544L54.0577 52.8987L47.4455 77.5758L24.2633 71.3641L30.8663 46.7211L28.3076 43.4282L32.5027 44.5523Z" fill="white"/>
<path fill-rule="evenodd" clip-rule="evenodd" d="M29.1293 45.4758L27.5557 41.6895L33.1097 43.1777L34.5667 50.2973L38.9133 51.462L43.9764 46.0894L59.9142 50.3599L55.9811 53.4471L49.1224 79.0442L45.2587 78.0089L49.6586 61.5882L41.9312 59.5176L37.5313 75.9383L22.0765 71.7972L29.1293 45.4758ZM30.3401 56.4118L37.1016 58.2235L35.2899 64.985L28.5284 63.1733L30.3401 56.4118Z" fill="white"/>
<path d="M18.2129 70.7628C18.0699 71.2963 18.3865 71.8446 18.92 71.9875L51.7614 80.7874C52.2949 80.9303 52.8432 80.6138 52.9862 80.0803C53.1291 79.5468 52.8126 78.9985 52.2791 78.8555L19.4376 70.0557C18.9041 69.9128 18.3558 70.2293 18.2129 70.7628Z" fill="white"/>
<path fill-rule="evenodd" clip-rule="evenodd" d="M44.0714 47.668C43.2138 50.8688 39.9237 52.7683 36.7229 51.9106C33.5221 51.053 31.6226 47.7629 32.4803 44.5622C33.3379 41.3614 36.628 39.4619 39.8288 40.3195C43.0295 41.1772 44.929 44.4672 44.0714 47.668ZM40.0182 43.4761L39.5006 45.408L41.4324 45.9256L40.9148 47.8575L38.983 47.3398L38.4653 49.2717L36.5335 48.754L37.0511 46.8222L35.1192 46.3045L35.6369 44.3727L37.5687 44.8903L38.0864 42.9585L40.0182 43.4761Z" fill="white"/>
</g>
<defs>
<filter id="filter0_f_3932_939" x="12.1924" y="0.0927734" width="89.5156" height="89.626" filterUnits="userSpaceOnUse" color-interpolation-filters="sRGB">
<feFlood flood-opacity="0" result="BackgroundImageFix"/>
<feBlend mode="normal" in="SourceGraphic" in2="BackgroundImageFix" result="shape"/>
<feGaussianBlur stdDeviation="10" result="effect1_foregroundBlur_3932_939"/>
</filter>
<filter id="filter1_b_3932_939" x="-21" y="-1.45703" width="121.107" height="121.107" filterUnits="userSpaceOnUse" color-interpolation-filters="sRGB">
<feFlood flood-opacity="0" result="BackgroundImageFix"/>
<feGaussianBlur in="BackgroundImageFix" stdDeviation="12"/>
<feComposite in2="SourceAlpha" operator="in" result="effect1_backgroundBlur_3932_939"/>
<feBlend mode="normal" in="SourceGraphic" in2="effect1_backgroundBlur_3932_939" result="shape"/>
</filter>
<linearGradient id="paint0_linear_3932_939" x1="65.0893" y1="15.0752" x2="48.9388" y2="75.3494" gradientUnits="userSpaceOnUse">
<stop stop-color="#B4FBE4"/>
<stop offset="1" stop-color="#00A771"/>
</linearGradient>
<linearGradient id="paint1_linear_3932_939" x1="15.3192" y1="31.8271" x2="60.6782" y2="88.0053" gradientUnits="userSpaceOnUse">
<stop stop-color="white" stop-opacity="0.25"/>
<stop offset="1" stop-color="white" stop-opacity="0"/>
</linearGradient>
<clipPath id="clip0_3932_939">
<rect width="48" height="48" fill="white" transform="translate(23.0293 29.6064) rotate(15)"/>
</clipPath>
</defs>
</svg>
