<svg width="102" height="101" viewBox="0 0 102 101" fill="none" xmlns="http://www.w3.org/2000/svg">
<path d="M78.1688 18.5799L52.0399 11.5786C41.8234 8.84115 33.0302 14.1726 30.1716 24.8412L23.5742 49.4632C20.7236 60.1016 25.673 69.1154 35.8895 71.8529L62.0183 78.8541C72.2348 81.5916 80.9978 76.252 83.8484 65.6136L90.4458 40.9916C93.3045 30.3231 88.3852 21.3174 78.1688 18.5799Z" fill="url(#paint0_linear_3932_922)"/>
<g opacity="0.5" filter="url(#filter0_f_3932_922)">
<rect x="29.6494" y="59.1777" width="43.6506" height="43.4826" rx="10" transform="rotate(-72.4886 29.6494 59.1777)" fill="#B4FBE4"/>
</g>
<g filter="url(#filter1_b_3932_922)">
<mask id="path-3-outside-1_3932_922" maskUnits="userSpaceOnUse" x="3" y="22.543" width="74" height="74" fill="black">
<rect fill="white" x="3" y="22.543" width="74" height="74"/>
<path d="M54.9841 23.543H24.159C12.1063 23.543 4 32.0048 4 44.5908V73.6382C4 86.1887 12.1063 94.6505 24.159 94.6505H54.9841C67.0368 94.6505 75.1075 86.1887 75.1075 73.6382V44.5908C75.1075 32.0048 67.0368 23.543 54.9841 23.543Z"/>
</mask>
<path d="M54.9841 23.543H24.159C12.1063 23.543 4 32.0048 4 44.5908V73.6382C4 86.1887 12.1063 94.6505 24.159 94.6505H54.9841C67.0368 94.6505 75.1075 86.1887 75.1075 73.6382V44.5908C75.1075 32.0048 67.0368 23.543 54.9841 23.543Z" fill="#00A771" fill-opacity="0.2"/>
<path d="M54.9841 24.543C55.5364 24.543 55.9841 24.0953 55.9841 23.543C55.9841 22.9907 55.5364 22.543 54.9841 22.543V24.543ZM54.9841 22.543C54.4318 22.543 53.9841 22.9907 53.9841 23.543C53.9841 24.0953 54.4318 24.543 54.9841 24.543V22.543ZM54.9841 22.543H24.159V24.543H54.9841V22.543ZM24.159 22.543C17.8898 22.543 12.5791 24.7492 8.83755 28.6554C5.09962 32.5579 3 38.081 3 44.5908H5C5 38.5145 6.9535 33.5138 10.2819 30.0388C13.6067 26.5677 18.3754 24.543 24.159 24.543V22.543ZM3 44.5908V73.6382H5V44.5908H3ZM3 73.6382C3 80.1309 5.10007 85.6452 8.83797 89.5429C12.5794 93.4443 17.8899 95.6505 24.159 95.6505V93.6505C18.3754 93.6505 13.6064 91.6257 10.2815 88.1586C6.95305 84.6879 5 79.696 5 73.6382H3ZM24.159 95.6505H54.9841V93.6505H24.159V95.6505ZM54.9841 95.6505C61.2534 95.6505 66.5555 93.4442 70.2882 89.542C74.0171 85.6438 76.1075 80.1297 76.1075 73.6382H74.1075C74.1075 79.6972 72.1626 84.6892 68.8429 88.1595C65.5271 91.6259 60.7675 93.6505 54.9841 93.6505V95.6505ZM76.1075 73.6382V44.5908H74.1075V73.6382H76.1075ZM76.1075 44.5908C76.1075 38.0822 74.0175 32.5592 70.2886 28.6563C66.5558 24.7493 61.2534 22.543 54.9841 22.543V24.543C60.7675 24.543 65.5268 26.5675 68.8425 30.0379C72.1621 33.5124 74.1075 38.5133 74.1075 44.5908H76.1075Z" fill="url(#paint1_linear_3932_922)" mask="url(#path-3-outside-1_3932_922)"/>
</g>
<g clip-path="url(#clip0_3932_922)">
<path fill-rule="evenodd" clip-rule="evenodd" d="M19.6279 73.212C19.7708 72.6785 20.3192 72.362 20.8526 72.5049L49.8304 80.2695C50.3639 80.4124 50.6805 80.9607 50.5375 81.4942C50.3946 82.0277 49.8463 82.3443 49.3128 82.2013L20.335 74.4368C19.8015 74.2938 19.485 73.7455 19.6279 73.212Z" fill="white"/>
<path fill-rule="evenodd" clip-rule="evenodd" d="M39.3114 42.2515L30.6181 39.9221L31.1357 37.9902L39.8291 40.3196L39.3114 42.2515Z" fill="white"/>
<path fill-rule="evenodd" clip-rule="evenodd" d="M57.664 47.1694L48.9706 44.8401L49.4883 42.9082L58.1816 45.2376L57.664 47.1694Z" fill="white"/>
<path fill-rule="evenodd" clip-rule="evenodd" d="M38.5349 45.1489L31.7734 43.3371L32.291 41.4053L39.0525 43.217L38.5349 45.1489Z" fill="white"/>
<path fill-rule="evenodd" clip-rule="evenodd" d="M54.9558 49.5492L48.1943 47.7375L48.7119 45.8057L55.4734 47.6174L54.9558 49.5492Z" fill="white"/>
<path fill-rule="evenodd" clip-rule="evenodd" d="M44.1042 74.5935L28.6494 70.4524L29.167 68.5205L44.6218 72.6616L44.1042 74.5935Z" fill="white"/>
<path fill-rule="evenodd" clip-rule="evenodd" d="M50.0061 40.9759L40.3469 38.3878C39.2799 38.1019 38.1833 38.735 37.8974 39.802L35.3092 49.4612C35.0233 50.5282 35.6565 51.6248 36.7234 51.9107L46.3827 54.4989C47.4496 54.7848 48.5463 54.1517 48.8322 53.0847L51.4204 43.4254C51.7062 42.3585 51.0731 41.2618 50.0061 40.9759ZM45.366 42.8384L44.5895 45.7362L47.4873 46.5127L46.9697 48.4445L44.0719 47.6681L43.2954 50.5659L41.3636 50.0482L42.14 47.1504L39.2423 46.374L39.7599 44.4421L42.6577 45.2186L43.4341 42.3208L45.366 42.8384Z" fill="white"/>
<path fill-rule="evenodd" clip-rule="evenodd" d="M46.5907 42.1313L45.8143 45.0291L48.7121 45.8056L47.6768 49.6693L44.779 48.8928L44.0025 51.7906L40.1388 50.7553L40.9153 47.8575L38.0175 47.0811L39.0528 43.2174L41.9506 43.9938L42.727 41.0961L46.5907 42.1313ZM42.6577 45.2186L39.7599 44.4421L39.2423 46.374L42.14 47.1504L41.3636 50.0482L43.2954 50.5659L44.0719 47.6681L46.9697 48.4445L47.4873 46.5127L44.5895 45.7362L45.366 42.8384L43.4341 42.3208L42.6577 45.2186ZM49.7473 41.9419L40.0881 39.3537C39.5546 39.2107 39.0063 39.5273 38.8633 40.0608L36.2751 49.72C36.1322 50.2535 36.4488 50.8018 36.9822 50.9448L46.6415 53.533C47.175 53.6759 47.7233 53.3594 47.8662 52.8259L50.4544 43.1666C50.5974 42.6332 50.2808 42.0848 49.7473 41.9419ZM40.3469 38.3878L50.0061 40.9759C51.0731 41.2618 51.7062 42.3585 51.4204 43.4254L48.8322 53.0847C48.5463 54.1517 47.4496 54.7848 46.3827 54.4989L36.7234 51.9107C35.6565 51.6248 35.0233 50.5282 35.3092 49.4612L37.8974 39.802C38.1833 38.735 39.2799 38.1019 40.3469 38.3878Z" fill="white"/>
<path d="M33.3076 53.0664L37.1713 54.1017L36.3949 56.9995L32.5312 55.9642L33.3076 53.0664Z" fill="white"/>
<path d="M32.0137 57.8955L35.8774 58.9308L35.1009 61.8286L31.2372 60.7933L32.0137 57.8955Z" fill="white"/>
<path d="M30.7197 62.7256L34.5834 63.7609L33.807 66.6586L29.9433 65.6234L30.7197 62.7256Z" fill="white"/>
<path d="M39.1035 54.6191L42.9672 55.6544L42.1908 58.5522L38.3271 57.5169L39.1035 54.6191Z" fill="white"/>
<path d="M37.8096 59.4482L41.6733 60.4835L40.8968 63.3813L37.0331 62.346L37.8096 59.4482Z" fill="white"/>
<path d="M36.5146 64.2783L40.3784 65.3136L39.6019 68.2114L35.7382 67.1761L36.5146 64.2783Z" fill="white"/>
<path d="M44.8984 56.1719L48.7621 57.2072L47.9857 60.1049L44.122 59.0697L44.8984 56.1719Z" fill="white"/>
<path d="M43.6045 61.002L47.4682 62.0372L46.6917 64.935L42.828 63.8997L43.6045 61.002Z" fill="white"/>
<path d="M42.3105 65.8311L46.1743 66.8663L45.3978 69.7641L41.5341 68.7288L42.3105 65.8311Z" fill="white"/>
<path fill-rule="evenodd" clip-rule="evenodd" d="M23.7499 73.281L32.8086 39.4736L34.7404 39.9913L25.6818 73.7987L23.7499 73.281Z" fill="white"/>
<path fill-rule="evenodd" clip-rule="evenodd" d="M44.9999 78.9754L54.0586 45.168L55.9904 45.6856L46.9318 79.493L44.9999 78.9754Z" fill="white"/>
<path fill-rule="evenodd" clip-rule="evenodd" d="M35.9284 70.3322L30.1328 68.7793L28.5799 74.5749L34.3755 76.1278L35.9284 70.3322ZM37.8602 70.8498L36.3073 76.6454L42.1029 78.1983L43.6558 72.4028L37.8602 70.8498Z" fill="white"/>
<path fill-rule="evenodd" clip-rule="evenodd" d="M40.1708 77.6811L41.2061 73.8174L43.1379 74.335L42.1026 78.1987L40.1708 77.6811Z" fill="white"/>
<path fill-rule="evenodd" clip-rule="evenodd" d="M28.58 74.5756L29.6152 70.7119L31.5471 71.2296L30.5118 75.0933L28.58 74.5756Z" fill="white"/>
</g>
<defs>
<filter id="filter0_f_3932_922" x="12.1924" y="0.0927734" width="89.5156" height="89.626" filterUnits="userSpaceOnUse" color-interpolation-filters="sRGB">
<feFlood flood-opacity="0" result="BackgroundImageFix"/>
<feBlend mode="normal" in="SourceGraphic" in2="BackgroundImageFix" result="shape"/>
<feGaussianBlur stdDeviation="10" result="effect1_foregroundBlur_3932_922"/>
</filter>
<filter id="filter1_b_3932_922" x="-21" y="-1.45703" width="121.107" height="121.107" filterUnits="userSpaceOnUse" color-interpolation-filters="sRGB">
<feFlood flood-opacity="0" result="BackgroundImageFix"/>
<feGaussianBlur in="BackgroundImageFix" stdDeviation="12"/>
<feComposite in2="SourceAlpha" operator="in" result="effect1_backgroundBlur_3932_922"/>
<feBlend mode="normal" in="SourceGraphic" in2="effect1_backgroundBlur_3932_922" result="shape"/>
</filter>
<linearGradient id="paint0_linear_3932_922" x1="65.0893" y1="15.0752" x2="48.9388" y2="75.3494" gradientUnits="userSpaceOnUse">
<stop stop-color="#B4FBE4"/>
<stop offset="1" stop-color="#00A771"/>
</linearGradient>
<linearGradient id="paint1_linear_3932_922" x1="15.3192" y1="31.8271" x2="60.6782" y2="88.0053" gradientUnits="userSpaceOnUse">
<stop stop-color="white" stop-opacity="0.25"/>
<stop offset="1" stop-color="white" stop-opacity="0"/>
</linearGradient>
<clipPath id="clip0_3932_922">
<rect width="48" height="48" fill="white" transform="translate(23.0293 29.6064) rotate(15)"/>
</clipPath>
</defs>
</svg>
