<svg width="102" height="101" viewBox="0 0 102 101" fill="none" xmlns="http://www.w3.org/2000/svg">
<path d="M78.1688 18.5799L52.0399 11.5786C41.8234 8.84115 33.0302 14.1726 30.1716 24.8412L23.5742 49.4632C20.7236 60.1016 25.673 69.1154 35.8895 71.8529L62.0183 78.8541C72.2348 81.5916 80.9978 76.252 83.8484 65.6136L90.4458 40.9916C93.3045 30.3231 88.3852 21.3174 78.1688 18.5799Z" fill="url(#paint0_linear_3932_959)"/>
<g opacity="0.5" filter="url(#filter0_f_3932_959)">
<rect x="29.6494" y="59.1777" width="43.6506" height="43.4826" rx="10" transform="rotate(-72.4886 29.6494 59.1777)" fill="#B4FBE4"/>
</g>
<g filter="url(#filter1_b_3932_959)">
<mask id="path-3-outside-1_3932_959" maskUnits="userSpaceOnUse" x="3" y="22.543" width="74" height="74" fill="black">
<rect fill="white" x="3" y="22.543" width="74" height="74"/>
<path d="M54.9841 23.543H24.159C12.1063 23.543 4 32.0048 4 44.5908V73.6382C4 86.1887 12.1063 94.6505 24.159 94.6505H54.9841C67.0368 94.6505 75.1075 86.1887 75.1075 73.6382V44.5908C75.1075 32.0048 67.0368 23.543 54.9841 23.543Z"/>
</mask>
<path d="M54.9841 23.543H24.159C12.1063 23.543 4 32.0048 4 44.5908V73.6382C4 86.1887 12.1063 94.6505 24.159 94.6505H54.9841C67.0368 94.6505 75.1075 86.1887 75.1075 73.6382V44.5908C75.1075 32.0048 67.0368 23.543 54.9841 23.543Z" fill="#00A771" fill-opacity="0.2"/>
<path d="M54.9841 24.543C55.5364 24.543 55.9841 24.0953 55.9841 23.543C55.9841 22.9907 55.5364 22.543 54.9841 22.543V24.543ZM54.9841 22.543C54.4318 22.543 53.9841 22.9907 53.9841 23.543C53.9841 24.0953 54.4318 24.543 54.9841 24.543V22.543ZM54.9841 22.543H24.159V24.543H54.9841V22.543ZM24.159 22.543C17.8898 22.543 12.5791 24.7492 8.83755 28.6554C5.09962 32.5579 3 38.081 3 44.5908H5C5 38.5145 6.9535 33.5138 10.2819 30.0388C13.6067 26.5677 18.3754 24.543 24.159 24.543V22.543ZM3 44.5908V73.6382H5V44.5908H3ZM3 73.6382C3 80.1309 5.10007 85.6452 8.83797 89.5429C12.5794 93.4443 17.8899 95.6505 24.159 95.6505V93.6505C18.3754 93.6505 13.6064 91.6257 10.2815 88.1586C6.95305 84.6879 5 79.696 5 73.6382H3ZM24.159 95.6505H54.9841V93.6505H24.159V95.6505ZM54.9841 95.6505C61.2534 95.6505 66.5555 93.4442 70.2882 89.542C74.0171 85.6438 76.1075 80.1297 76.1075 73.6382H74.1075C74.1075 79.6972 72.1626 84.6892 68.8429 88.1595C65.5271 91.6259 60.7675 93.6505 54.9841 93.6505V95.6505ZM76.1075 73.6382V44.5908H74.1075V73.6382H76.1075ZM76.1075 44.5908C76.1075 38.0822 74.0175 32.5592 70.2886 28.6563C66.5558 24.7493 61.2534 22.543 54.9841 22.543V24.543C60.7675 24.543 65.5268 26.5675 68.8425 30.0379C72.1621 33.5124 74.1075 38.5133 74.1075 44.5908H76.1075Z" fill="url(#paint1_linear_3932_959)" mask="url(#path-3-outside-1_3932_959)"/>
</g>
<g clip-path="url(#clip0_3932_959)">
<path d="M55.1496 43.9821L51.0663 50.8498L46.2952 51.9131L49.8954 55.2195L50.232 62.3347L54.0812 56.341L58.8523 55.2777L55.252 51.9714L55.1496 43.9821Z" fill="white"/>
<path d="M39.5903 46.0245L37.5891 49.6294L34.4325 49.8189L37.0714 51.5613L37.0021 55.6838L39.0033 52.0789L42.1599 51.8894L39.5209 50.1471L39.5903 46.0245Z" fill="white"/>
<path d="M21.4091 59.7882C21.5521 59.2547 22.1004 58.9381 22.6339 59.0811L25.5317 59.8575C26.0652 60.0005 26.3817 60.5488 26.2388 61.0823L23.393 71.703C23.25 72.2365 22.7017 72.5531 22.1682 72.4101L19.2704 71.6337C18.737 71.4907 18.4204 70.9424 18.5633 70.4089L21.4091 59.7882Z" fill="white"/>
<path d="M32.9257 62.034C33.9358 61.8648 36.0259 62.8647 36.0259 62.8647L42.0416 66.0157C42.0416 66.0157 43.5043 66.9574 45.0044 67.3593C46.5045 67.7613 45.0577 69.5739 43.8623 70.0217C42.6668 70.4697 41.9472 70.2353 41.9472 70.2353L36.7969 68.7882C36.7969 68.7882 41.0773 70.8147 42.7499 71.3728C43.5973 71.6556 45.2368 71.4453 47.0694 71.2102C48.8544 70.9812 50.8225 70.7288 52.4201 70.8856C55.6578 71.2034 55.4157 74.107 54.1407 74.8647C52.8658 75.6226 43.8208 77.3767 42.2833 77.5145C41.0792 77.6224 39.7887 77.1336 38.3325 76.5822C37.9292 76.4296 37.5132 76.272 37.0829 76.121C35.3708 75.5203 34.149 74.738 32.9396 73.9633C31.6432 73.1332 30.3611 72.3121 28.5045 71.7336C27.8817 71.5395 26.3869 71.2225 25.6341 71.0672L27.9273 62.5087C29.3301 62.3962 32.1736 62.1599 32.9257 62.034Z" fill="white"/>
</g>
<defs>
<filter id="filter0_f_3932_959" x="12.1924" y="0.0927734" width="89.5156" height="89.626" filterUnits="userSpaceOnUse" color-interpolation-filters="sRGB">
<feFlood flood-opacity="0" result="BackgroundImageFix"/>
<feBlend mode="normal" in="SourceGraphic" in2="BackgroundImageFix" result="shape"/>
<feGaussianBlur stdDeviation="10" result="effect1_foregroundBlur_3932_959"/>
</filter>
<filter id="filter1_b_3932_959" x="-21" y="-1.45703" width="121.107" height="121.107" filterUnits="userSpaceOnUse" color-interpolation-filters="sRGB">
<feFlood flood-opacity="0" result="BackgroundImageFix"/>
<feGaussianBlur in="BackgroundImageFix" stdDeviation="12"/>
<feComposite in2="SourceAlpha" operator="in" result="effect1_backgroundBlur_3932_959"/>
<feBlend mode="normal" in="SourceGraphic" in2="effect1_backgroundBlur_3932_959" result="shape"/>
</filter>
<linearGradient id="paint0_linear_3932_959" x1="65.0893" y1="15.0752" x2="48.9388" y2="75.3494" gradientUnits="userSpaceOnUse">
<stop stop-color="#B4FBE4"/>
<stop offset="1" stop-color="#00A771"/>
</linearGradient>
<linearGradient id="paint1_linear_3932_959" x1="15.3192" y1="31.8271" x2="60.6782" y2="88.0053" gradientUnits="userSpaceOnUse">
<stop stop-color="white" stop-opacity="0.25"/>
<stop offset="1" stop-color="white" stop-opacity="0"/>
</linearGradient>
<clipPath id="clip0_3932_959">
<rect width="48" height="48" fill="white" transform="translate(23.3779 29.2568) rotate(15)"/>
</clipPath>
</defs>
</svg>
