<svg width="160" height="160" viewBox="0 0 160 160" fill="none" xmlns="http://www.w3.org/2000/svg">
<rect width="160" height="160" rx="80" fill="white"/>
<g clip-path="url(#clip0_3932_157)">
<path d="M55.6758 49.1641C43.3399 49.1483 33.6469 57.1349 32.0301 67.8151C30.8728 75.4471 33.5731 81.6694 39.8025 86.4581C42.2319 88.3248 44.8583 89.9631 47.3452 91.7589C48.6666 92.7119 49.9552 93.7279 51.137 94.8306C52.6964 96.2798 53.4433 98.0835 53.4679 100.218C53.5418 106.039 58.2365 110.678 64.4823 110.993C70.6051 111.3 75.4721 106.936 76.2765 101.714C76.3668 101.147 76.416 100.565 76.4078 99.9895C76.3996 98.3592 75.0864 97.1147 73.4285 97.1068C71.8034 97.099 70.5148 98.3277 70.4492 99.9344C70.3343 102.675 68.5861 104.684 65.8858 105.18C62.7424 105.755 59.5168 103.392 59.5086 100.312C59.4922 96.0593 57.7194 92.6016 54.4528 89.8764C52.3681 88.1358 50.0783 86.6157 47.8376 85.0562C45.4493 83.3943 42.9952 81.819 41.0665 79.6373C37.5373 75.644 37.0448 71.0837 38.5796 66.2477C40.8367 59.1512 47.9936 54.4806 55.6922 54.961C63.8011 55.473 70.4246 61.5692 71.2781 69.3273C71.3356 69.8629 71.3684 70.3985 71.3848 70.934C71.4177 72.7062 72.6816 73.9349 74.4544 73.9191C76.1616 73.8955 77.4255 72.6196 77.3927 70.871C77.327 66.9565 76.3421 63.2626 74.1918 59.9152C69.6859 52.9447 63.0789 49.4555 55.6758 49.1641Z" fill="#4FCCA4"/>
<path d="M63.4721 68.6892C63.2095 68.7601 62.9797 68.8153 62.7581 68.8704C57.7351 70.2015 54.3372 74.6988 54.6081 79.6766C54.8707 84.5993 58.679 88.7343 63.7594 89.5928C64.3503 89.6952 64.9577 89.7346 65.5568 89.7425C66.788 89.7582 67.6415 88.9706 67.6497 87.86C67.6661 86.7495 66.829 85.9697 65.5979 85.9304C62.5037 85.8358 59.9101 84.0243 58.958 81.2834C57.4479 76.9436 60.6652 72.5644 65.5486 72.3202C66.9931 72.2493 67.6826 71.5247 67.6579 70.1385C67.5266 63.8611 62.3477 58.4974 56.0198 57.9224C48.9449 57.2766 42.9207 61.8684 41.7224 68.1379C41.5746 68.9019 41.5254 69.6974 41.5254 70.4771C41.5254 71.5247 42.3379 72.2729 43.3885 72.3123C44.4965 72.3517 45.3254 71.6743 45.465 70.6032C45.5717 69.784 45.5963 68.9492 45.8097 68.1615C46.8356 64.3258 50.6521 61.5691 54.7312 61.6794C59.0155 61.7896 62.6514 64.6802 63.4721 68.6892Z" fill="#08283F"/>
<path d="M72.534 90.2621C73.1578 90.2621 73.6666 89.7738 73.6666 89.1752V80.3853C73.6666 79.7867 73.1578 79.2983 72.534 79.2983C71.9102 79.2983 71.4014 79.7867 71.4014 80.3853V89.1752C71.4014 89.7738 71.9102 90.2621 72.534 90.2621Z" fill="#4FCCA4"/>
<path d="M76.367 87.9934C76.9908 87.9934 77.4996 87.5051 77.4996 86.9065V81.8735C77.4996 81.2749 76.9908 80.7866 76.367 80.7866C75.7432 80.7866 75.2344 81.2749 75.2344 81.8735V86.9065C75.2344 87.5051 75.7432 87.9934 76.367 87.9934Z" fill="#4FCCA4"/>
<path d="M80.2 96.0198C80.8238 96.0198 81.3326 95.5314 81.3326 94.9328V75.1792C81.3326 74.5806 80.8238 74.0923 80.2 74.0923C79.5762 74.0923 79.0674 74.5806 79.0674 75.1792V94.9328C79.0674 95.5314 79.5762 96.0198 80.2 96.0198Z" fill="#4FCCA4"/>
<path d="M84.033 91.4283C84.6568 91.4283 85.1657 90.94 85.1657 90.3414V69.6426C85.1657 69.044 84.6568 68.5557 84.033 68.5557C83.4093 68.5557 82.9004 69.044 82.9004 69.6426V90.3414C82.9004 90.94 83.4093 91.4283 84.033 91.4283Z" fill="#4FCCA4"/>
<path d="M87.8651 100.738C88.4888 100.738 88.9977 100.249 88.9977 99.6507V79.2197C88.9977 78.6211 88.4888 78.1328 87.8651 78.1328C87.2413 78.1328 86.7324 78.6211 86.7324 79.2197V99.6507C86.7324 100.249 87.2413 100.738 87.8651 100.738Z" fill="#4FCCA4"/>
<path d="M91.6981 96.863C92.3218 96.863 92.8307 96.3747 92.8307 95.7761V73.3682C92.8307 72.7696 92.3218 72.2812 91.6981 72.2812C91.0743 72.2812 90.5654 72.7696 90.5654 73.3682V95.7761C90.5654 96.3747 91.0743 96.863 91.6981 96.863Z" fill="#4FCCA4"/>
<path d="M95.5408 87.9935C96.1646 87.9935 96.6735 87.5052 96.6735 86.9066V81.0781C96.6735 80.4795 96.1646 79.9912 95.5408 79.9912C94.9171 79.9912 94.4082 80.4795 94.4082 81.0781V86.9066C94.4082 87.5052 94.9089 87.9935 95.5408 87.9935Z" fill="#4FCCA4"/>
<path d="M99.3729 90.2621C99.9966 90.2621 100.506 89.7738 100.506 89.1752V80.3853C100.506 79.7867 99.9966 79.2983 99.3729 79.2983C98.7491 79.2983 98.2402 79.7867 98.2402 80.3853V89.1752C98.2402 89.7738 98.7409 90.2621 99.3729 90.2621Z" fill="#4FCCA4"/>
<path d="M103.206 87.9934C103.83 87.9934 104.338 87.5051 104.338 86.9065V81.8735C104.338 81.2749 103.83 80.7866 103.206 80.7866C102.582 80.7866 102.073 81.2749 102.073 81.8735V86.9065C102.073 87.5051 102.574 87.9934 103.206 87.9934Z" fill="#4FCCA4"/>
<path d="M107.039 96.0198C107.663 96.0198 108.172 95.5314 108.172 94.9328V75.1792C108.172 74.5806 107.663 74.0923 107.039 74.0923C106.415 74.0923 105.906 74.5806 105.906 75.1792V94.9328C105.906 95.5314 106.407 96.0198 107.039 96.0198Z" fill="#4FCCA4"/>
<path d="M110.872 91.4283C111.496 91.4283 112.005 90.94 112.005 90.3414V69.6426C112.005 69.044 111.496 68.5557 110.872 68.5557C110.248 68.5557 109.739 69.044 109.739 69.6426V90.3414C109.739 90.94 110.24 91.4283 110.872 91.4283Z" fill="#4FCCA4"/>
<path d="M114.705 100.738C115.329 100.738 115.838 100.249 115.838 99.6507V79.2197C115.838 78.6211 115.329 78.1328 114.705 78.1328C114.081 78.1328 113.572 78.6211 113.572 79.2197V99.6507C113.572 100.249 114.081 100.738 114.705 100.738Z" fill="#4FCCA4"/>
<path d="M118.537 96.863C119.161 96.863 119.67 96.3747 119.67 95.7761V73.3682C119.67 72.7696 119.161 72.2812 118.537 72.2812C117.913 72.2812 117.404 72.7696 117.404 73.3682V95.7761C117.404 96.3747 117.913 96.863 118.537 96.863Z" fill="#4FCCA4"/>
<path d="M122.37 87.9935C122.994 87.9935 123.503 87.5052 123.503 86.9066V81.0781C123.503 80.4795 122.994 79.9912 122.37 79.9912C121.746 79.9912 121.237 80.4795 121.237 81.0781V86.9066C121.237 87.5052 121.746 87.9935 122.37 87.9935Z" fill="#4FCCA4"/>
<path d="M126.203 90.2621C126.827 90.2621 127.336 89.7738 127.336 89.1752V80.3853C127.336 79.7867 126.827 79.2983 126.203 79.2983C125.579 79.2983 125.07 79.7867 125.07 80.3853V89.1752C125.07 89.7738 125.579 90.2621 126.203 90.2621Z" fill="#4FCCA4"/>
</g>
<defs>
<clipPath id="clip0_3932_157">
<rect width="101.86" height="67.7029" fill="white" transform="translate(29.0156 46.1484)"/>
</clipPath>
</defs>
</svg>
