<svg width="36" height="36" viewBox="0 0 36 36" fill="none" xmlns="http://www.w3.org/2000/svg">
<path d="M7.5 12C7.08579 12 6.75 12.3358 6.75 12.75C6.75 13.1642 7.08579 13.5 7.5 13.5V12ZM28.5 13.5C28.9142 13.5 29.25 13.1642 29.25 12.75C29.25 12.3358 28.9142 12 28.5 12V13.5ZM7.5 18C7.08579 18 6.75 18.3358 6.75 18.75C6.75 19.1642 7.08579 19.5 7.5 19.5V18ZM25.5 19.5C25.9142 19.5 26.25 19.1642 26.25 18.75C26.25 18.3358 25.9142 18 25.5 18V19.5ZM7.5 24C7.08579 24 6.75 24.3358 6.75 24.75C6.75 25.1642 7.08579 25.5 7.5 25.5V24ZM18 25.5C18.4142 25.5 18.75 25.1642 18.75 24.75C18.75 24.3358 18.4142 24 18 24V25.5ZM7.5 13.5H28.5V12H7.5V13.5ZM7.5 19.5H25.5V18H7.5V19.5ZM7.5 25.5H18V24H7.5V25.5Z" fill="white"/>
</svg>
