<svg width="2400" height="1000" viewBox="0 0 2400 1000" fill="none" xmlns="http://www.w3.org/2000/svg">
<g clip-path="url(#clip0_3936_1259)">
<rect width="2400" height="1000" fill="white"/>
<path d="M296.186 338.333C231.984 338.251 181.536 379.818 173.121 435.404C167.098 475.125 181.151 507.509 213.573 532.433C226.217 542.148 239.886 550.675 252.829 560.021C259.707 564.981 266.413 570.269 272.564 576.008C280.68 583.551 284.568 592.938 284.696 604.047C285.08 634.34 309.514 658.485 342.021 660.125C373.887 661.723 399.218 639.014 403.404 611.835C403.874 608.884 404.131 605.851 404.088 602.858C404.045 594.373 397.211 587.896 388.582 587.855C380.124 587.814 373.418 594.209 373.076 602.571C372.478 616.837 363.379 627.29 349.326 629.872C332.965 632.865 316.178 620.567 316.135 604.539C316.05 582.403 306.823 564.407 289.822 550.224C278.972 541.164 267.054 533.253 255.392 525.136C242.962 516.487 230.19 508.288 220.151 496.933C201.783 476.15 199.22 452.416 207.208 427.246C218.955 390.312 256.204 366.003 296.272 368.504C338.476 371.168 372.948 402.897 377.39 443.274C377.689 446.062 377.86 448.849 377.946 451.637C378.116 460.86 384.695 467.255 393.921 467.173C402.806 467.05 409.385 460.409 409.214 451.309C408.872 430.935 403.746 411.71 392.554 394.288C369.103 358.01 334.717 339.85 296.186 338.333Z" fill="#5DC19F"/>
<path d="M336.764 439.954C335.398 440.323 334.201 440.61 333.048 440.897C306.906 447.825 289.221 471.232 290.631 497.139C291.998 522.759 311.818 544.28 338.26 548.748C341.335 549.281 344.496 549.486 347.614 549.527C354.022 549.609 358.464 545.51 358.507 539.73C358.592 533.95 354.235 529.892 347.828 529.687C331.724 529.195 318.226 519.767 313.27 505.501C305.411 482.914 322.155 460.123 347.572 458.852C355.09 458.483 358.678 454.712 358.55 447.497C357.866 414.826 330.912 386.91 297.978 383.917C261.157 380.556 229.803 404.455 223.566 437.085C222.797 441.061 222.541 445.201 222.541 449.26C222.541 454.712 226.77 458.606 232.238 458.811C238.004 459.016 242.319 455.49 243.045 449.915C243.6 445.652 243.728 441.307 244.839 437.208C250.178 417.244 270.042 402.897 291.272 403.471C313.569 404.045 332.493 419.089 336.764 439.954Z" fill="#05293E"/>
<path d="M383.924 552.233C387.171 552.233 389.819 549.691 389.819 546.576V500.828C389.819 497.712 387.171 495.171 383.924 495.171C380.678 495.171 378.029 497.712 378.029 500.828V546.576C378.029 549.691 380.678 552.233 383.924 552.233Z" fill="#5DC19F"/>
<path d="M403.875 540.427C407.122 540.427 409.77 537.885 409.77 534.77V508.576C409.77 505.46 407.122 502.919 403.875 502.919C400.629 502.919 397.98 505.46 397.98 508.576V534.77C397.98 537.885 400.629 540.427 403.875 540.427Z" fill="#5DC19F"/>
<path d="M423.817 582.198C427.063 582.198 429.712 579.657 429.712 576.541V473.732C429.712 470.616 427.063 468.075 423.817 468.075C420.57 468.075 417.922 470.616 417.922 473.732V576.541C417.922 579.657 420.57 582.198 423.817 582.198Z" fill="#5DC19F"/>
<path d="M443.768 558.299C447.014 558.299 449.663 555.758 449.663 552.642V444.914C449.663 441.799 447.014 439.257 443.768 439.257C440.521 439.257 437.873 441.799 437.873 444.914V552.642C437.873 555.758 440.521 558.299 443.768 558.299Z" fill="#5DC19F"/>
<path d="M463.719 606.752C466.966 606.752 469.614 604.211 469.614 601.095V494.761C469.614 491.645 466.966 489.104 463.719 489.104C460.473 489.104 457.824 491.645 457.824 494.761V601.095C457.824 604.211 460.473 606.752 463.719 606.752Z" fill="#5DC19F"/>
<path d="M483.66 586.584C486.907 586.584 489.555 584.043 489.555 580.928V464.304C489.555 461.188 486.907 458.647 483.66 458.647C480.414 458.647 477.766 461.188 477.766 464.304V580.928C477.766 584.043 480.414 586.584 483.66 586.584Z" fill="#5DC19F"/>
<path d="M503.66 540.427C506.907 540.427 509.555 537.885 509.555 534.77V504.435C509.555 501.32 506.907 498.778 503.66 498.778C500.414 498.778 497.766 501.32 497.766 504.435V534.77C497.766 537.885 500.371 540.427 503.66 540.427Z" fill="#5DC19F"/>
<path d="M523.602 552.233C526.848 552.233 529.497 549.691 529.497 546.576V500.828C529.497 497.712 526.848 495.171 523.602 495.171C520.355 495.171 517.707 497.712 517.707 500.828V546.576C517.707 549.691 520.313 552.233 523.602 552.233Z" fill="#5DC19F"/>
<path d="M543.553 540.427C546.799 540.427 549.448 537.885 549.448 534.77V508.576C549.448 505.46 546.799 502.919 543.553 502.919C540.307 502.919 537.658 505.46 537.658 508.576V534.77C537.658 537.885 540.264 540.427 543.553 540.427Z" fill="#5DC19F"/>
<path d="M563.504 582.198C566.751 582.198 569.399 579.657 569.399 576.541V473.732C569.399 470.616 566.751 468.075 563.504 468.075C560.258 468.075 557.609 470.616 557.609 473.732V576.541C557.609 579.657 560.215 582.198 563.504 582.198Z" fill="#5DC19F"/>
<path d="M583.446 558.299C586.692 558.299 589.34 555.758 589.34 552.642V444.914C589.34 441.799 586.692 439.257 583.446 439.257C580.199 439.257 577.551 441.799 577.551 444.914V552.642C577.551 555.758 580.156 558.299 583.446 558.299Z" fill="#5DC19F"/>
<path d="M603.407 606.752C606.653 606.752 609.301 604.211 609.301 601.095V494.761C609.301 491.645 606.653 489.104 603.407 489.104C600.16 489.104 597.512 491.645 597.512 494.761V601.095C597.512 604.211 600.16 606.752 603.407 606.752Z" fill="#5DC19F"/>
<path d="M623.348 586.584C626.594 586.584 629.243 584.043 629.243 580.928V464.304C629.243 461.188 626.594 458.647 623.348 458.647C620.102 458.647 617.453 461.188 617.453 464.304V580.928C617.453 584.043 620.102 586.584 623.348 586.584Z" fill="#5DC19F"/>
<path d="M643.299 540.427C646.546 540.427 649.194 537.885 649.194 534.77V504.435C649.194 501.32 646.546 498.778 643.299 498.778C640.053 498.778 637.404 501.32 637.404 504.435V534.77C637.404 537.885 640.053 540.427 643.299 540.427Z" fill="#5DC19F"/>
<path d="M663.25 552.233C666.497 552.233 669.145 549.691 669.145 546.576V500.828C669.145 497.712 666.497 495.171 663.25 495.171C660.004 495.171 657.355 497.712 657.355 500.828V546.576C657.355 549.691 660.004 552.233 663.25 552.233Z" fill="#5DC19F"/>
<path d="M847.822 396.083H805.96V509.878H777.852V396.083H735.819V372.061H847.822V396.083Z" fill="#3C404B"/>
<path d="M917.536 501.433C913.435 504.548 907.882 507.254 900.791 509.386C893.786 511.517 886.268 512.665 878.322 512.665C861.748 512.665 849.702 508.074 842.013 498.809C834.324 489.545 830.565 476.837 830.565 460.686C830.565 443.388 834.837 430.352 843.466 421.744C852.094 413.053 864.226 408.79 879.775 408.79C884.986 408.79 890.027 409.446 894.982 410.758C899.937 412.069 904.294 414.201 908.138 417.234C911.983 420.268 915.058 424.285 917.365 429.45C919.672 434.533 920.868 440.928 920.868 448.553C920.868 451.34 920.697 454.292 920.355 457.407C920.013 460.523 919.501 463.802 918.817 467.245H857.477C857.904 475.526 860.125 481.757 864.14 485.938C868.156 490.119 874.649 492.251 883.705 492.251C889.258 492.251 894.298 491.431 898.741 489.791C903.183 488.151 906.515 486.512 908.822 484.79L917.536 501.433ZM879.518 429.204C872.598 429.204 867.472 431.172 864.14 435.189C860.809 439.206 858.844 444.535 858.16 451.258H896.092C896.605 444.207 895.494 438.714 892.76 434.943C889.856 431.09 885.499 429.204 879.518 429.204Z" fill="#3C404B"/>
<path d="M967.172 476.838C967.172 481.429 967.77 484.791 969.051 486.922C970.247 489.054 972.298 490.038 975.031 490.038C976.655 490.038 978.278 489.874 979.816 489.628C981.353 489.382 983.318 488.808 985.625 487.824L988.53 507.91C986.309 508.976 982.977 510.042 978.449 511.026C973.921 512.092 969.307 512.584 964.523 512.584C956.749 512.584 950.769 510.862 946.668 507.337C942.567 503.893 940.517 498.154 940.517 490.12V372.061H967.172V476.838Z" fill="#3C404B"/>
<path d="M998.349 383.703C998.349 379.931 999.801 376.652 1002.79 373.946C1005.78 371.241 1009.8 369.929 1015.01 369.929C1020.22 369.929 1024.41 371.241 1027.65 373.946C1030.9 376.652 1032.44 379.849 1032.44 383.703C1032.44 387.474 1030.81 390.671 1027.65 393.295C1024.41 395.836 1020.22 397.148 1015.01 397.148C1009.8 397.148 1005.78 395.836 1002.79 393.295C999.886 390.671 998.349 387.474 998.349 383.703ZM1002.28 411.495H1028.93V509.96H1002.28V411.495Z" fill="#3C404B"/>
<path d="M1117.96 509.878V453.964C1117.96 445.93 1116.76 440.191 1114.37 436.666C1111.98 433.14 1107.88 431.337 1102.15 431.337C1097.11 431.337 1092.84 432.73 1089.34 435.6C1085.84 438.469 1083.36 441.913 1081.82 446.094V509.878H1055.17V411.414H1076.27L1079.34 424.368H1080.2C1083.36 420.187 1087.54 416.497 1092.67 413.382C1097.88 410.266 1104.55 408.627 1112.75 408.627C1117.79 408.627 1122.32 409.283 1126.25 410.594C1130.17 411.906 1133.59 414.038 1136.33 417.071C1139.06 420.105 1141.11 424.204 1142.48 429.369C1143.84 434.534 1144.53 440.929 1144.53 448.554V509.796H1117.96V509.878Z" fill="#3C404B"/>
<path d="M1253.79 509.878C1253.79 524.144 1249.78 534.72 1241.66 541.443C1233.63 548.165 1222.27 551.609 1207.83 551.609C1198.01 551.609 1190.23 550.953 1184.51 549.641C1178.87 548.329 1174.6 546.936 1171.69 545.542L1177.25 525.292C1180.41 526.439 1184.08 527.669 1188.27 528.817C1192.45 529.965 1197.58 530.621 1203.73 530.621C1213.04 530.621 1219.37 528.653 1222.7 524.8C1226.03 520.946 1227.74 515.535 1227.74 508.567V502.254H1226.88C1222.1 508.403 1213.64 511.518 1201.42 511.518C1188.18 511.518 1178.27 507.583 1171.78 499.712C1165.29 491.842 1162.04 479.462 1162.04 462.655C1162.04 445.028 1166.4 431.747 1175.2 422.646C1183.91 413.628 1196.64 409.037 1213.39 409.037C1222.1 409.037 1229.96 409.611 1236.88 410.84C1243.8 411.988 1249.44 413.382 1253.79 414.94V509.878ZM1208.69 491.022C1213.9 491.022 1217.91 489.874 1220.65 487.66C1223.47 485.447 1225.6 482.085 1227.14 477.658V433.386C1222.87 431.665 1217.66 430.845 1211.33 430.845C1204.5 430.845 1199.12 433.304 1195.36 438.223C1191.51 443.142 1189.63 451.013 1189.63 461.753C1189.63 471.345 1191.26 478.642 1194.59 483.643C1197.92 488.644 1202.54 491.022 1208.69 491.022Z" fill="#3C404B"/>
<path d="M1276.35 417.153C1281.82 414.775 1288.31 412.89 1295.83 411.578C1303.35 410.184 1311.21 409.528 1319.41 409.528C1326.5 409.528 1332.48 410.348 1337.27 411.988C1342.05 413.628 1345.81 415.923 1348.63 418.957C1351.45 421.99 1353.41 425.597 1354.61 429.779C1355.81 433.96 1356.32 438.715 1356.32 443.962C1356.32 449.701 1356.15 455.522 1355.72 461.425C1355.29 467.246 1355.04 472.985 1355.04 478.642C1354.95 484.299 1355.12 489.792 1355.55 495.121C1355.98 500.45 1357 505.451 1358.62 510.206H1336.84L1332.57 496.596H1331.54C1328.81 500.696 1325.05 504.139 1320.18 507.091C1315.31 510.042 1309.07 511.518 1301.38 511.518C1296.6 511.518 1292.33 510.862 1288.48 509.468C1284.64 508.074 1281.39 506.107 1278.66 503.565C1275.93 501.024 1273.79 497.99 1272.34 494.547C1270.8 491.103 1270.12 487.168 1270.12 482.823C1270.12 476.756 1271.48 471.673 1274.3 467.574C1277.12 463.474 1281.14 460.113 1286.43 457.571C1291.73 455.03 1297.97 453.226 1305.31 452.243C1312.66 451.259 1320.78 450.931 1329.83 451.341C1330.77 443.962 1330.26 438.715 1328.21 435.518C1326.16 432.32 1321.55 430.68 1314.46 430.68C1309.16 430.68 1303.52 431.172 1297.54 432.238C1291.56 433.304 1286.69 434.698 1282.85 436.337L1276.35 417.153ZM1310.27 490.448C1315.57 490.448 1319.84 489.3 1323 487.004C1326.16 484.709 1328.47 482.249 1330 479.625V466.836C1325.73 466.426 1321.72 466.344 1317.79 466.672C1313.86 466.918 1310.44 467.492 1307.45 468.476C1304.46 469.459 1302.07 470.689 1300.27 472.411C1298.48 474.132 1297.63 476.264 1297.63 478.888C1297.63 482.577 1298.74 485.446 1301.04 487.414C1303.35 489.382 1306.25 490.448 1310.27 490.448Z" fill="#3C404B"/>
<path d="M1466.78 451.012H1459.43V509.878H1431.33V372.061H1459.43V433.058L1466.01 430.27L1505.57 371.979H1537.61L1495.74 429.86L1484.64 437.321L1496.09 445.027L1543.93 509.796H1509.24L1466.78 451.012Z" fill="#5DC19F"/>
<path d="M1630.05 501.433C1625.94 504.548 1620.39 507.254 1613.3 509.386C1606.3 511.517 1598.78 512.665 1590.83 512.665C1574.26 512.665 1562.21 508.074 1554.52 498.809C1546.83 489.545 1543.08 476.837 1543.08 460.686C1543.08 443.388 1547.35 430.352 1555.98 421.744C1564.6 413.053 1576.74 408.79 1592.28 408.79C1597.5 408.79 1602.54 409.446 1607.49 410.758C1612.45 412.069 1616.8 414.201 1620.65 417.234C1624.49 420.268 1627.57 424.285 1629.87 429.45C1632.18 434.533 1633.38 440.928 1633.38 448.553C1633.38 451.34 1633.21 454.292 1632.86 457.407C1632.52 460.523 1632.01 463.802 1631.33 467.245H1569.99C1570.41 475.526 1572.63 481.757 1576.65 485.938C1580.67 490.119 1587.16 492.251 1596.21 492.251C1601.77 492.251 1606.81 491.431 1611.25 489.791C1615.69 488.151 1619.02 486.512 1621.33 484.79L1630.05 501.433ZM1592.03 429.204C1585.11 429.204 1579.98 431.172 1576.65 435.189C1573.32 439.206 1571.35 444.535 1570.67 451.258H1608.6C1609.11 444.207 1608 438.714 1605.27 434.943C1602.37 431.09 1598.01 429.204 1592.03 429.204Z" fill="#5DC19F"/>
<path d="M1723.85 503.811C1719.75 506.68 1714.8 508.894 1708.99 510.37C1703.18 511.845 1697.2 512.665 1691.05 512.665C1682.84 512.665 1675.92 511.436 1670.2 508.894C1664.56 506.434 1659.86 502.909 1656.36 498.4C1652.77 493.891 1650.21 488.398 1648.67 481.921C1647.13 475.526 1646.28 468.393 1646.28 460.687C1646.28 444.044 1650.21 431.172 1657.98 422.236C1665.76 413.217 1677.12 408.708 1692.07 408.708C1699.59 408.708 1705.65 409.282 1710.18 410.512C1714.8 411.66 1718.9 413.217 1722.57 415.021L1716.25 435.927C1713.09 434.452 1710.01 433.386 1706.94 432.566C1703.86 431.746 1700.36 431.418 1696.34 431.418C1688.99 431.418 1683.36 433.714 1679.51 438.387C1675.67 443.06 1673.79 450.521 1673.79 460.769C1673.79 464.95 1674.3 468.803 1675.24 472.411C1676.18 475.936 1677.63 479.051 1679.51 481.675C1681.39 484.298 1683.95 486.348 1687.03 487.906C1690.11 489.382 1693.69 490.201 1697.79 490.201C1702.32 490.201 1706.17 489.627 1709.24 488.562C1712.4 487.414 1715.22 486.102 1717.61 484.544L1723.85 503.811Z" fill="#5DC19F"/>
<path d="M1738.37 383.703C1738.37 379.931 1739.82 376.652 1742.81 373.946C1745.8 371.241 1749.82 369.929 1755.03 369.929C1760.24 369.929 1764.43 371.241 1767.67 373.946C1770.92 376.652 1772.46 379.849 1772.46 383.703C1772.46 387.474 1770.83 390.671 1767.67 393.295C1764.43 395.836 1760.24 397.148 1755.03 397.148C1749.82 397.148 1745.8 395.836 1742.81 393.295C1739.91 390.671 1738.37 387.474 1738.37 383.703ZM1742.3 411.495H1768.95V509.96H1742.3V411.495Z" fill="#5DC19F"/>
<path d="M1822.7 476.838C1822.7 481.429 1823.3 484.791 1824.58 486.922C1825.77 489.054 1827.82 490.038 1830.56 490.038C1832.18 490.038 1833.81 489.874 1835.34 489.628C1836.88 489.382 1838.85 488.808 1841.15 487.824L1844.06 507.91C1841.84 508.976 1838.5 510.042 1833.98 511.026C1829.45 512.092 1824.83 512.584 1820.05 512.584C1812.28 512.584 1806.3 510.862 1802.2 507.337C1798.09 503.893 1796.04 498.154 1796.04 490.12V372.061H1822.7V476.838Z" fill="#5DC19F"/>
<path d="M1889.42 469.132H1882.24V509.878H1855.58V372.061H1882.24V453.39L1888.39 450.603L1911.8 411.414H1941.1L1916.5 448.799L1906.08 456.26L1917.35 463.966L1945.03 509.878H1914.45L1889.42 469.132Z" fill="#5DC19F"/>
<path d="M1981.94 411.496V467.409C1981.94 475.444 1982.97 481.183 1984.93 484.708C1986.9 488.234 1990.74 490.037 1996.55 490.037C2001.59 490.037 2005.78 488.562 2009.2 485.692C2012.53 482.823 2015 479.297 2016.71 475.034V411.414H2043.37V479.953C2043.37 485.364 2043.62 490.611 2044.22 495.776C2044.74 500.941 2045.59 505.696 2046.7 509.878H2026.62L2021.92 495.284H2021.07C2017.91 500.285 2013.55 504.385 2007.91 507.664C2002.28 510.943 1995.7 512.583 1988.01 512.583C1982.8 512.583 1978.18 511.927 1974.08 510.615C1969.98 509.304 1966.56 507.172 1963.83 504.139C1961.1 501.105 1959.05 497.088 1957.59 491.923C1956.14 486.84 1955.46 480.363 1955.46 472.656V411.414H1981.94V411.496Z" fill="#5DC19F"/>
<path d="M782.549 628.609L776.389 612.769H751.269L745.269 628.609H736.869L759.429 571.889H768.469L791.029 628.609H782.549ZM763.749 580.049L754.069 605.489H773.589L763.749 580.049ZM806.3 643.809H798.86V590.129H806.14V596.129C807.26 594.102 808.94 592.449 811.18 591.169C813.42 589.889 816.033 589.249 819.02 589.249C824.567 589.249 828.887 591.142 831.98 594.929C835.127 598.715 836.7 603.515 836.7 609.329C836.7 615.195 835.073 620.049 831.82 623.889C828.62 627.729 824.273 629.649 818.78 629.649C815.953 629.649 813.447 629.062 811.26 627.889C809.073 626.715 807.42 625.222 806.3 623.409V643.809ZM829.02 609.329C829.02 605.435 827.98 602.235 825.9 599.729C823.873 597.169 821.127 595.889 817.66 595.889C814.247 595.889 811.473 597.169 809.34 599.729C807.26 602.235 806.22 605.435 806.22 609.329C806.22 613.329 807.26 616.609 809.34 619.169C811.473 621.675 814.247 622.929 817.66 622.929C821.073 622.929 823.82 621.675 825.9 619.169C827.98 616.609 829.02 613.329 829.02 609.329ZM854.802 628.609H847.282V570.689H854.802V628.609ZM876.034 628.609H868.594V590.129H876.034V628.609ZM868.434 579.409C867.421 578.342 866.914 577.062 866.914 575.569C866.914 574.075 867.421 572.795 868.434 571.729C869.501 570.662 870.781 570.129 872.274 570.129C873.768 570.129 875.048 570.662 876.114 571.729C877.181 572.742 877.714 574.022 877.714 575.569C877.714 577.062 877.181 578.342 876.114 579.409C875.048 580.422 873.768 580.929 872.274 580.929C870.781 580.929 869.501 580.422 868.434 579.409ZM924.309 590.129L907.909 606.369L924.629 628.609H915.189L902.629 611.649L897.269 617.009V628.609H889.829V570.689H897.269V607.169L913.909 590.129H924.309ZM929.288 618.289C929.288 614.982 930.355 612.342 932.488 610.369C934.621 608.342 937.448 607.089 940.968 606.609L951.368 605.089C953.341 604.822 954.328 603.862 954.328 602.209C954.328 600.182 953.635 598.529 952.248 597.249C950.861 595.969 948.781 595.329 946.008 595.329C943.448 595.329 941.421 596.049 939.928 597.489C938.435 598.875 937.555 600.742 937.288 603.089L930.088 601.409C930.461 597.729 932.141 594.742 935.128 592.449C938.115 590.102 941.688 588.929 945.848 588.929C951.288 588.929 955.315 590.262 957.928 592.929C960.541 595.542 961.848 598.902 961.848 603.009V622.289C961.848 624.582 962.008 626.689 962.328 628.609H954.968C954.701 627.009 954.568 625.275 954.568 623.409C953.501 625.115 951.928 626.609 949.848 627.889C947.821 629.169 945.261 629.809 942.168 629.809C938.381 629.809 935.288 628.689 932.888 626.449C930.488 624.155 929.288 621.435 929.288 618.289ZM943.208 623.489C946.568 623.489 949.261 622.582 951.288 620.769C953.315 618.955 954.328 616.075 954.328 612.129V610.369L942.568 612.129C940.861 612.395 939.501 613.009 938.488 613.969C937.475 614.929 936.968 616.235 936.968 617.889C936.968 619.382 937.528 620.689 938.648 621.809C939.821 622.929 941.341 623.489 943.208 623.489ZM970.963 618.609L977.763 616.209C978.03 618.289 978.936 620.022 980.483 621.409C982.03 622.742 984.11 623.409 986.723 623.409C988.75 623.409 990.35 622.929 991.523 621.969C992.696 620.955 993.283 619.729 993.283 618.289C993.283 615.729 991.63 614.075 988.323 613.329L981.763 611.889C978.776 611.249 976.43 609.969 974.723 608.049C973.016 606.129 972.163 603.809 972.163 601.089C972.163 597.782 973.496 594.929 976.163 592.529C978.883 590.129 982.11 588.929 985.843 588.929C988.296 588.929 990.483 589.302 992.403 590.049C994.323 590.742 995.816 591.675 996.883 592.849C997.95 594.022 998.75 595.115 999.283 596.129C999.816 597.142 1000.22 598.182 1000.48 599.249L993.843 601.729C993.736 601.089 993.55 600.475 993.283 599.889C993.016 599.249 992.59 598.555 992.003 597.809C991.47 597.062 990.67 596.475 989.603 596.049C988.536 595.569 987.283 595.329 985.843 595.329C983.976 595.329 982.43 595.835 981.203 596.849C980.03 597.862 979.443 599.062 979.443 600.449C979.443 602.902 980.91 604.449 983.843 605.089L990.083 606.449C993.496 607.195 996.11 608.582 997.923 610.609C999.79 612.582 1000.72 615.009 1000.72 617.889C1000.72 620.929 999.47 623.675 996.963 626.129C994.51 628.582 991.07 629.809 986.643 629.809C981.896 629.809 978.19 628.635 975.523 626.289C972.856 623.889 971.336 621.329 970.963 618.609ZM1019.17 628.609H1011.73V590.129H1019.17V628.609ZM1011.57 579.409C1010.56 578.342 1010.05 577.062 1010.05 575.569C1010.05 574.075 1010.56 572.795 1011.57 571.729C1012.64 570.662 1013.92 570.129 1015.41 570.129C1016.91 570.129 1018.19 570.662 1019.25 571.729C1020.32 572.742 1020.85 574.022 1020.85 575.569C1020.85 577.062 1020.32 578.342 1019.25 579.409C1018.19 580.422 1016.91 580.929 1015.41 580.929C1013.92 580.929 1012.64 580.422 1011.57 579.409ZM1062.61 621.649H1074.21C1079.76 621.649 1084.34 619.809 1087.97 616.129C1091.65 612.449 1093.49 607.195 1093.49 600.369C1093.49 593.489 1091.68 588.182 1088.05 584.449C1084.48 580.715 1079.92 578.849 1074.37 578.849H1062.61V621.649ZM1074.45 628.609H1054.77V571.889H1074.61C1082.24 571.889 1088.64 574.422 1093.81 579.489C1098.98 584.502 1101.57 591.462 1101.57 600.369C1101.57 609.222 1098.96 616.155 1093.73 621.169C1088.5 626.129 1082.08 628.609 1074.45 628.609ZM1117.43 605.409H1138.47C1138.36 602.529 1137.4 600.182 1135.59 598.369C1133.77 596.502 1131.21 595.569 1127.91 595.569C1124.92 595.569 1122.47 596.555 1120.55 598.529C1118.63 600.449 1117.59 602.742 1117.43 605.409ZM1139.59 615.409L1146.07 617.649C1144.95 621.222 1142.87 624.155 1139.83 626.449C1136.79 628.689 1133.11 629.809 1128.79 629.809C1123.4 629.809 1118.81 627.969 1115.03 624.289C1111.29 620.555 1109.43 615.542 1109.43 609.249C1109.43 603.382 1111.24 598.529 1114.87 594.689C1118.49 590.849 1122.81 588.929 1127.83 588.929C1133.64 588.929 1138.17 590.769 1141.43 594.449C1144.68 598.075 1146.31 602.955 1146.31 609.089C1146.31 610.049 1146.25 610.849 1146.15 611.489H1117.19C1117.24 614.902 1118.36 617.702 1120.55 619.889C1122.79 622.075 1125.53 623.169 1128.79 623.169C1134.28 623.169 1137.88 620.582 1139.59 615.409ZM1166.99 577.969V590.129H1175.31V596.929H1166.99V616.929C1166.99 618.742 1167.39 620.075 1168.19 620.929C1169.04 621.782 1170.43 622.209 1172.35 622.209C1173.47 622.209 1174.45 622.102 1175.31 621.889V628.289C1174.03 628.769 1172.32 629.009 1170.19 629.009C1166.88 629.009 1164.27 628.049 1162.35 626.129C1160.43 624.209 1159.47 621.515 1159.47 618.049V596.929H1152.11V590.129H1154.19C1156.16 590.129 1157.63 589.595 1158.59 588.529C1159.6 587.409 1160.11 585.969 1160.11 584.209V577.969H1166.99ZM1190.83 605.409H1211.87C1211.77 602.529 1210.81 600.182 1208.99 598.369C1207.18 596.502 1204.62 595.569 1201.31 595.569C1198.33 595.569 1195.87 596.555 1193.95 598.529C1192.03 600.449 1190.99 602.742 1190.83 605.409ZM1212.99 615.409L1219.47 617.649C1218.35 621.222 1216.27 624.155 1213.23 626.449C1210.19 628.689 1206.51 629.809 1202.19 629.809C1196.81 629.809 1192.22 627.969 1188.43 624.289C1184.7 620.555 1182.83 615.542 1182.83 609.249C1182.83 603.382 1184.65 598.529 1188.27 594.689C1191.9 590.849 1196.22 588.929 1201.23 588.929C1207.05 588.929 1211.58 590.769 1214.83 594.449C1218.09 598.075 1219.71 602.955 1219.71 609.089C1219.71 610.049 1219.66 610.849 1219.55 611.489H1190.59C1190.65 614.902 1191.77 617.702 1193.95 619.889C1196.19 622.075 1198.94 623.169 1202.19 623.169C1207.69 623.169 1211.29 620.582 1212.99 615.409ZM1264.79 590.129L1248.39 606.369L1265.11 628.609H1255.67L1243.11 611.649L1237.75 617.009V628.609H1230.31V570.689H1237.75V607.169L1254.39 590.129H1264.79ZM1269.74 618.609L1276.54 616.209C1276.81 618.289 1277.72 620.022 1279.26 621.409C1280.81 622.742 1282.89 623.409 1285.5 623.409C1287.53 623.409 1289.13 622.929 1290.3 621.969C1291.48 620.955 1292.06 619.729 1292.06 618.289C1292.06 615.729 1290.41 614.075 1287.1 613.329L1280.54 611.889C1277.56 611.249 1275.21 609.969 1273.5 608.049C1271.8 606.129 1270.94 603.809 1270.94 601.089C1270.94 597.782 1272.28 594.929 1274.94 592.529C1277.66 590.129 1280.89 588.929 1284.62 588.929C1287.08 588.929 1289.26 589.302 1291.18 590.049C1293.1 590.742 1294.6 591.675 1295.66 592.849C1296.73 594.022 1297.53 595.115 1298.06 596.129C1298.6 597.142 1299 598.182 1299.26 599.249L1292.62 601.729C1292.52 601.089 1292.33 600.475 1292.06 599.889C1291.8 599.249 1291.37 598.555 1290.78 597.809C1290.25 597.062 1289.45 596.475 1288.38 596.049C1287.32 595.569 1286.06 595.329 1284.62 595.329C1282.76 595.329 1281.21 595.835 1279.98 596.849C1278.81 597.862 1278.22 599.062 1278.22 600.449C1278.22 602.902 1279.69 604.449 1282.62 605.089L1288.86 606.449C1292.28 607.195 1294.89 608.582 1296.7 610.609C1298.57 612.582 1299.5 615.009 1299.5 617.889C1299.5 620.929 1298.25 623.675 1295.74 626.129C1293.29 628.582 1289.85 629.809 1285.42 629.809C1280.68 629.809 1276.97 628.635 1274.3 626.289C1271.64 623.889 1270.12 621.329 1269.74 618.609ZM1317.96 628.609H1310.52V590.129H1317.96V628.609ZM1310.36 579.409C1309.34 578.342 1308.84 577.062 1308.84 575.569C1308.84 574.075 1309.34 572.795 1310.36 571.729C1311.42 570.662 1312.7 570.129 1314.2 570.129C1315.69 570.129 1316.97 570.662 1318.04 571.729C1319.1 572.742 1319.64 574.022 1319.64 575.569C1319.64 577.062 1319.1 578.342 1318.04 579.409C1316.97 580.422 1315.69 580.929 1314.2 580.929C1312.7 580.929 1311.42 580.422 1310.36 579.409ZM1402.67 628.609H1396.35L1395.63 620.609C1394.24 623.115 1391.98 625.275 1388.83 627.089C1385.68 628.902 1381.9 629.809 1377.47 629.809C1372.62 629.809 1368.14 628.715 1364.03 626.529C1359.92 624.289 1356.54 620.875 1353.87 616.289C1351.26 611.702 1349.95 606.342 1349.95 600.209C1349.95 594.075 1351.34 588.715 1354.11 584.129C1356.88 579.542 1360.35 576.155 1364.51 573.969C1368.72 571.782 1373.23 570.689 1378.03 570.689C1384.11 570.689 1389.39 572.262 1393.87 575.409C1398.4 578.502 1401.5 582.635 1403.15 587.809L1396.03 590.849C1394.75 586.742 1392.51 583.569 1389.31 581.329C1386.16 579.035 1382.4 577.889 1378.03 577.889C1372.54 577.889 1367.82 579.835 1363.87 583.729C1359.92 587.622 1357.95 593.115 1357.95 600.209C1357.95 607.355 1359.87 612.902 1363.71 616.849C1367.6 620.742 1372.27 622.689 1377.71 622.689C1380.7 622.689 1383.34 622.209 1385.63 621.249C1387.98 620.289 1389.79 619.035 1391.07 617.489C1392.4 615.889 1393.39 614.289 1394.03 612.689C1394.72 611.089 1395.12 609.489 1395.23 607.889H1375.55V600.849H1402.67V628.609ZM1412.52 618.289C1412.52 614.982 1413.59 612.342 1415.72 610.369C1417.86 608.342 1420.68 607.089 1424.2 606.609L1434.6 605.089C1436.58 604.822 1437.56 603.862 1437.56 602.209C1437.56 600.182 1436.87 598.529 1435.48 597.249C1434.1 595.969 1432.02 595.329 1429.24 595.329C1426.68 595.329 1424.66 596.049 1423.16 597.489C1421.67 598.875 1420.79 600.742 1420.52 603.089L1413.32 601.409C1413.7 597.729 1415.38 594.742 1418.36 592.449C1421.35 590.102 1424.92 588.929 1429.08 588.929C1434.52 588.929 1438.55 590.262 1441.16 592.929C1443.78 595.542 1445.08 598.902 1445.08 603.009V622.289C1445.08 624.582 1445.24 626.689 1445.56 628.609H1438.2C1437.94 627.009 1437.8 625.275 1437.8 623.409C1436.74 625.115 1435.16 626.609 1433.08 627.889C1431.06 629.169 1428.5 629.809 1425.4 629.809C1421.62 629.809 1418.52 628.689 1416.12 626.449C1413.72 624.155 1412.52 621.435 1412.52 618.289ZM1426.44 623.489C1429.8 623.489 1432.5 622.582 1434.52 620.769C1436.55 618.955 1437.56 616.075 1437.56 612.129V610.369L1425.8 612.129C1424.1 612.395 1422.74 613.009 1421.72 613.969C1420.71 614.929 1420.2 616.235 1420.2 617.889C1420.2 619.382 1420.76 620.689 1421.88 621.809C1423.06 622.929 1424.58 623.489 1426.44 623.489ZM1465.32 606.369V628.609H1457.8V590.129H1465.16V595.649C1467.72 591.222 1471.66 589.009 1477 589.009C1481.42 589.009 1484.81 590.422 1487.16 593.249C1489.56 596.075 1490.76 599.729 1490.76 604.209V628.609H1483.24V605.489C1483.24 599.035 1480.25 595.809 1474.28 595.809C1471.45 595.809 1469.24 596.822 1467.64 598.849C1466.09 600.822 1465.32 603.329 1465.32 606.369ZM1500.92 630.689L1508.2 629.009C1508.47 631.729 1509.56 633.969 1511.48 635.729C1513.4 637.542 1515.8 638.449 1518.68 638.449C1526.52 638.449 1530.44 634.289 1530.44 625.969V620.449C1529.48 622.315 1527.96 623.835 1525.88 625.009C1523.85 626.182 1521.45 626.769 1518.68 626.769C1513.56 626.769 1509.32 625.035 1505.96 621.569C1502.65 618.049 1501 613.569 1501 608.129C1501 602.849 1502.65 598.422 1505.96 594.849C1509.27 591.222 1513.51 589.409 1518.68 589.409C1524.55 589.409 1528.49 591.435 1530.52 595.489V590.129H1537.96V625.729C1537.96 628.289 1537.61 630.662 1536.92 632.849C1536.28 635.089 1535.24 637.142 1533.8 639.009C1532.36 640.875 1530.33 642.342 1527.72 643.409C1525.16 644.475 1522.15 645.009 1518.68 645.009C1513.93 645.009 1509.91 643.649 1506.6 640.929C1503.29 638.262 1501.4 634.849 1500.92 630.689ZM1519.8 620.449C1523.05 620.449 1525.69 619.329 1527.72 617.089C1529.75 614.795 1530.76 611.809 1530.76 608.129C1530.76 604.449 1529.75 601.489 1527.72 599.249C1525.69 596.955 1523.05 595.809 1519.8 595.809C1516.49 595.809 1513.8 596.929 1511.72 599.169C1509.69 601.409 1508.68 604.395 1508.68 608.129C1508.68 611.915 1509.67 614.929 1511.64 617.169C1513.67 619.355 1516.39 620.449 1519.8 620.449ZM1548.17 630.689L1555.45 629.009C1555.72 631.729 1556.81 633.969 1558.73 635.729C1560.65 637.542 1563.05 638.449 1565.93 638.449C1573.77 638.449 1577.69 634.289 1577.69 625.969V620.449C1576.73 622.315 1575.21 623.835 1573.13 625.009C1571.1 626.182 1568.7 626.769 1565.93 626.769C1560.81 626.769 1556.57 625.035 1553.21 621.569C1549.9 618.049 1548.25 613.569 1548.25 608.129C1548.25 602.849 1549.9 598.422 1553.21 594.849C1556.52 591.222 1560.76 589.409 1565.93 589.409C1571.8 589.409 1575.74 591.435 1577.77 595.489V590.129H1585.21V625.729C1585.21 628.289 1584.86 630.662 1584.17 632.849C1583.53 635.089 1582.49 637.142 1581.05 639.009C1579.61 640.875 1577.58 642.342 1574.97 643.409C1572.41 644.475 1569.4 645.009 1565.93 645.009C1561.18 645.009 1557.16 643.649 1553.85 640.929C1550.54 638.262 1548.65 634.849 1548.17 630.689ZM1567.05 620.449C1570.3 620.449 1572.94 619.329 1574.97 617.089C1577 614.795 1578.01 611.809 1578.01 608.129C1578.01 604.449 1577 601.489 1574.97 599.249C1572.94 596.955 1570.3 595.809 1567.05 595.809C1563.74 595.809 1561.05 596.929 1558.97 599.169C1556.94 601.409 1555.93 604.395 1555.93 608.129C1555.93 611.915 1556.92 614.929 1558.89 617.169C1560.92 619.355 1563.64 620.449 1567.05 620.449ZM1623.19 623.969C1622.18 625.889 1620.63 627.355 1618.55 628.369C1616.47 629.329 1614.23 629.809 1611.83 629.809C1607.46 629.809 1603.96 628.369 1601.35 625.489C1598.74 622.555 1597.43 618.849 1597.43 614.369V590.129H1604.95V613.249C1604.95 616.129 1605.64 618.502 1607.03 620.369C1608.47 622.235 1610.68 623.169 1613.67 623.169C1616.66 623.169 1618.92 622.289 1620.47 620.529C1622.02 618.715 1622.79 616.315 1622.79 613.329V590.129H1630.31V621.489C1630.31 623.995 1630.44 626.369 1630.71 628.609H1623.51C1623.3 627.435 1623.19 625.889 1623.19 623.969ZM1641.74 618.289C1641.74 614.982 1642.81 612.342 1644.94 610.369C1647.07 608.342 1649.9 607.089 1653.42 606.609L1663.82 605.089C1665.79 604.822 1666.78 603.862 1666.78 602.209C1666.78 600.182 1666.09 598.529 1664.7 597.249C1663.31 595.969 1661.23 595.329 1658.46 595.329C1655.9 595.329 1653.87 596.049 1652.38 597.489C1650.89 598.875 1650.01 600.742 1649.74 603.089L1642.54 601.409C1642.91 597.729 1644.59 594.742 1647.58 592.449C1650.57 590.102 1654.14 588.929 1658.3 588.929C1663.74 588.929 1667.77 590.262 1670.38 592.929C1672.99 595.542 1674.3 598.902 1674.3 603.009V622.289C1674.3 624.582 1674.46 626.689 1674.78 628.609H1667.42C1667.15 627.009 1667.02 625.275 1667.02 623.409C1665.95 625.115 1664.38 626.609 1662.3 627.889C1660.27 629.169 1657.71 629.809 1654.62 629.809C1650.83 629.809 1647.74 628.689 1645.34 626.449C1642.94 624.155 1641.74 621.435 1641.74 618.289ZM1655.66 623.489C1659.02 623.489 1661.71 622.582 1663.74 620.769C1665.77 618.955 1666.78 616.075 1666.78 612.129V610.369L1655.02 612.129C1653.31 612.395 1651.95 613.009 1650.94 613.969C1649.93 614.929 1649.42 616.235 1649.42 617.889C1649.42 619.382 1649.98 620.689 1651.1 621.809C1652.27 622.929 1653.79 623.489 1655.66 623.489ZM1694.54 606.369V628.609H1687.02V590.129H1694.38V595.649C1696.94 591.222 1700.88 589.009 1706.22 589.009C1710.64 589.009 1714.03 590.422 1716.38 593.249C1718.78 596.075 1719.98 599.729 1719.98 604.209V628.609H1712.46V605.489C1712.46 599.035 1709.47 595.809 1703.5 595.809C1700.67 595.809 1698.46 596.822 1696.86 598.849C1695.31 600.822 1694.54 603.329 1694.54 606.369ZM1762.58 598.369H1773.94C1777.3 598.369 1779.96 597.515 1781.94 595.809C1783.91 594.049 1784.9 591.702 1784.9 588.769C1784.9 585.782 1783.91 583.409 1781.94 581.649C1779.96 579.835 1777.3 578.929 1773.94 578.929H1762.58V598.369ZM1775.38 605.409H1762.58V628.609H1754.74V571.889H1775.38C1780.55 571.889 1784.76 573.489 1788.02 576.689C1791.27 579.889 1792.9 583.889 1792.9 588.689C1792.9 593.542 1791.27 597.542 1788.02 600.689C1784.76 603.835 1780.55 605.409 1775.38 605.409ZM1804.35 605.409H1825.39C1825.28 602.529 1824.32 600.182 1822.51 598.369C1820.7 596.502 1818.14 595.569 1814.83 595.569C1811.84 595.569 1809.39 596.555 1807.47 598.529C1805.55 600.449 1804.51 602.742 1804.35 605.409ZM1826.51 615.409L1832.99 617.649C1831.87 621.222 1829.79 624.155 1826.75 626.449C1823.71 628.689 1820.03 629.809 1815.71 629.809C1810.32 629.809 1805.74 627.969 1801.95 624.289C1798.22 620.555 1796.35 615.542 1796.35 609.249C1796.35 603.382 1798.16 598.529 1801.79 594.689C1805.42 590.849 1809.74 588.929 1814.75 588.929C1820.56 588.929 1825.1 590.769 1828.35 594.449C1831.6 598.075 1833.23 602.955 1833.23 609.089C1833.23 610.049 1833.18 610.849 1833.07 611.489H1804.11C1804.16 614.902 1805.28 617.702 1807.47 619.889C1809.71 622.075 1812.46 623.169 1815.71 623.169C1821.2 623.169 1824.8 620.582 1826.51 615.409ZM1851.35 606.369V628.609H1843.83V590.129H1851.19V595.649C1853.75 591.222 1857.7 589.009 1863.03 589.009C1867.46 589.009 1870.84 590.422 1873.19 593.249C1875.59 596.075 1876.79 599.729 1876.79 604.209V628.609H1869.27V605.489C1869.27 599.035 1866.28 595.809 1860.31 595.809C1857.48 595.809 1855.27 596.822 1853.67 598.849C1852.12 600.822 1851.35 603.329 1851.35 606.369ZM1894.23 609.249C1894.23 613.302 1895.22 616.609 1897.19 619.169C1899.22 621.729 1901.99 623.009 1905.51 623.009C1908.87 623.009 1911.56 621.702 1913.59 619.089C1915.62 616.475 1916.63 613.142 1916.63 609.089C1916.63 605.089 1915.64 601.862 1913.67 599.409C1911.7 596.955 1909 595.729 1905.59 595.729C1902.18 595.729 1899.43 596.982 1897.35 599.489C1895.27 601.995 1894.23 605.249 1894.23 609.249ZM1916.71 623.409V622.769C1915.7 624.742 1914.15 626.395 1912.07 627.729C1910.04 629.009 1907.62 629.649 1904.79 629.649C1899.3 629.649 1894.87 627.729 1891.51 623.889C1888.2 619.995 1886.55 615.115 1886.55 609.249C1886.55 603.649 1888.26 598.902 1891.67 595.009C1895.08 591.062 1899.46 589.089 1904.79 589.089C1907.94 589.089 1910.5 589.729 1912.47 591.009C1914.44 592.235 1915.8 593.755 1916.55 595.569V570.689H1923.99V621.489C1923.99 624.102 1924.12 626.475 1924.39 628.609H1917.11C1916.84 627.115 1916.71 625.382 1916.71 623.409ZM1942.66 605.409H1963.7C1963.6 602.529 1962.64 600.182 1960.82 598.369C1959.01 596.502 1956.45 595.569 1953.14 595.569C1950.16 595.569 1947.7 596.555 1945.78 598.529C1943.86 600.449 1942.82 602.742 1942.66 605.409ZM1964.82 615.409L1971.3 617.649C1970.18 621.222 1968.1 624.155 1965.06 626.449C1962.02 628.689 1958.34 629.809 1954.02 629.809C1948.64 629.809 1944.05 627.969 1940.26 624.289C1936.53 620.555 1934.66 615.542 1934.66 609.249C1934.66 603.382 1936.48 598.529 1940.1 594.689C1943.73 590.849 1948.05 588.929 1953.06 588.929C1958.88 588.929 1963.41 590.769 1966.66 594.449C1969.92 598.075 1971.54 602.955 1971.54 609.089C1971.54 610.049 1971.49 610.849 1971.38 611.489H1942.42C1942.48 614.902 1943.6 617.702 1945.78 619.889C1948.02 622.075 1950.77 623.169 1954.02 623.169C1959.52 623.169 1963.12 620.582 1964.82 615.409ZM1989.66 606.369V628.609H1982.14V590.129H1989.5V595.649C1992.06 591.222 1996.01 589.009 2001.34 589.009C2005.77 589.009 2009.15 590.422 2011.5 593.249C2013.9 596.075 2015.1 599.729 2015.1 604.209V628.609H2007.58V605.489C2007.58 599.035 2004.59 595.809 1998.62 595.809C1995.79 595.809 1993.58 596.822 1991.98 598.849C1990.43 600.822 1989.66 603.329 1989.66 606.369ZM2025.26 630.689L2032.54 629.009C2032.81 631.729 2033.9 633.969 2035.82 635.729C2037.74 637.542 2040.14 638.449 2043.02 638.449C2050.86 638.449 2054.78 634.289 2054.78 625.969V620.449C2053.82 622.315 2052.3 623.835 2050.22 625.009C2048.2 626.182 2045.8 626.769 2043.02 626.769C2037.9 626.769 2033.66 625.035 2030.3 621.569C2027 618.049 2025.34 613.569 2025.34 608.129C2025.34 602.849 2027 598.422 2030.3 594.849C2033.61 591.222 2037.85 589.409 2043.02 589.409C2048.89 589.409 2052.84 591.435 2054.86 595.489V590.129H2062.3V625.729C2062.3 628.289 2061.96 630.662 2061.26 632.849C2060.62 635.089 2059.58 637.142 2058.14 639.009C2056.7 640.875 2054.68 642.342 2052.06 643.409C2049.5 644.475 2046.49 645.009 2043.02 645.009C2038.28 645.009 2034.25 643.649 2030.94 640.929C2027.64 638.262 2025.74 634.849 2025.26 630.689ZM2044.14 620.449C2047.4 620.449 2050.04 619.329 2052.06 617.089C2054.09 614.795 2055.1 611.809 2055.1 608.129C2055.1 604.449 2054.09 601.489 2052.06 599.249C2050.04 596.955 2047.4 595.809 2044.14 595.809C2040.84 595.809 2038.14 596.929 2036.06 599.169C2034.04 601.409 2033.02 604.395 2033.02 608.129C2033.02 611.915 2034.01 614.929 2035.98 617.169C2038.01 619.355 2040.73 620.449 2044.14 620.449ZM2072.52 618.289C2072.52 614.982 2073.59 612.342 2075.72 610.369C2077.86 608.342 2080.68 607.089 2084.2 606.609L2094.6 605.089C2096.58 604.822 2097.56 603.862 2097.56 602.209C2097.56 600.182 2096.87 598.529 2095.48 597.249C2094.1 595.969 2092.02 595.329 2089.24 595.329C2086.68 595.329 2084.66 596.049 2083.16 597.489C2081.67 598.875 2080.79 600.742 2080.52 603.089L2073.32 601.409C2073.7 597.729 2075.38 594.742 2078.36 592.449C2081.35 590.102 2084.92 588.929 2089.08 588.929C2094.52 588.929 2098.55 590.262 2101.16 592.929C2103.78 595.542 2105.08 598.902 2105.08 603.009V622.289C2105.08 624.582 2105.24 626.689 2105.56 628.609H2098.2C2097.94 627.009 2097.8 625.275 2097.8 623.409C2096.74 625.115 2095.16 626.609 2093.08 627.889C2091.06 629.169 2088.5 629.809 2085.4 629.809C2081.62 629.809 2078.52 628.689 2076.12 626.449C2073.72 624.155 2072.52 621.435 2072.52 618.289ZM2086.44 623.489C2089.8 623.489 2092.5 622.582 2094.52 620.769C2096.55 618.955 2097.56 616.075 2097.56 612.129V610.369L2085.8 612.129C2084.1 612.395 2082.74 613.009 2081.72 613.969C2080.71 614.929 2080.2 616.235 2080.2 617.889C2080.2 619.382 2080.76 620.689 2081.88 621.809C2083.06 622.929 2084.58 623.489 2086.44 623.489ZM2139.16 589.729V597.729C2138.04 597.569 2136.94 597.489 2135.88 597.489C2128.84 597.489 2125.32 601.435 2125.32 609.329V628.609H2117.8V590.129H2125.16V596.849C2127.5 591.942 2131.34 589.489 2136.68 589.489C2137.53 589.489 2138.36 589.569 2139.16 589.729ZM2145.77 618.289C2145.77 614.982 2146.84 612.342 2148.97 610.369C2151.11 608.342 2153.93 607.089 2157.45 606.609L2167.85 605.089C2169.83 604.822 2170.81 603.862 2170.81 602.209C2170.81 600.182 2170.12 598.529 2168.73 597.249C2167.35 595.969 2165.27 595.329 2162.49 595.329C2159.93 595.329 2157.91 596.049 2156.41 597.489C2154.92 598.875 2154.04 600.742 2153.77 603.089L2146.57 601.409C2146.95 597.729 2148.63 594.742 2151.61 592.449C2154.6 590.102 2158.17 588.929 2162.33 588.929C2167.77 588.929 2171.8 590.262 2174.41 592.929C2177.03 595.542 2178.33 598.902 2178.33 603.009V622.289C2178.33 624.582 2178.49 626.689 2178.81 628.609H2171.45C2171.19 627.009 2171.05 625.275 2171.05 623.409C2169.99 625.115 2168.41 626.609 2166.33 627.889C2164.31 629.169 2161.75 629.809 2158.65 629.809C2154.87 629.809 2151.77 628.689 2149.37 626.449C2146.97 624.155 2145.77 621.435 2145.77 618.289ZM2159.69 623.489C2163.05 623.489 2165.75 622.582 2167.77 620.769C2169.8 618.955 2170.81 616.075 2170.81 612.129V610.369L2159.05 612.129C2157.35 612.395 2155.99 613.009 2154.97 613.969C2153.96 614.929 2153.45 616.235 2153.45 617.889C2153.45 619.382 2154.01 620.689 2155.13 621.809C2156.31 622.929 2157.83 623.489 2159.69 623.489ZM2198.57 606.369V628.609H2191.05V590.129H2198.41V595.649C2200.97 591.222 2204.91 589.009 2210.25 589.009C2214.67 589.009 2218.06 590.422 2220.41 593.249C2222.81 596.075 2224.01 599.729 2224.01 604.209V628.609H2216.49V605.489C2216.49 599.035 2213.5 595.809 2207.53 595.809C2204.7 595.809 2202.49 596.822 2200.89 598.849C2199.34 600.822 2198.57 603.329 2198.57 606.369Z" fill="#3E3E4A"/>
</g>
<defs>
<clipPath id="clip0_3936_1259">
<rect width="2400" height="1000" fill="white"/>
</clipPath>
</defs>
</svg>
