<svg width="2400" height="1001" viewBox="0 0 2400 1001" fill="none" xmlns="http://www.w3.org/2000/svg">
<g clip-path="url(#clip0_3936_1338)">
<path d="M296.198 338.838C231.996 338.756 181.548 380.322 173.132 435.908C167.109 475.63 181.163 508.014 213.585 532.937C226.229 542.652 239.898 551.179 252.841 560.525C259.718 565.485 266.425 570.773 272.576 576.512C280.692 584.055 284.579 593.442 284.708 604.551C285.092 634.845 309.526 658.989 342.033 660.629C373.899 662.228 399.23 639.518 403.416 612.34C403.886 609.388 404.142 606.355 404.1 603.362C404.057 594.877 397.222 588.4 388.594 588.359C380.136 588.318 373.429 594.713 373.088 603.075C372.49 617.341 363.391 627.794 349.337 630.376C332.977 633.369 316.189 621.071 316.147 605.043C316.061 582.907 306.835 564.911 289.834 550.728C278.984 541.669 267.066 533.757 255.404 525.64C242.974 516.991 230.202 508.793 220.163 497.438C201.795 476.654 199.232 452.92 207.22 427.75C218.967 390.816 256.216 366.507 296.284 369.008C338.487 371.673 372.959 403.401 377.402 443.778C377.701 446.566 377.872 449.353 377.957 452.141C378.128 461.364 384.706 467.759 393.933 467.677C402.818 467.554 409.396 460.913 409.226 451.813C408.884 431.44 403.758 412.214 392.566 394.792C369.115 358.514 334.728 340.354 296.198 338.838Z" fill="#5DC19F"/>
<path d="M336.776 440.462C335.409 440.831 334.213 441.118 333.06 441.405C306.917 448.333 289.233 471.74 290.643 497.647C292.009 523.267 311.83 544.788 338.271 549.257C341.347 549.789 344.508 549.994 347.626 550.035C354.034 550.117 358.476 546.018 358.519 540.238C358.604 534.458 354.247 530.4 347.84 530.195C331.736 529.703 318.237 520.275 313.282 506.009C305.422 483.423 322.167 460.631 347.583 459.36C355.101 458.991 358.69 455.22 358.562 448.005C357.878 415.334 330.924 387.418 297.99 384.426C261.168 381.064 229.815 404.963 223.578 437.593C222.809 441.569 222.553 445.709 222.553 449.768C222.553 455.22 226.782 459.114 232.249 459.319C238.016 459.524 242.33 455.999 243.057 450.424C243.612 446.16 243.74 441.815 244.851 437.716C250.19 417.753 270.053 403.405 291.283 403.979C313.581 404.553 332.505 419.597 336.776 440.462Z" fill="white" fill-opacity="0.5"/>
<path d="M383.93 552.74C387.176 552.74 389.825 550.198 389.825 547.083V501.335C389.825 498.22 387.176 495.678 383.93 495.678C380.684 495.678 378.035 498.22 378.035 501.335V547.083C378.035 550.198 380.684 552.74 383.93 552.74Z" fill="#5DC19F"/>
<path d="M403.88 540.931C407.127 540.931 409.775 538.39 409.775 535.274V509.08C409.775 505.964 407.127 503.423 403.88 503.423C400.634 503.423 397.985 505.964 397.985 509.08V535.274C397.985 538.39 400.634 540.931 403.88 540.931Z" fill="#5DC19F"/>
<path d="M423.829 582.702C427.076 582.702 429.724 580.16 429.724 577.045V474.235C429.724 471.12 427.076 468.578 423.829 468.578C420.583 468.578 417.935 471.12 417.935 474.235V577.045C417.935 580.16 420.583 582.702 423.829 582.702Z" fill="#5DC19F"/>
<path d="M443.78 558.803C447.026 558.803 449.674 556.262 449.674 553.146V445.418C449.674 442.303 447.026 439.761 443.78 439.761C440.533 439.761 437.885 442.303 437.885 445.418V553.146C437.885 556.262 440.533 558.803 443.78 558.803Z" fill="#5DC19F"/>
<path d="M463.729 607.254C466.975 607.254 469.624 604.712 469.624 601.597V495.262C469.624 492.147 466.975 489.605 463.729 489.605C460.482 489.605 457.834 492.147 457.834 495.262V601.597C457.834 604.712 460.482 607.254 463.729 607.254Z" fill="#5DC19F"/>
<path d="M483.661 587.093C486.908 587.093 489.556 584.551 489.556 581.436V464.812C489.556 461.697 486.908 459.155 483.661 459.155C480.415 459.155 477.767 461.697 477.767 464.812V581.436C477.767 584.551 480.415 587.093 483.661 587.093Z" fill="#5DC19F"/>
<path d="M503.663 540.932C506.91 540.932 509.558 538.39 509.558 535.275V504.94C509.558 501.825 506.91 499.283 503.663 499.283C500.417 499.283 497.769 501.825 497.769 504.94V535.275C497.769 538.39 500.374 540.932 503.663 540.932Z" fill="#5DC19F"/>
<path d="M523.614 552.74C526.86 552.74 529.508 550.198 529.508 547.083V501.335C529.508 498.22 526.86 495.678 523.614 495.678C520.367 495.678 517.719 498.22 517.719 501.335V547.083C517.719 550.198 520.324 552.74 523.614 552.74Z" fill="#5DC19F"/>
<path d="M543.563 540.931C546.809 540.931 549.458 538.39 549.458 535.274V509.08C549.458 505.964 546.809 503.423 543.563 503.423C540.316 503.423 537.668 505.964 537.668 509.08V535.274C537.668 538.39 540.274 540.931 543.563 540.931Z" fill="#5DC19F"/>
<path d="M563.513 582.702C566.759 582.702 569.408 580.16 569.408 577.045V474.235C569.408 471.12 566.759 468.578 563.513 468.578C560.267 468.578 557.618 471.12 557.618 474.235V577.045C557.618 580.16 560.224 582.702 563.513 582.702Z" fill="#5DC19F"/>
<path d="M583.446 558.803C586.692 558.803 589.34 556.262 589.34 553.146V445.418C589.34 442.303 586.692 439.761 583.446 439.761C580.199 439.761 577.551 442.303 577.551 445.418V553.146C577.551 556.262 580.156 558.803 583.446 558.803Z" fill="#5DC19F"/>
<path d="M603.412 607.254C606.659 607.254 609.307 604.712 609.307 601.597V495.262C609.307 492.147 606.659 489.605 603.412 489.605C600.166 489.605 597.518 492.147 597.518 495.262V601.597C597.518 604.712 600.166 607.254 603.412 607.254Z" fill="#5DC19F"/>
<path d="M623.363 587.093C626.609 587.093 629.257 584.551 629.257 581.436V464.812C629.257 461.697 626.609 459.155 623.363 459.155C620.116 459.155 617.468 461.697 617.468 464.812V581.436C617.468 584.551 620.116 587.093 623.363 587.093Z" fill="#5DC19F"/>
<path d="M643.312 540.932C646.558 540.932 649.207 538.39 649.207 535.275V504.94C649.207 501.825 646.558 499.283 643.312 499.283C640.065 499.283 637.417 501.825 637.417 504.94V535.275C637.417 538.39 640.065 540.932 643.312 540.932Z" fill="#5DC19F"/>
<path d="M663.262 552.74C666.509 552.74 669.157 550.198 669.157 547.083V501.335C669.157 498.22 666.509 495.678 663.262 495.678C660.016 495.678 657.367 498.22 657.367 501.335V547.083C657.367 550.198 660.016 552.74 663.262 552.74Z" fill="#5DC19F"/>
<path d="M847.823 396.576H805.961V510.372H777.853V396.576H735.82V372.555H847.823V396.576Z" fill="white" fill-opacity="0.5"/>
<path d="M917.535 501.926C913.434 505.041 907.881 507.747 900.79 509.878C893.785 512.01 886.267 513.158 878.321 513.158C861.747 513.158 849.701 508.567 842.012 499.302C834.323 490.038 830.564 477.33 830.564 461.179C830.564 443.88 834.836 430.845 843.465 422.236C852.093 413.546 864.225 409.283 879.774 409.283C884.985 409.283 890.026 409.939 894.981 411.25C899.936 412.562 904.293 414.694 908.137 417.727C911.982 420.761 915.057 424.778 917.364 429.943C919.671 435.026 920.867 441.421 920.867 449.046C920.867 451.833 920.696 454.784 920.354 457.9C920.012 461.015 919.5 464.295 918.816 467.738H857.476C857.903 476.019 860.124 482.249 864.139 486.431C868.155 490.612 874.648 492.744 883.704 492.744C889.257 492.744 894.297 491.924 898.74 490.284C903.182 488.644 906.514 487.005 908.821 485.283L917.535 501.926ZM879.517 429.697C872.597 429.697 867.471 431.665 864.139 435.682C860.808 439.699 858.843 445.028 858.159 451.751H896.091C896.604 444.7 895.493 439.207 892.759 435.436C889.855 431.583 885.498 429.697 879.517 429.697Z" fill="white" fill-opacity="0.5"/>
<path d="M967.17 477.332C967.17 481.923 967.768 485.284 969.049 487.416C970.245 489.547 972.296 490.531 975.029 490.531C976.653 490.531 978.276 490.367 979.814 490.121C981.351 489.875 983.316 489.301 985.623 488.318L988.528 508.404C986.307 509.47 982.975 510.536 978.447 511.519C973.919 512.585 969.305 513.077 964.521 513.077C956.747 513.077 950.767 511.355 946.666 507.83C942.565 504.387 940.515 498.648 940.515 490.613V372.555H967.17V477.332Z" fill="white" fill-opacity="0.5"/>
<path d="M998.341 384.199C998.341 380.427 999.793 377.148 1002.78 374.442C1005.77 371.737 1009.79 370.425 1015 370.425C1020.21 370.425 1024.4 371.737 1027.64 374.442C1030.89 377.148 1032.43 380.345 1032.43 384.199C1032.43 387.97 1030.81 391.167 1027.64 393.791C1024.4 396.332 1020.21 397.644 1015 397.644C1009.79 397.644 1005.77 396.332 1002.78 393.791C999.879 391.167 998.341 387.97 998.341 384.199ZM1002.27 411.992H1028.93V510.456H1002.27V411.992Z" fill="white" fill-opacity="0.5"/>
<path d="M1117.97 510.377V454.464C1117.97 446.429 1116.77 440.69 1114.38 437.165C1111.99 433.639 1107.89 431.836 1102.16 431.836C1097.12 431.836 1092.85 433.23 1089.35 436.099C1085.84 438.968 1083.37 442.412 1081.83 446.593V510.377H1055.17V411.913H1076.28L1079.35 424.867H1080.21C1083.37 420.686 1087.55 416.996 1092.68 413.881C1097.89 410.766 1104.55 409.126 1112.76 409.126C1117.8 409.126 1122.32 409.782 1126.25 411.094C1130.18 412.405 1133.6 414.537 1136.33 417.57C1139.07 420.604 1141.12 424.703 1142.49 429.868C1143.85 435.033 1144.54 441.428 1144.54 449.053V510.296H1117.97V510.377Z" fill="white" fill-opacity="0.5"/>
<path d="M1253.79 510.377C1253.79 524.643 1249.78 535.219 1241.66 541.942C1233.63 548.664 1222.27 552.108 1207.83 552.108C1198 552.108 1190.23 551.452 1184.51 550.14C1178.87 548.828 1174.6 547.435 1171.69 546.041L1177.24 525.791C1180.41 526.938 1184.08 528.168 1188.26 529.316C1192.45 530.464 1197.58 531.119 1203.73 531.119C1213.04 531.119 1219.36 529.152 1222.69 525.298C1226.03 521.445 1227.73 516.034 1227.73 509.065V502.753H1226.88C1222.1 508.901 1213.64 512.017 1201.42 512.017C1188.18 512.017 1178.27 508.082 1171.78 500.211C1165.28 492.341 1162.04 479.961 1162.04 463.154C1162.04 445.527 1166.39 432.246 1175.19 423.145C1183.91 414.127 1196.64 409.536 1213.38 409.536C1222.1 409.536 1229.96 410.11 1236.88 411.339C1243.8 412.487 1249.43 413.881 1253.79 415.439V510.377ZM1208.68 491.521C1213.89 491.521 1217.91 490.373 1220.64 488.159C1223.46 485.946 1225.6 482.584 1227.14 478.157V433.885C1222.87 432.164 1217.65 431.344 1211.33 431.344C1204.5 431.344 1199.11 433.803 1195.36 438.722C1191.51 443.641 1189.63 451.512 1189.63 462.252C1189.63 471.844 1191.26 479.141 1194.59 484.142C1197.92 489.143 1202.53 491.521 1208.68 491.521Z" fill="white" fill-opacity="0.5"/>
<path d="M1276.36 417.649C1281.83 415.271 1288.32 413.385 1295.84 412.074C1303.36 410.68 1311.22 410.024 1319.42 410.024C1326.51 410.024 1332.49 410.844 1337.27 412.484C1342.06 414.123 1345.82 416.419 1348.63 419.452C1351.45 422.486 1353.42 426.093 1354.61 430.274C1355.81 434.455 1356.32 439.211 1356.32 444.458C1356.32 450.197 1356.15 456.018 1355.73 461.92C1355.3 467.741 1355.04 473.48 1355.04 479.137C1354.96 484.794 1355.13 490.287 1355.55 495.616C1355.98 500.945 1357.01 505.946 1358.63 510.702H1336.85L1332.57 497.092H1331.55C1328.81 501.191 1325.06 504.635 1320.19 507.586C1315.32 510.538 1309.08 512.013 1301.39 512.013C1296.61 512.013 1292.33 511.357 1288.49 509.964C1284.65 508.57 1281.4 506.602 1278.67 504.061C1275.93 501.519 1273.8 498.486 1272.34 495.043C1270.81 491.599 1270.12 487.664 1270.12 483.319C1270.12 477.252 1271.49 472.169 1274.31 468.069C1277.13 463.97 1281.14 460.609 1286.44 458.067C1291.74 455.526 1297.97 453.722 1305.32 452.738C1312.67 451.754 1320.78 451.426 1329.84 451.836C1330.78 444.458 1330.27 439.211 1328.22 436.013C1326.17 432.816 1321.55 431.176 1314.46 431.176C1309.16 431.176 1303.53 431.668 1297.55 432.734C1291.57 433.8 1286.7 435.193 1282.85 436.833L1276.36 417.649ZM1310.28 490.943C1315.57 490.943 1319.84 489.795 1323 487.5C1326.17 485.204 1328.47 482.745 1330.01 480.121V467.332C1325.74 466.922 1321.72 466.84 1317.79 467.168C1313.86 467.413 1310.45 467.987 1307.46 468.971C1304.47 469.955 1302.07 471.185 1300.28 472.906C1298.49 474.628 1297.63 476.76 1297.63 479.383C1297.63 483.073 1298.74 485.942 1301.05 487.91C1303.36 489.877 1306.26 490.943 1310.28 490.943Z" fill="white" fill-opacity="0.5"/>
<path d="M1466.78 451.51H1459.43V510.375H1431.32V372.559H1459.43V433.555L1466.01 430.768L1505.57 372.476H1537.6L1495.74 430.358L1484.63 437.819L1496.08 445.525L1543.92 510.293H1509.24L1466.78 451.51Z" fill="#5DC19F"/>
<path d="M1630.04 501.926C1625.94 505.041 1620.39 507.747 1613.3 509.878C1606.29 512.01 1598.77 513.158 1590.83 513.158C1574.25 513.158 1562.21 508.567 1554.52 499.302C1546.83 490.038 1543.07 477.33 1543.07 461.179C1543.07 443.88 1547.34 430.845 1555.97 422.236C1564.6 413.546 1576.73 409.283 1592.28 409.283C1597.49 409.283 1602.53 409.939 1607.49 411.25C1612.44 412.562 1616.8 414.694 1620.64 417.727C1624.49 420.761 1627.56 424.778 1629.87 429.943C1632.18 435.026 1633.37 441.421 1633.37 449.046C1633.37 451.833 1633.2 454.784 1632.86 457.9C1632.52 461.015 1632.01 464.295 1631.32 467.738H1569.98C1570.41 476.019 1572.63 482.249 1576.65 486.431C1580.66 490.612 1587.15 492.744 1596.21 492.744C1601.76 492.744 1606.8 491.924 1611.25 490.284C1615.69 488.644 1619.02 487.005 1621.33 485.283L1630.04 501.926ZM1592.02 429.697C1585.1 429.697 1579.98 431.665 1576.65 435.682C1573.31 439.699 1571.35 445.028 1570.67 451.751H1608.6C1609.11 444.7 1608 439.207 1605.27 435.436C1602.36 431.583 1598 429.697 1592.02 429.697Z" fill="#5DC19F"/>
<path d="M1723.85 504.307C1719.75 507.176 1714.79 509.39 1708.98 510.866C1703.17 512.341 1697.19 513.161 1691.04 513.161C1682.84 513.161 1675.92 511.932 1670.19 509.39C1664.56 506.931 1659.86 503.405 1656.35 498.896C1652.77 494.387 1650.2 488.894 1648.67 482.417C1647.13 476.022 1646.27 468.889 1646.27 461.183C1646.27 444.54 1650.2 431.668 1657.98 422.732C1665.75 413.713 1677.11 409.204 1692.07 409.204C1699.58 409.204 1705.65 409.778 1710.18 411.008C1714.79 412.156 1718.89 413.713 1722.56 415.517L1716.24 436.423C1713.08 434.948 1710.01 433.882 1706.93 433.062C1703.86 432.242 1700.35 431.914 1696.34 431.914C1688.99 431.914 1683.35 434.21 1679.51 438.883C1675.66 443.556 1673.78 451.017 1673.78 461.265C1673.78 465.446 1674.3 469.299 1675.24 472.907C1676.17 476.432 1677.63 479.547 1679.51 482.171C1681.39 484.794 1683.95 486.844 1687.02 488.402C1690.1 489.878 1693.69 490.697 1697.79 490.697C1702.32 490.697 1706.16 490.123 1709.24 489.058C1712.4 487.91 1715.22 486.598 1717.61 485.041L1723.85 504.307Z" fill="#5DC19F"/>
<path d="M1738.37 384.199C1738.37 380.427 1739.82 377.148 1742.81 374.442C1745.8 371.737 1749.81 370.425 1755.03 370.425C1760.24 370.425 1764.42 371.737 1767.67 374.442C1770.92 377.148 1772.45 380.345 1772.45 384.199C1772.45 387.97 1770.83 391.167 1767.67 393.791C1764.42 396.332 1760.24 397.644 1755.03 397.644C1749.81 397.644 1745.8 396.332 1742.81 393.791C1739.9 391.167 1738.37 387.97 1738.37 384.199ZM1742.3 411.992H1768.95V510.456H1742.3V411.992Z" fill="#5DC19F"/>
<path d="M1822.69 477.332C1822.69 481.923 1823.29 485.284 1824.57 487.416C1825.77 489.547 1827.82 490.531 1830.55 490.531C1832.17 490.531 1833.8 490.367 1835.34 490.121C1836.87 489.875 1838.84 489.301 1841.14 488.318L1844.05 508.404C1841.83 509.47 1838.5 510.536 1833.97 511.519C1829.44 512.585 1824.83 513.077 1820.04 513.077C1812.27 513.077 1806.29 511.355 1802.19 507.83C1798.09 504.387 1796.04 498.648 1796.04 490.613V372.555H1822.69V477.332Z" fill="#5DC19F"/>
<path d="M1889.42 469.625H1882.24V510.372H1855.59V372.555H1882.24V453.884L1888.4 451.097L1911.8 411.908H1941.11L1916.5 449.293L1906.08 456.753L1917.36 464.46L1945.04 510.372H1914.45L1889.42 469.625Z" fill="#5DC19F"/>
<path d="M1981.94 411.991V467.905C1981.94 475.94 1982.97 481.679 1984.93 485.204C1986.9 488.729 1990.74 490.533 1996.55 490.533C2001.59 490.533 2005.78 489.057 2009.2 486.188C2012.53 483.318 2015.01 479.793 2016.72 475.53V411.909H2043.37V480.449C2043.37 485.86 2043.63 491.107 2044.22 496.272C2044.74 501.437 2045.59 506.192 2046.7 510.373H2026.63L2021.93 495.78H2021.07C2017.91 500.781 2013.55 504.88 2007.92 508.16C2002.28 511.439 1995.7 513.079 1988.01 513.079C1982.8 513.079 1978.19 512.423 1974.08 511.111C1969.98 509.799 1966.57 507.668 1963.83 504.634C1961.1 501.601 1959.05 497.584 1957.6 492.419C1956.14 487.336 1955.46 480.859 1955.46 473.152V411.909H1981.94V411.991Z" fill="#5DC19F"/>
<path d="M782.55 629.108L776.39 613.268H751.27L745.27 629.108H736.87L759.43 572.388H768.47L791.03 629.108H782.55ZM763.75 580.548L754.07 605.988H773.59L763.75 580.548ZM806.301 644.308H798.861V590.628H806.141V596.628C807.261 594.601 808.941 592.948 811.181 591.668C813.421 590.388 816.034 589.748 819.021 589.748C824.568 589.748 828.888 591.641 831.981 595.428C835.128 599.214 836.701 604.014 836.701 609.828C836.701 615.694 835.074 620.548 831.821 624.388C828.621 628.228 824.274 630.148 818.781 630.148C815.954 630.148 813.448 629.561 811.261 628.388C809.074 627.214 807.421 625.721 806.301 623.908V644.308ZM829.021 609.828C829.021 605.934 827.981 602.734 825.901 600.228C823.874 597.668 821.128 596.388 817.661 596.388C814.248 596.388 811.474 597.668 809.341 600.228C807.261 602.734 806.221 605.934 806.221 609.828C806.221 613.828 807.261 617.108 809.341 619.668C811.474 622.174 814.248 623.428 817.661 623.428C821.074 623.428 823.821 622.174 825.901 619.668C827.981 617.108 829.021 613.828 829.021 609.828ZM854.803 629.108H847.283V571.188H854.803V629.108ZM876.035 629.108H868.595V590.628H876.035V629.108ZM868.435 579.908C867.422 578.841 866.915 577.561 866.915 576.068C866.915 574.574 867.422 573.294 868.435 572.228C869.502 571.161 870.782 570.628 872.275 570.628C873.769 570.628 875.049 571.161 876.115 572.228C877.182 573.241 877.715 574.521 877.715 576.068C877.715 577.561 877.182 578.841 876.115 579.908C875.049 580.921 873.769 581.428 872.275 581.428C870.782 581.428 869.502 580.921 868.435 579.908ZM924.31 590.628L907.91 606.868L924.63 629.108H915.19L902.63 612.148L897.27 617.508V629.108H889.83V571.188H897.27V607.668L913.91 590.628H924.31ZM929.289 618.788C929.289 615.481 930.356 612.841 932.489 610.868C934.622 608.841 937.449 607.588 940.969 607.108L951.369 605.588C953.342 605.321 954.329 604.361 954.329 602.708C954.329 600.681 953.636 599.028 952.249 597.748C950.862 596.468 948.782 595.828 946.009 595.828C943.449 595.828 941.422 596.548 939.929 597.988C938.436 599.374 937.556 601.241 937.289 603.588L930.089 601.908C930.462 598.228 932.142 595.241 935.129 592.948C938.116 590.601 941.689 589.428 945.849 589.428C951.289 589.428 955.316 590.761 957.929 593.428C960.542 596.041 961.849 599.401 961.849 603.508V622.788C961.849 625.081 962.009 627.188 962.329 629.108H954.969C954.702 627.508 954.569 625.774 954.569 623.908C953.502 625.614 951.929 627.108 949.849 628.388C947.822 629.668 945.262 630.308 942.169 630.308C938.382 630.308 935.289 629.188 932.889 626.948C930.489 624.654 929.289 621.934 929.289 618.788ZM943.209 623.988C946.569 623.988 949.262 623.081 951.289 621.268C953.316 619.454 954.329 616.574 954.329 612.628V610.868L942.569 612.628C940.862 612.894 939.502 613.508 938.489 614.468C937.476 615.428 936.969 616.734 936.969 618.388C936.969 619.881 937.529 621.188 938.649 622.308C939.822 623.428 941.342 623.988 943.209 623.988ZM970.964 619.108L977.764 616.708C978.031 618.788 978.937 620.521 980.484 621.908C982.031 623.241 984.111 623.908 986.724 623.908C988.751 623.908 990.351 623.428 991.524 622.468C992.697 621.454 993.284 620.228 993.284 618.788C993.284 616.228 991.631 614.574 988.324 613.828L981.764 612.388C978.777 611.748 976.431 610.468 974.724 608.548C973.017 606.628 972.164 604.308 972.164 601.588C972.164 598.281 973.497 595.428 976.164 593.028C978.884 590.628 982.111 589.428 985.844 589.428C988.297 589.428 990.484 589.801 992.404 590.548C994.324 591.241 995.817 592.174 996.884 593.348C997.951 594.521 998.751 595.614 999.284 596.628C999.817 597.641 1000.22 598.681 1000.48 599.748L993.844 602.228C993.737 601.588 993.551 600.974 993.284 600.388C993.017 599.748 992.591 599.054 992.004 598.308C991.471 597.561 990.671 596.974 989.604 596.548C988.537 596.068 987.284 595.828 985.844 595.828C983.977 595.828 982.431 596.334 981.204 597.348C980.031 598.361 979.444 599.561 979.444 600.948C979.444 603.401 980.911 604.948 983.844 605.588L990.084 606.948C993.497 607.694 996.111 609.081 997.924 611.108C999.791 613.081 1000.72 615.508 1000.72 618.388C1000.72 621.428 999.471 624.174 996.964 626.628C994.511 629.081 991.071 630.308 986.644 630.308C981.897 630.308 978.191 629.134 975.524 626.788C972.857 624.388 971.337 621.828 970.964 619.108ZM1019.18 629.108H1011.74V590.628H1019.18V629.108ZM1011.58 579.908C1010.56 578.841 1010.06 577.561 1010.06 576.068C1010.06 574.574 1010.56 573.294 1011.58 572.228C1012.64 571.161 1013.92 570.628 1015.42 570.628C1016.91 570.628 1018.19 571.161 1019.26 572.228C1020.32 573.241 1020.86 574.521 1020.86 576.068C1020.86 577.561 1020.32 578.841 1019.26 579.908C1018.19 580.921 1016.91 581.428 1015.42 581.428C1013.92 581.428 1012.64 580.921 1011.58 579.908ZM1062.61 622.148H1074.21C1079.76 622.148 1084.34 620.308 1087.97 616.628C1091.65 612.948 1093.49 607.694 1093.49 600.868C1093.49 593.988 1091.68 588.681 1088.05 584.948C1084.48 581.214 1079.92 579.348 1074.37 579.348H1062.61V622.148ZM1074.45 629.108H1054.77V572.388H1074.61C1082.24 572.388 1088.64 574.921 1093.81 579.988C1098.98 585.001 1101.57 591.961 1101.57 600.868C1101.57 609.721 1098.96 616.654 1093.73 621.668C1088.5 626.628 1082.08 629.108 1074.45 629.108ZM1117.43 605.908H1138.47C1138.36 603.028 1137.4 600.681 1135.59 598.868C1133.78 597.001 1131.22 596.068 1127.91 596.068C1124.92 596.068 1122.47 597.054 1120.55 599.028C1118.63 600.948 1117.59 603.241 1117.43 605.908ZM1139.59 615.908L1146.07 618.148C1144.95 621.721 1142.87 624.654 1139.83 626.948C1136.79 629.188 1133.11 630.308 1128.79 630.308C1123.4 630.308 1118.82 628.468 1115.03 624.788C1111.3 621.054 1109.43 616.041 1109.43 609.748C1109.43 603.881 1111.24 599.028 1114.87 595.188C1118.5 591.348 1122.82 589.428 1127.83 589.428C1133.64 589.428 1138.18 591.268 1141.43 594.948C1144.68 598.574 1146.31 603.454 1146.31 609.588C1146.31 610.548 1146.26 611.348 1146.15 611.988H1117.19C1117.24 615.401 1118.36 618.201 1120.55 620.388C1122.79 622.574 1125.54 623.668 1128.79 623.668C1134.28 623.668 1137.88 621.081 1139.59 615.908ZM1166.99 578.468V590.628H1175.31V597.428H1166.99V617.428C1166.99 619.241 1167.39 620.574 1168.19 621.428C1169.04 622.281 1170.43 622.708 1172.35 622.708C1173.47 622.708 1174.45 622.601 1175.31 622.388V628.788C1174.03 629.268 1172.32 629.508 1170.19 629.508C1166.88 629.508 1164.27 628.548 1162.35 626.628C1160.43 624.708 1159.47 622.014 1159.47 618.548V597.428H1152.11V590.628H1154.19C1156.16 590.628 1157.63 590.094 1158.59 589.028C1159.6 587.908 1160.11 586.468 1160.11 584.708V578.468H1166.99ZM1190.83 605.908H1211.87C1211.77 603.028 1210.81 600.681 1208.99 598.868C1207.18 597.001 1204.62 596.068 1201.31 596.068C1198.33 596.068 1195.87 597.054 1193.95 599.028C1192.03 600.948 1190.99 603.241 1190.83 605.908ZM1212.99 615.908L1219.47 618.148C1218.35 621.721 1216.27 624.654 1213.23 626.948C1210.19 629.188 1206.51 630.308 1202.19 630.308C1196.81 630.308 1192.22 628.468 1188.43 624.788C1184.7 621.054 1182.83 616.041 1182.83 609.748C1182.83 603.881 1184.65 599.028 1188.27 595.188C1191.9 591.348 1196.22 589.428 1201.23 589.428C1207.05 589.428 1211.58 591.268 1214.83 594.948C1218.09 598.574 1219.71 603.454 1219.71 609.588C1219.71 610.548 1219.66 611.348 1219.55 611.988H1190.59C1190.65 615.401 1191.77 618.201 1193.95 620.388C1196.19 622.574 1198.94 623.668 1202.19 623.668C1207.69 623.668 1211.29 621.081 1212.99 615.908ZM1264.79 590.628L1248.39 606.868L1265.11 629.108H1255.67L1243.11 612.148L1237.75 617.508V629.108H1230.31V571.188H1237.75V607.668L1254.39 590.628H1264.79ZM1269.75 619.108L1276.55 616.708C1276.81 618.788 1277.72 620.521 1279.27 621.908C1280.81 623.241 1282.89 623.908 1285.51 623.908C1287.53 623.908 1289.13 623.428 1290.31 622.468C1291.48 621.454 1292.07 620.228 1292.07 618.788C1292.07 616.228 1290.41 614.574 1287.11 613.828L1280.55 612.388C1277.56 611.748 1275.21 610.468 1273.51 608.548C1271.8 606.628 1270.95 604.308 1270.95 601.588C1270.95 598.281 1272.28 595.428 1274.95 593.028C1277.67 590.628 1280.89 589.428 1284.63 589.428C1287.08 589.428 1289.27 589.801 1291.19 590.548C1293.11 591.241 1294.6 592.174 1295.67 593.348C1296.73 594.521 1297.53 595.614 1298.07 596.628C1298.6 597.641 1299 598.681 1299.27 599.748L1292.63 602.228C1292.52 601.588 1292.33 600.974 1292.07 600.388C1291.8 599.748 1291.37 599.054 1290.79 598.308C1290.25 597.561 1289.45 596.974 1288.39 596.548C1287.32 596.068 1286.07 595.828 1284.63 595.828C1282.76 595.828 1281.21 596.334 1279.99 597.348C1278.81 598.361 1278.23 599.561 1278.23 600.948C1278.23 603.401 1279.69 604.948 1282.63 605.588L1288.87 606.948C1292.28 607.694 1294.89 609.081 1296.71 611.108C1298.57 613.081 1299.51 615.508 1299.51 618.388C1299.51 621.428 1298.25 624.174 1295.75 626.628C1293.29 629.081 1289.85 630.308 1285.43 630.308C1280.68 630.308 1276.97 629.134 1274.31 626.788C1271.64 624.388 1270.12 621.828 1269.75 619.108ZM1317.96 629.108H1310.52V590.628H1317.96V629.108ZM1310.36 579.908C1309.34 578.841 1308.84 577.561 1308.84 576.068C1308.84 574.574 1309.34 573.294 1310.36 572.228C1311.42 571.161 1312.7 570.628 1314.2 570.628C1315.69 570.628 1316.97 571.161 1318.04 572.228C1319.1 573.241 1319.64 574.521 1319.64 576.068C1319.64 577.561 1319.1 578.841 1318.04 579.908C1316.97 580.921 1315.69 581.428 1314.2 581.428C1312.7 581.428 1311.42 580.921 1310.36 579.908ZM1402.67 629.108H1396.35L1395.63 621.108C1394.24 623.614 1391.98 625.774 1388.83 627.588C1385.68 629.401 1381.9 630.308 1377.47 630.308C1372.62 630.308 1368.14 629.214 1364.03 627.028C1359.92 624.788 1356.54 621.374 1353.87 616.788C1351.26 612.201 1349.95 606.841 1349.95 600.708C1349.95 594.574 1351.34 589.214 1354.11 584.628C1356.88 580.041 1360.35 576.654 1364.51 574.468C1368.72 572.281 1373.23 571.188 1378.03 571.188C1384.11 571.188 1389.39 572.761 1393.87 575.908C1398.4 579.001 1401.5 583.134 1403.15 588.308L1396.03 591.348C1394.75 587.241 1392.51 584.068 1389.31 581.828C1386.16 579.534 1382.4 578.388 1378.03 578.388C1372.54 578.388 1367.82 580.334 1363.87 584.228C1359.92 588.121 1357.95 593.614 1357.95 600.708C1357.95 607.854 1359.87 613.401 1363.71 617.348C1367.6 621.241 1372.27 623.188 1377.71 623.188C1380.7 623.188 1383.34 622.708 1385.63 621.748C1387.98 620.788 1389.79 619.534 1391.07 617.988C1392.4 616.388 1393.39 614.788 1394.03 613.188C1394.72 611.588 1395.12 609.988 1395.23 608.388H1375.55V601.348H1402.67V629.108ZM1412.52 618.788C1412.52 615.481 1413.59 612.841 1415.72 610.868C1417.86 608.841 1420.68 607.588 1424.2 607.108L1434.6 605.588C1436.58 605.321 1437.56 604.361 1437.56 602.708C1437.56 600.681 1436.87 599.028 1435.48 597.748C1434.1 596.468 1432.02 595.828 1429.24 595.828C1426.68 595.828 1424.66 596.548 1423.16 597.988C1421.67 599.374 1420.79 601.241 1420.52 603.588L1413.32 601.908C1413.7 598.228 1415.38 595.241 1418.36 592.948C1421.35 590.601 1424.92 589.428 1429.08 589.428C1434.52 589.428 1438.55 590.761 1441.16 593.428C1443.78 596.041 1445.08 599.401 1445.08 603.508V622.788C1445.08 625.081 1445.24 627.188 1445.56 629.108H1438.2C1437.94 627.508 1437.8 625.774 1437.8 623.908C1436.74 625.614 1435.16 627.108 1433.08 628.388C1431.06 629.668 1428.5 630.308 1425.4 630.308C1421.62 630.308 1418.52 629.188 1416.12 626.948C1413.72 624.654 1412.52 621.934 1412.52 618.788ZM1426.44 623.988C1429.8 623.988 1432.5 623.081 1434.52 621.268C1436.55 619.454 1437.56 616.574 1437.56 612.628V610.868L1425.8 612.628C1424.1 612.894 1422.74 613.508 1421.72 614.468C1420.71 615.428 1420.2 616.734 1420.2 618.388C1420.2 619.881 1420.76 621.188 1421.88 622.308C1423.06 623.428 1424.58 623.988 1426.44 623.988ZM1465.32 606.868V629.108H1457.8V590.628H1465.16V596.148C1467.72 591.721 1471.67 589.508 1477 589.508C1481.43 589.508 1484.81 590.921 1487.16 593.748C1489.56 596.574 1490.76 600.228 1490.76 604.708V629.108H1483.24V605.988C1483.24 599.534 1480.25 596.308 1474.28 596.308C1471.45 596.308 1469.24 597.321 1467.64 599.348C1466.09 601.321 1465.32 603.828 1465.32 606.868ZM1500.92 631.188L1508.2 629.508C1508.47 632.228 1509.56 634.468 1511.48 636.228C1513.4 638.041 1515.8 638.948 1518.68 638.948C1526.52 638.948 1530.44 634.788 1530.44 626.468V620.948C1529.48 622.814 1527.96 624.334 1525.88 625.508C1523.85 626.681 1521.45 627.268 1518.68 627.268C1513.56 627.268 1509.32 625.534 1505.96 622.068C1502.65 618.548 1501 614.068 1501 608.628C1501 603.348 1502.65 598.921 1505.96 595.348C1509.27 591.721 1513.51 589.908 1518.68 589.908C1524.55 589.908 1528.49 591.934 1530.52 595.988V590.628H1537.96V626.228C1537.96 628.788 1537.61 631.161 1536.92 633.348C1536.28 635.588 1535.24 637.641 1533.8 639.508C1532.36 641.374 1530.33 642.841 1527.72 643.908C1525.16 644.974 1522.15 645.508 1518.68 645.508C1513.93 645.508 1509.91 644.148 1506.6 641.428C1503.29 638.761 1501.4 635.348 1500.92 631.188ZM1519.8 620.948C1523.05 620.948 1525.69 619.828 1527.72 617.588C1529.75 615.294 1530.76 612.308 1530.76 608.628C1530.76 604.948 1529.75 601.988 1527.72 599.748C1525.69 597.454 1523.05 596.308 1519.8 596.308C1516.49 596.308 1513.8 597.428 1511.72 599.668C1509.69 601.908 1508.68 604.894 1508.68 608.628C1508.68 612.414 1509.67 615.428 1511.64 617.668C1513.67 619.854 1516.39 620.948 1519.8 620.948ZM1548.17 631.188L1555.45 629.508C1555.72 632.228 1556.81 634.468 1558.73 636.228C1560.65 638.041 1563.05 638.948 1565.93 638.948C1573.77 638.948 1577.69 634.788 1577.69 626.468V620.948C1576.73 622.814 1575.21 624.334 1573.13 625.508C1571.1 626.681 1568.7 627.268 1565.93 627.268C1560.81 627.268 1556.57 625.534 1553.21 622.068C1549.9 618.548 1548.25 614.068 1548.25 608.628C1548.25 603.348 1549.9 598.921 1553.21 595.348C1556.52 591.721 1560.76 589.908 1565.93 589.908C1571.8 589.908 1575.74 591.934 1577.77 595.988V590.628H1585.21V626.228C1585.21 628.788 1584.86 631.161 1584.17 633.348C1583.53 635.588 1582.49 637.641 1581.05 639.508C1579.61 641.374 1577.58 642.841 1574.97 643.908C1572.41 644.974 1569.4 645.508 1565.93 645.508C1561.18 645.508 1557.16 644.148 1553.85 641.428C1550.54 638.761 1548.65 635.348 1548.17 631.188ZM1567.05 620.948C1570.3 620.948 1572.94 619.828 1574.97 617.588C1577 615.294 1578.01 612.308 1578.01 608.628C1578.01 604.948 1577 601.988 1574.97 599.748C1572.94 597.454 1570.3 596.308 1567.05 596.308C1563.74 596.308 1561.05 597.428 1558.97 599.668C1556.94 601.908 1555.93 604.894 1555.93 608.628C1555.93 612.414 1556.92 615.428 1558.89 617.668C1560.92 619.854 1563.64 620.948 1567.05 620.948ZM1623.19 624.468C1622.18 626.388 1620.63 627.854 1618.55 628.868C1616.47 629.828 1614.23 630.308 1611.83 630.308C1607.46 630.308 1603.96 628.868 1601.35 625.988C1598.74 623.054 1597.43 619.348 1597.43 614.868V590.628H1604.95V613.748C1604.95 616.628 1605.64 619.001 1607.03 620.868C1608.47 622.734 1610.68 623.668 1613.67 623.668C1616.66 623.668 1618.92 622.788 1620.47 621.028C1622.02 619.214 1622.79 616.814 1622.79 613.828V590.628H1630.31V621.988C1630.31 624.494 1630.44 626.868 1630.71 629.108H1623.51C1623.3 627.934 1623.19 626.388 1623.19 624.468ZM1641.74 618.788C1641.74 615.481 1642.81 612.841 1644.94 610.868C1647.08 608.841 1649.9 607.588 1653.42 607.108L1663.82 605.588C1665.8 605.321 1666.78 604.361 1666.78 602.708C1666.78 600.681 1666.09 599.028 1664.7 597.748C1663.32 596.468 1661.24 595.828 1658.46 595.828C1655.9 595.828 1653.88 596.548 1652.38 597.988C1650.89 599.374 1650.01 601.241 1649.74 603.588L1642.54 601.908C1642.92 598.228 1644.6 595.241 1647.58 592.948C1650.57 590.601 1654.14 589.428 1658.3 589.428C1663.74 589.428 1667.77 590.761 1670.38 593.428C1673 596.041 1674.3 599.401 1674.3 603.508V622.788C1674.3 625.081 1674.46 627.188 1674.78 629.108H1667.42C1667.16 627.508 1667.02 625.774 1667.02 623.908C1665.96 625.614 1664.38 627.108 1662.3 628.388C1660.28 629.668 1657.72 630.308 1654.62 630.308C1650.84 630.308 1647.74 629.188 1645.34 626.948C1642.94 624.654 1641.74 621.934 1641.74 618.788ZM1655.66 623.988C1659.02 623.988 1661.72 623.081 1663.74 621.268C1665.77 619.454 1666.78 616.574 1666.78 612.628V610.868L1655.02 612.628C1653.32 612.894 1651.96 613.508 1650.94 614.468C1649.93 615.428 1649.42 616.734 1649.42 618.388C1649.42 619.881 1649.98 621.188 1651.1 622.308C1652.28 623.428 1653.8 623.988 1655.66 623.988ZM1694.54 606.868V629.108H1687.02V590.628H1694.38V596.148C1696.94 591.721 1700.88 589.508 1706.22 589.508C1710.64 589.508 1714.03 590.921 1716.38 593.748C1718.78 596.574 1719.98 600.228 1719.98 604.708V629.108H1712.46V605.988C1712.46 599.534 1709.47 596.308 1703.5 596.308C1700.67 596.308 1698.46 597.321 1696.86 599.348C1695.31 601.321 1694.54 603.828 1694.54 606.868ZM1762.58 598.868H1773.94C1777.3 598.868 1779.97 598.014 1781.94 596.308C1783.91 594.548 1784.9 592.201 1784.9 589.268C1784.9 586.281 1783.91 583.908 1781.94 582.148C1779.97 580.334 1777.3 579.428 1773.94 579.428H1762.58V598.868ZM1775.38 605.908H1762.58V629.108H1754.74V572.388H1775.38C1780.55 572.388 1784.77 573.988 1788.02 577.188C1791.27 580.388 1792.9 584.388 1792.9 589.188C1792.9 594.041 1791.27 598.041 1788.02 601.188C1784.77 604.334 1780.55 605.908 1775.38 605.908ZM1804.35 605.908H1825.39C1825.28 603.028 1824.32 600.681 1822.51 598.868C1820.7 597.001 1818.14 596.068 1814.83 596.068C1811.84 596.068 1809.39 597.054 1807.47 599.028C1805.55 600.948 1804.51 603.241 1804.35 605.908ZM1826.51 615.908L1832.99 618.148C1831.87 621.721 1829.79 624.654 1826.75 626.948C1823.71 629.188 1820.03 630.308 1815.71 630.308C1810.32 630.308 1805.74 628.468 1801.95 624.788C1798.22 621.054 1796.35 616.041 1796.35 609.748C1796.35 603.881 1798.16 599.028 1801.79 595.188C1805.42 591.348 1809.74 589.428 1814.75 589.428C1820.56 589.428 1825.1 591.268 1828.35 594.948C1831.6 598.574 1833.23 603.454 1833.23 609.588C1833.23 610.548 1833.18 611.348 1833.07 611.988H1804.11C1804.16 615.401 1805.28 618.201 1807.47 620.388C1809.71 622.574 1812.46 623.668 1815.71 623.668C1821.2 623.668 1824.8 621.081 1826.51 615.908ZM1851.35 606.868V629.108H1843.83V590.628H1851.19V596.148C1853.75 591.721 1857.7 589.508 1863.03 589.508C1867.46 589.508 1870.84 590.921 1873.19 593.748C1875.59 596.574 1876.79 600.228 1876.79 604.708V629.108H1869.27V605.988C1869.27 599.534 1866.28 596.308 1860.31 596.308C1857.48 596.308 1855.27 597.321 1853.67 599.348C1852.12 601.321 1851.35 603.828 1851.35 606.868ZM1894.23 609.748C1894.23 613.801 1895.22 617.108 1897.19 619.668C1899.22 622.228 1901.99 623.508 1905.51 623.508C1908.87 623.508 1911.56 622.201 1913.59 619.588C1915.62 616.974 1916.63 613.641 1916.63 609.588C1916.63 605.588 1915.64 602.361 1913.67 599.908C1911.7 597.454 1909 596.228 1905.59 596.228C1902.18 596.228 1899.43 597.481 1897.35 599.988C1895.27 602.494 1894.23 605.748 1894.23 609.748ZM1916.71 623.908V623.268C1915.7 625.241 1914.15 626.894 1912.07 628.228C1910.04 629.508 1907.62 630.148 1904.79 630.148C1899.3 630.148 1894.87 628.228 1891.51 624.388C1888.2 620.494 1886.55 615.614 1886.55 609.748C1886.55 604.148 1888.26 599.401 1891.67 595.508C1895.08 591.561 1899.46 589.588 1904.79 589.588C1907.94 589.588 1910.5 590.228 1912.47 591.508C1914.44 592.734 1915.8 594.254 1916.55 596.068V571.188H1923.99V621.988C1923.99 624.601 1924.12 626.974 1924.39 629.108H1917.11C1916.84 627.614 1916.71 625.881 1916.71 623.908ZM1942.66 605.908H1963.7C1963.6 603.028 1962.64 600.681 1960.82 598.868C1959.01 597.001 1956.45 596.068 1953.14 596.068C1950.16 596.068 1947.7 597.054 1945.78 599.028C1943.86 600.948 1942.82 603.241 1942.66 605.908ZM1964.82 615.908L1971.3 618.148C1970.18 621.721 1968.1 624.654 1965.06 626.948C1962.02 629.188 1958.34 630.308 1954.02 630.308C1948.64 630.308 1944.05 628.468 1940.26 624.788C1936.53 621.054 1934.66 616.041 1934.66 609.748C1934.66 603.881 1936.48 599.028 1940.1 595.188C1943.73 591.348 1948.05 589.428 1953.06 589.428C1958.88 589.428 1963.41 591.268 1966.66 594.948C1969.92 598.574 1971.54 603.454 1971.54 609.588C1971.54 610.548 1971.49 611.348 1971.38 611.988H1942.42C1942.48 615.401 1943.6 618.201 1945.78 620.388C1948.02 622.574 1950.77 623.668 1954.02 623.668C1959.52 623.668 1963.12 621.081 1964.82 615.908ZM1989.66 606.868V629.108H1982.14V590.628H1989.5V596.148C1992.06 591.721 1996.01 589.508 2001.34 589.508C2005.77 589.508 2009.16 590.921 2011.5 593.748C2013.9 596.574 2015.1 600.228 2015.1 604.708V629.108H2007.58V605.988C2007.58 599.534 2004.6 596.308 1998.62 596.308C1995.8 596.308 1993.58 597.321 1991.98 599.348C1990.44 601.321 1989.66 603.828 1989.66 606.868ZM2025.26 631.188L2032.54 629.508C2032.81 632.228 2033.9 634.468 2035.82 636.228C2037.74 638.041 2040.14 638.948 2043.02 638.948C2050.86 638.948 2054.78 634.788 2054.78 626.468V620.948C2053.82 622.814 2052.3 624.334 2050.22 625.508C2048.2 626.681 2045.8 627.268 2043.02 627.268C2037.9 627.268 2033.66 625.534 2030.3 622.068C2027 618.548 2025.34 614.068 2025.34 608.628C2025.34 603.348 2027 598.921 2030.3 595.348C2033.61 591.721 2037.85 589.908 2043.02 589.908C2048.89 589.908 2052.84 591.934 2054.86 595.988V590.628H2062.3V626.228C2062.3 628.788 2061.96 631.161 2061.26 633.348C2060.62 635.588 2059.58 637.641 2058.14 639.508C2056.7 641.374 2054.68 642.841 2052.06 643.908C2049.5 644.974 2046.49 645.508 2043.02 645.508C2038.28 645.508 2034.25 644.148 2030.94 641.428C2027.64 638.761 2025.74 635.348 2025.26 631.188ZM2044.14 620.948C2047.4 620.948 2050.04 619.828 2052.06 617.588C2054.09 615.294 2055.1 612.308 2055.1 608.628C2055.1 604.948 2054.09 601.988 2052.06 599.748C2050.04 597.454 2047.4 596.308 2044.14 596.308C2040.84 596.308 2038.14 597.428 2036.06 599.668C2034.04 601.908 2033.02 604.894 2033.02 608.628C2033.02 612.414 2034.01 615.428 2035.98 617.668C2038.01 619.854 2040.73 620.948 2044.14 620.948ZM2072.52 618.788C2072.52 615.481 2073.59 612.841 2075.72 610.868C2077.86 608.841 2080.68 607.588 2084.2 607.108L2094.6 605.588C2096.58 605.321 2097.56 604.361 2097.56 602.708C2097.56 600.681 2096.87 599.028 2095.48 597.748C2094.1 596.468 2092.02 595.828 2089.24 595.828C2086.68 595.828 2084.66 596.548 2083.16 597.988C2081.67 599.374 2080.79 601.241 2080.52 603.588L2073.32 601.908C2073.7 598.228 2075.38 595.241 2078.36 592.948C2081.35 590.601 2084.92 589.428 2089.08 589.428C2094.52 589.428 2098.55 590.761 2101.16 593.428C2103.78 596.041 2105.08 599.401 2105.08 603.508V622.788C2105.08 625.081 2105.24 627.188 2105.56 629.108H2098.2C2097.94 627.508 2097.8 625.774 2097.8 623.908C2096.74 625.614 2095.16 627.108 2093.08 628.388C2091.06 629.668 2088.5 630.308 2085.4 630.308C2081.62 630.308 2078.52 629.188 2076.12 626.948C2073.72 624.654 2072.52 621.934 2072.52 618.788ZM2086.44 623.988C2089.8 623.988 2092.5 623.081 2094.52 621.268C2096.55 619.454 2097.56 616.574 2097.56 612.628V610.868L2085.8 612.628C2084.1 612.894 2082.74 613.508 2081.72 614.468C2080.71 615.428 2080.2 616.734 2080.2 618.388C2080.2 619.881 2080.76 621.188 2081.88 622.308C2083.06 623.428 2084.58 623.988 2086.44 623.988ZM2139.16 590.228V598.228C2138.04 598.068 2136.95 597.988 2135.88 597.988C2128.84 597.988 2125.32 601.934 2125.32 609.828V629.108H2117.8V590.628H2125.16V597.348C2127.51 592.441 2131.35 589.988 2136.68 589.988C2137.53 589.988 2138.36 590.068 2139.16 590.228ZM2145.77 618.788C2145.77 615.481 2146.84 612.841 2148.97 610.868C2151.11 608.841 2153.93 607.588 2157.45 607.108L2167.85 605.588C2169.83 605.321 2170.81 604.361 2170.81 602.708C2170.81 600.681 2170.12 599.028 2168.73 597.748C2167.35 596.468 2165.27 595.828 2162.49 595.828C2159.93 595.828 2157.91 596.548 2156.41 597.988C2154.92 599.374 2154.04 601.241 2153.77 603.588L2146.57 601.908C2146.95 598.228 2148.63 595.241 2151.61 592.948C2154.6 590.601 2158.17 589.428 2162.33 589.428C2167.77 589.428 2171.8 590.761 2174.41 593.428C2177.03 596.041 2178.33 599.401 2178.33 603.508V622.788C2178.33 625.081 2178.49 627.188 2178.81 629.108H2171.45C2171.19 627.508 2171.05 625.774 2171.05 623.908C2169.99 625.614 2168.41 627.108 2166.33 628.388C2164.31 629.668 2161.75 630.308 2158.65 630.308C2154.87 630.308 2151.77 629.188 2149.37 626.948C2146.97 624.654 2145.77 621.934 2145.77 618.788ZM2159.69 623.988C2163.05 623.988 2165.75 623.081 2167.77 621.268C2169.8 619.454 2170.81 616.574 2170.81 612.628V610.868L2159.05 612.628C2157.35 612.894 2155.99 613.508 2154.97 614.468C2153.96 615.428 2153.45 616.734 2153.45 618.388C2153.45 619.881 2154.01 621.188 2155.13 622.308C2156.31 623.428 2157.83 623.988 2159.69 623.988ZM2198.57 606.868V629.108H2191.05V590.628H2198.41V596.148C2200.97 591.721 2204.92 589.508 2210.25 589.508C2214.68 589.508 2218.06 590.921 2220.41 593.748C2222.81 596.574 2224.01 600.228 2224.01 604.708V629.108H2216.49V605.988C2216.49 599.534 2213.5 596.308 2207.53 596.308C2204.7 596.308 2202.49 597.321 2200.89 599.348C2199.34 601.321 2198.57 603.828 2198.57 606.868Z" fill="white" fill-opacity="0.5"/>
</g>
<defs>
<clipPath id="clip0_3936_1338">
<rect width="2400" height="1000" fill="white" transform="translate(0 0.5)"/>
</clipPath>
</defs>
</svg>
